SplineFontDB: 3.0
FontName: EGYSansThin-Italic
FullName: EGY Sans Thin Italic
FamilyName: EGY Sans Thin
Weight: Regular
Copyright: Copyright (c) 2010 by Oriol Esparraguera Font. All rights reserved.
Version: 1.000
ItalicAngle: -12
UnderlinePosition: -75
UnderlineWidth: 50
Ascent: 800
Descent: 200
sfntRevision: 0x00010000
LayerCount: 2
Layer: 0 1 "Back"  1
Layer: 1 1 "Fore"  0
XUID: [1021 288 713564382 3430698]
FSType: 0
OS2Version: 3
OS2_WeightWidthSlopeOnly: 0
OS2_UseTypoMetrics: 1
CreationTime: 1287916500
ModificationTime: 1304089719
PfmFamily: 17
TTFWeight: 400
TTFWidth: 5
LineGap: 0
VLineGap: 0
Panose: 2 0 5 3 0 0 0 2 0 4
OS2TypoAscent: 980
OS2TypoAOffset: 0
OS2TypoDescent: -235
OS2TypoDOffset: 0
OS2TypoLinegap: 0
OS2WinAscent: 980
OS2WinAOffset: 0
OS2WinDescent: 235
OS2WinDOffset: 0
HheadAscent: 980
HheadAOffset: 0
HheadDescent: -235
HheadDOffset: 0
OS2SubXSize: 204
OS2SubYSize: 204
OS2SubXOff: 0
OS2SubYOff: 286
OS2SupXSize: 204
OS2SupYSize: 204
OS2SupXOff: 0
OS2SupYOff: 286
OS2StrikeYSize: 50
OS2StrikeYPos: 250
OS2Vendor: 'LINO'
OS2CodePages: 20000011.00000000
OS2UnicodeRanges: 8000006f.40000042.00000000.00000000
MacStyle: 2
Lookup: 4 0 1 "'liga' Standard Ligatures in Latin lookup 0"  {"'liga' Standard Ligatures in Latin lookup 0 subtable"  } ['liga' ('latn' <'dflt' > ) ]
Lookup: 4 0 0 "'ccmp' Glyph Composition/Decomposition in Latin lookup 1"  {"'ccmp' Glyph Composition/Decomposition in Latin lookup 1 subtable"  } ['ccmp' ('latn' <'dflt' > ) ]
Lookup: 258 0 0 "'kern' Horizontal Kerning in Latin lookup 0"  {"'kern' Horizontal Kerning in Latin lookup 0 subtable"  } ['kern' ('latn' <'dflt' > ) ]
MarkAttachClasses: 1
DEI: 91125
TtTable: prep
PUSHW_1
 511
SCANCTRL
PUSHB_1
 4
SCANTYPE
EndTTInstrs
TtTable: fpgm
PUSHW_1
 0
FDEF
MPPEM
PUSHW_1
 9
LT
IF
PUSHB_2
 1
 1
INSTCTRL
EIF
PUSHW_1
 511
SCANCTRL
PUSHW_1
 68
SCVTCI
PUSHW_2
 9
 3
SDS
SDB
ENDF
PUSHW_1
 1
FDEF
DUP
DUP
RCVT
ROUND[Black]
WCVTP
PUSHB_1
 1
ADD
ENDF
PUSHW_1
 2
FDEF
PUSHW_1
 1
LOOPCALL
POP
ENDF
PUSHW_1
 3

StartChar: exclam
Encoding: 33 33 1
Width: 264
Flags: W
LayerCount: 2
Fore
SplineSet
113 86 m 1,0,-1
 198 86 l 1,1,-1
 180 0 l 1,2,-1
 95 0 l 1,3,-1
 113 86 l 1,0,-1
191 225 m 1,4,-1
 170 225 l 1,5,-1
 208 519 l 1,6,-1
 253 732 l 1,7,-1
 324 732 l 1,8,-1
 279 519 l 1,9,-1
 191 225 l 1,4,-1
EndSplineSet
EndChar

StartChar: quotedbl
Encoding: 34 34 2
Width: 435
Flags: W
LayerCount: 2
Fore
SplineSet
387 493 m 1,0,-1
 438 730 l 1,1,-1
 482 730 l 1,2,-1
 431 493 l 1,3,-1
 387 493 l 1,0,-1
331 730 m 1,4,-1
 280 493 l 1,5,-1
 234 493 l 1,6,-1
 285 730 l 1,7,-1
 331 730 l 1,4,-1
EndSplineSet
EndChar

StartChar: numbersign
Encoding: 35 35 3
Width: 574
Flags: W
LayerCount: 2
Fore
SplineSet
345 458 m 1,0,-1
 265 254 l 1,1,-1
 431 254 l 1,2,3
 447 293 447 293 458.5 322.5 c 128,-1,4
 470 352 470 352 479.5 376 c 128,-1,5
 489 400 489 400 496.5 420 c 128,-1,6
 504 440 504 440 511 458 c 1,7,-1
 345 458 l 1,0,-1
169 458 m 1,8,-1
 175 489 l 1,9,-1
 310 489 l 1,10,-1
 393 709 l 1,11,-1
 439 709 l 1,12,-1
 354 489 l 1,13,-1
 522 489 l 1,14,-1
 606 709 l 1,15,-1
 653 709 l 1,16,-1
 567 489 l 1,17,-1
 663 489 l 1,18,-1
 657 458 l 1,19,-1
 556 458 l 1,20,-1
 478 254 l 1,21,-1
 581 254 l 1,22,-1
 575 223 l 1,23,-1
 469 223 l 1,24,25
 445 167 445 167 424 111 c 128,-1,26
 403 55 403 55 384 0 c 1,27,-1
 338 0 l 1,28,-1
 422 223 l 1,29,-1
 254 223 l 1,30,31
 233 167 233 167 219.5 130 c 128,-1,32
 206 93 206 93 197 68.5 c 128,-1,33
 188 44 188 44 182 28.5 c 128,-1,34
 176 13 176 13 171 0 c 1,35,-1
 125 0 l 1,36,-1
 209 223 l 1,37,-1
 93 223 l 1,38,-1
 99 254 l 1,39,-1
 220 254 l 1,40,-1
 299 458 l 1,41,-1
 169 458 l 1,8,-1
EndSplineSet
EndChar

StartChar: dollar
Encoding: 36 36 4
Width: 585
Flags: W
LayerCount: 2
Fore
SplineSet
334 27 m 1,0,1
 415 48 415 48 464.5 86.5 c 128,-1,2
 514 125 514 125 524 174 c 0,3,4
 527 188 527 188 527.5 207.5 c 128,-1,5
 528 227 528 227 517 249.5 c 128,-1,6
 506 272 506 272 479.5 296 c 128,-1,7
 453 320 453 320 402 344 c 1,8,-1
 334 27 l 1,0,1
448 708 m 1,9,10
 372 695 372 695 321 658.5 c 128,-1,11
 270 622 270 622 257 563 c 0,12,13
 246 510 246 510 283.5 472.5 c 128,-1,14
 321 435 321 435 384 409 c 1,15,-1
 448 708 l 1,9,10
488 751 m 1,16,17
 573 746 573 746 621 732 c 128,-1,18
 669 718 669 718 692 704 c 1,19,-1
 682 654 l 1,20,21
 631 681 631 681 582 693 c 128,-1,22
 533 705 533 705 479 709 c 1,23,-1
 415 405 l 1,24,25
 453 390 453 390 492 371.5 c 128,-1,26
 531 353 531 353 559 326.5 c 128,-1,27
 587 300 587 300 601 263 c 128,-1,28
 615 226 615 226 603 174 c 0,29,30
 593 127 593 127 564 93 c 128,-1,31
 535 59 535 59 495.5 35.5 c 128,-1,32
 456 12 456 12 411 -1 c 128,-1,33
 366 -14 366 -14 324 -19 c 1,34,-1
 303 -119 l 1,35,-1
 272 -119 l 1,36,-1
 293 -20 l 1,37,38
 201 -16 201 -16 144.5 3 c 128,-1,39
 88 22 88 22 66 40 c 1,40,-1
 80 105 l 1,41,42
 109 79 109 79 166 55.5 c 128,-1,43
 223 32 223 32 303 28 c 1,44,-1
 372 349 l 1,45,46
 262 384 262 384 211 433 c 128,-1,47
 160 482 160 482 177 564 c 0,48,49
 184 596 184 596 205.5 627 c 128,-1,50
 227 658 227 658 262.5 683.5 c 128,-1,51
 298 709 298 709 347 727 c 128,-1,52
 396 745 396 745 457 751 c 1,53,-1
 472 820 l 1,54,-1
 503 820 l 1,55,-1
 488 751 l 1,16,17
EndSplineSet
EndChar

StartChar: percent
Encoding: 37 37 5
Width: 1000
Flags: W
LayerCount: 2
Fore
SplineSet
876 383 m 0,0,1
 924 383 924 383 950.5 366 c 128,-1,2
 977 349 977 349 988 321.5 c 128,-1,3
 999 294 999 294 998.5 258 c 128,-1,4
 998 222 998 222 990 183 c 0,5,6
 975 117 975 117 952 78.5 c 128,-1,7
 929 40 929 40 902.5 20.5 c 128,-1,8
 876 1 876 1 848 -4 c 128,-1,9
 820 -9 820 -9 794 -9 c 0,10,11
 767 -9 767 -9 739.5 -4 c 128,-1,12
 712 1 712 1 692.5 20.5 c 128,-1,13
 673 40 673 40 665.5 78.5 c 128,-1,14
 658 117 658 117 671 183 c 1,15,16
 683 231 683 231 700 268 c 128,-1,17
 717 305 717 305 741.5 330.5 c 128,-1,18
 766 356 766 356 799 369.5 c 128,-1,19
 832 383 832 383 876 383 c 0,0,1
796 6 m 0,20,21
 826 6 826 6 850 15 c 128,-1,22
 874 24 874 24 892.5 44.5 c 128,-1,23
 911 65 911 65 926 99 c 128,-1,24
 941 133 941 133 951 183 c 0,25,26
 962 235 962 235 963 270 c 128,-1,27
 964 305 964 305 954 326 c 128,-1,28
 944 347 944 347 923.5 356 c 128,-1,29
 903 365 903 365 872 365 c 0,30,31
 843 365 843 365 818.5 356 c 128,-1,32
 794 347 794 347 774 325 c 128,-1,33
 754 303 754 303 738.5 267.5 c 128,-1,34
 723 232 723 232 712 179 c 0,35,36
 701 128 701 128 702 94.5 c 128,-1,37
 703 61 703 61 715 41.5 c 128,-1,38
 727 22 727 22 748 14 c 128,-1,39
 769 6 769 6 796 6 c 0,20,21
1005 740 m 1,40,-1
 280 -19 l 1,41,-1
 230 -19 l 1,42,-1
 954 740 l 1,43,-1
 1005 740 l 1,40,-1
338 353 m 0,44,45
 365 353 365 353 388.5 361 c 128,-1,46
 412 369 412 369 431.5 389 c 128,-1,47
 451 409 451 409 466.5 442 c 128,-1,48
 482 475 482 475 493 525 c 0,49,50
 504 578 504 578 502.5 612.5 c 128,-1,51
 501 647 501 647 490 667 c 128,-1,52
 479 687 479 687 458.5 695 c 128,-1,53
 438 703 438 703 412 703 c 0,54,55
 385 703 385 703 361 695 c 128,-1,56
 337 687 337 687 317 666.5 c 128,-1,57
 297 646 297 646 281 611 c 128,-1,58
 265 576 265 576 253 522 c 1,59,60
 243 471 243 471 246 438 c 128,-1,61
 249 405 249 405 261.5 386 c 128,-1,62
 274 367 274 367 294 360 c 128,-1,63
 314 353 314 353 338 353 c 0,44,45
417 726 m 0,64,65
 465 726 465 726 492 709.5 c 128,-1,66
 519 693 519 693 530.5 665 c 128,-1,67
 542 637 542 637 541 600.5 c 128,-1,68
 540 564 540 564 533 525 c 1,69,70
 518 459 518 459 494 420.5 c 128,-1,71
 470 382 470 382 442 362.5 c 128,-1,72
 414 343 414 343 385.5 337.5 c 128,-1,73
 357 332 357 332 334 332 c 0,74,75
 313 332 313 332 286 337.5 c 128,-1,76
 259 343 259 343 239 362.5 c 128,-1,77
 219 382 219 382 209.5 420.5 c 128,-1,78
 200 459 200 459 213 525 c 1,79,80
 235 621 235 621 283.5 673.5 c 128,-1,81
 332 726 332 726 417 726 c 0,64,65
EndSplineSet
EndChar

StartChar: ampersand
Encoding: 38 38 6
Width: 759
Flags: W
LayerCount: 2
Fore
SplineSet
562 728 m 0,0,1
 635 727 635 727 672 702 c 128,-1,2
 709 677 709 677 696 614 c 0,3,4
 694 606 694 606 688.5 589 c 128,-1,5
 683 572 683 572 674 548 c 1,6,7
 724 539 724 539 757.5 521 c 128,-1,8
 791 503 791 503 809 474 c 128,-1,9
 827 445 827 445 829.5 403.5 c 128,-1,10
 832 362 832 362 821 306 c 1,11,12
 804 230 804 230 762.5 168 c 128,-1,13
 721 106 721 106 642 56 c 1,14,15
 674 36 674 36 701.5 31 c 128,-1,16
 729 26 729 26 746 26 c 0,17,18
 798 26 798 26 837 38 c 128,-1,19
 876 50 876 50 911 67 c 1,20,-1
 899 14 l 1,21,22
 869 -1 869 -1 830.5 -8.5 c 128,-1,23
 792 -16 792 -16 734 -16 c 0,24,25
 694 -16 694 -16 659 -7.5 c 128,-1,26
 624 1 624 1 585 29 c 1,27,28
 524 4 524 4 459.5 -7 c 128,-1,29
 395 -18 395 -18 323 -18 c 0,30,31
 245 -18 245 -18 195.5 0.5 c 128,-1,32
 146 19 146 19 120 53.5 c 128,-1,33
 94 88 94 88 90 138.5 c 128,-1,34
 86 189 86 189 99 254 c 1,35,36
 112 312 112 312 134 354.5 c 128,-1,37
 156 397 156 397 189.5 426 c 128,-1,38
 223 455 223 455 269 472.5 c 128,-1,39
 315 490 315 490 375 499 c 1,40,41
 374 520 374 520 373 533 c 128,-1,42
 372 546 372 546 371 557.5 c 128,-1,43
 370 569 370 569 371.5 581.5 c 128,-1,44
 373 594 373 594 377 614 c 0,45,46
 385 650 385 650 403.5 672 c 128,-1,47
 422 694 422 694 447 706.5 c 128,-1,48
 472 719 472 719 502 723.5 c 128,-1,49
 532 728 532 728 562 728 c 0,0,1
374 473 m 1,50,51
 331 462 331 462 297.5 449.5 c 128,-1,52
 264 437 264 437 239.5 414.5 c 128,-1,53
 215 392 215 392 197 355 c 128,-1,54
 179 318 179 318 166 258 c 0,55,56
 152 190 152 190 155.5 145 c 128,-1,57
 159 100 159 100 180 73 c 128,-1,58
 201 46 201 46 239.5 35 c 128,-1,59
 278 24 278 24 334 24 c 0,60,61
 425 24 425 24 549 57 c 1,62,63
 475 146 475 146 434.5 253.5 c 128,-1,64
 394 361 394 361 374 473 c 1,50,51
655 517 m 1,65,66
 623 458 623 458 577 392 c 128,-1,67
 531 326 531 326 479 263 c 1,68,69
 496 225 496 225 508.5 199.5 c 128,-1,70
 521 174 521 174 533 154.5 c 128,-1,71
 545 135 545 135 558.5 119.5 c 128,-1,72
 572 104 572 104 590 86 c 1,73,74
 654 114 654 114 694.5 167 c 128,-1,75
 735 220 735 220 754 310 c 0,76,77
 765 362 765 362 764 396.5 c 128,-1,78
 763 431 763 431 750.5 453.5 c 128,-1,79
 738 476 738 476 714 490 c 128,-1,80
 690 504 690 504 655 517 c 1,65,66
645 598 m 0,81,82
 651 626 651 626 645.5 643 c 128,-1,83
 640 660 640 660 627 669 c 128,-1,84
 614 678 614 678 594.5 681 c 128,-1,85
 575 684 575 684 553 684 c 0,86,87
 527 684 527 684 505.5 681 c 128,-1,88
 484 678 484 678 466.5 669 c 128,-1,89
 449 660 449 660 437 643 c 128,-1,90
 425 626 425 626 419 598 c 0,91,92
 413 571 413 571 416.5 533 c 128,-1,93
 420 495 420 495 428.5 454.5 c 128,-1,94
 437 414 437 414 449.5 374.5 c 128,-1,95
 462 335 462 335 473 306 c 1,96,97
 504 349 504 349 532.5 389 c 128,-1,98
 561 429 561 429 583.5 465.5 c 128,-1,99
 606 502 606 502 622 535.5 c 128,-1,100
 638 569 638 569 645 598 c 0,81,82
EndSplineSet
EndChar

StartChar: quotesingle
Encoding: 39 39 7
Width: 286
Flags: W
LayerCount: 2
Fore
SplineSet
234 493 m 1,0,-1
 285 730 l 1,1,-1
 330 730 l 1,2,-1
 279 493 l 1,3,-1
 234 493 l 1,0,-1
EndSplineSet
EndChar

StartChar: parenleft
Encoding: 40 40 8
Width: 315
Flags: W
LayerCount: 2
Fore
SplineSet
462 753 m 1,0,1
 435 722 435 722 396 670 c 128,-1,2
 357 618 357 618 317.5 553.5 c 128,-1,3
 278 489 278 489 244 416 c 128,-1,4
 210 343 210 343 195 269 c 1,5,6
 181 207 181 207 182 143.5 c 128,-1,7
 183 80 183 80 192 17.5 c 128,-1,8
 201 -45 201 -45 216.5 -103.5 c 128,-1,9
 232 -162 232 -162 249 -213 c 1,10,-1
 220 -213 l 1,11,12
 210 -198 210 -198 186.5 -154 c 128,-1,13
 163 -110 163 -110 142.5 -45.5 c 128,-1,14
 122 19 122 19 112.5 99.5 c 128,-1,15
 103 180 103 180 122 269 c 0,16,17
 136 336 136 336 166 402.5 c 128,-1,18
 196 469 196 469 237 531 c 128,-1,19
 278 593 278 593 326.5 649.5 c 128,-1,20
 375 706 375 706 426 753 c 1,21,-1
 462 753 l 1,0,1
EndSplineSet
EndChar

StartChar: parenright
Encoding: 41 41 9
Width: 308
Flags: W
LayerCount: 2
Fore
SplineSet
218 753 m 1,0,1
 249 701 249 701 273.5 643.5 c 128,-1,2
 298 586 298 586 312.5 524.5 c 128,-1,3
 327 463 327 463 329 399 c 128,-1,4
 331 335 331 335 317 269 c 0,5,6
 304 210 304 210 279.5 154 c 128,-1,7
 255 98 255 98 225 47.5 c 128,-1,8
 195 -3 195 -3 162.5 -46 c 128,-1,9
 130 -89 130 -89 100 -123 c 128,-1,10
 70 -157 70 -157 46.5 -180 c 128,-1,11
 23 -203 23 -203 13 -213 c 1,12,-1
 -17 -213 l 1,13,14
 23 -157 23 -157 64 -98.5 c 128,-1,15
 105 -40 105 -40 140.5 20.5 c 128,-1,16
 176 81 176 81 203 143.5 c 128,-1,17
 230 206 230 206 244 269 c 0,18,19
 260 344 260 344 256.5 417.5 c 128,-1,20
 253 491 253 491 240.5 555.5 c 128,-1,21
 228 620 228 620 211 671.5 c 128,-1,22
 194 723 194 723 182 753 c 1,23,-1
 218 753 l 1,0,1
EndSplineSet
EndChar

StartChar: asterisk
Encoding: 42 42 10
Width: 329
Flags: W
LayerCount: 2
Fore
SplineSet
312 605 m 1,0,1
 326 598 326 598 343.5 587.5 c 128,-1,2
 361 577 361 577 377 567.5 c 128,-1,3
 393 558 393 558 404 551.5 c 128,-1,4
 415 545 415 545 415 545 c 1,5,-1
 402 520 l 1,6,-1
 314 592 l 1,7,-1
 287 462 l 1,8,-1
 261 462 l 1,9,-1
 288 592 l 1,10,-1
 170 520 l 1,11,-1
 167 545 l 1,12,13
 192 558 192 558 215 569 c 0,14,15
 236 579 236 579 258 588.5 c 128,-1,16
 280 598 280 598 296 605 c 1,17,18
 271 618 271 618 242.5 631.5 c 128,-1,19
 214 645 214 645 191 656 c 1,20,21
 195 664 195 664 198.5 669 c 128,-1,22
 202 674 202 674 205 679 c 1,23,-1
 295 625 l 1,24,-1
 318 731 l 1,25,-1
 344 731 l 1,26,-1
 321 625 l 1,27,-1
 435 679 l 1,28,29
 436 674 436 674 437.5 669 c 128,-1,30
 439 664 439 664 439 656 c 1,31,32
 412 645 412 645 377.5 631.5 c 128,-1,33
 343 618 343 618 312 605 c 1,0,1
EndSplineSet
EndChar

StartChar: plus
Encoding: 43 43 11
Width: 600
Flags: W
LayerCount: 2
Fore
SplineSet
331 509 m 1,0,-1
 331 274 l 1,1,-1
 567 274 l 1,2,-1
 567 232 l 1,3,-1
 331 232 l 1,4,-1
 331 1 l 1,5,-1
 286 1 l 1,6,-1
 286 232 l 1,7,-1
 59 232 l 1,8,-1
 59 274 l 1,9,-1
 286 274 l 1,10,-1
 286 509 l 1,11,-1
 331 509 l 1,0,-1
EndSplineSet
EndChar

StartChar: comma
Encoding: 44 44 12
Width: 278
Flags: W
LayerCount: 2
Fore
SplineSet
123 84 m 1,0,-1
 210 84 l 1,1,2
 208 55 208 55 205 30 c 128,-1,3
 202 5 202 5 197 -15 c 0,4,5
 188 -60 188 -60 172 -91.5 c 128,-1,6
 156 -123 156 -123 136.5 -143.5 c 128,-1,7
 117 -164 117 -164 95 -174 c 128,-1,8
 73 -184 73 -184 52 -187 c 1,9,-1
 59 -152 l 1,10,11
 88 -149 88 -149 106 -134.5 c 128,-1,12
 124 -120 124 -120 135.5 -99 c 128,-1,13
 147 -78 147 -78 153.5 -52 c 128,-1,14
 160 -26 160 -26 166 0 c 1,15,-1
 106 0 l 1,16,-1
 123 84 l 1,0,-1
EndSplineSet
EndChar

StartChar: hyphen
Encoding: 45 45 13
Width: 398
Flags: W
LayerCount: 2
Fore
SplineSet
411 304 m 1,0,-1
 400 253 l 1,1,-1
 120 253 l 1,2,-1
 131 304 l 1,3,-1
 411 304 l 1,0,-1
EndSplineSet
EndChar

StartChar: period
Encoding: 46 46 14
Width: 271
Flags: W
LayerCount: 2
Fore
SplineSet
123 83 m 1,0,-1
 208 83 l 1,1,-1
 190 -1 l 1,2,-1
 105 -1 l 1,3,-1
 123 83 l 1,0,-1
EndSplineSet
EndChar

StartChar: slash
Encoding: 47 47 15
Width: 347
Flags: W
LayerCount: 2
Fore
SplineSet
470 753 m 1,0,-1
 517 753 l 1,1,-1
 48 -19 l 1,2,-1
 1 -19 l 1,3,-1
 470 753 l 1,0,-1
EndSplineSet
EndChar

StartChar: zero
Encoding: 48 48 16
Width: 650
Flags: W
LayerCount: 2
Fore
SplineSet
487 678 m 0,0,1
 438 678 438 678 394 661.5 c 128,-1,2
 350 645 350 645 313 605.5 c 128,-1,3
 276 566 276 566 246 501.5 c 128,-1,4
 216 437 216 437 196 341 c 0,5,6
 176 248 176 248 180.5 187 c 128,-1,7
 185 126 185 126 207.5 90 c 128,-1,8
 230 54 230 54 266.5 39.5 c 128,-1,9
 303 25 303 25 348 25 c 256,10,11
 393 25 393 25 435 42.5 c 128,-1,12
 477 60 477 60 513.5 98 c 128,-1,13
 550 136 550 136 580 197.5 c 128,-1,14
 610 259 610 259 628 348 c 1,15,16
 648 440 648 440 645 503 c 128,-1,17
 642 566 642 566 621.5 605 c 128,-1,18
 601 644 601 644 566.5 661 c 128,-1,19
 532 678 532 678 487 678 c 0,0,1
496 723 m 0,20,21
 524 723 524 723 554.5 718 c 128,-1,22
 585 713 585 713 613 698.5 c 128,-1,23
 641 684 641 684 664 658.5 c 128,-1,24
 687 633 687 633 699.5 591 c 128,-1,25
 712 549 712 549 712 489.5 c 128,-1,26
 712 430 712 430 694 348 c 0,27,28
 677 268 677 268 651.5 210 c 128,-1,29
 626 152 626 152 595 111.5 c 128,-1,30
 564 71 564 71 529 46 c 128,-1,31
 494 21 494 21 460.5 7.5 c 128,-1,32
 427 -6 427 -6 395.5 -11 c 128,-1,33
 364 -16 364 -16 339 -16 c 256,34,35
 314 -16 314 -16 284 -11 c 128,-1,36
 254 -6 254 -6 225 7.5 c 128,-1,37
 196 21 196 21 171 46 c 128,-1,38
 146 71 146 71 131 111.5 c 128,-1,39
 116 152 116 152 114 210 c 128,-1,40
 112 268 112 268 129 348 c 0,41,42
 155 466 155 466 196 539.5 c 128,-1,43
 237 613 237 613 286.5 654 c 128,-1,44
 336 695 336 695 390.5 709 c 128,-1,45
 445 723 445 723 496 723 c 0,20,21
EndSplineSet
EndChar

StartChar: one
Encoding: 49 49 17
Width: 435
Flags: W
LayerCount: 2
Fore
SplineSet
409 726 m 1,0,-1
 255 0 l 1,1,-1
 189 0 l 1,2,-1
 332 674 l 1,3,4
 305 667 305 667 286 662 c 0,5,6
 269 657 269 657 255.5 653.5 c 128,-1,7
 242 650 242 650 242 651 c 2,8,-1
 248 680 l 1,9,10
 248 680 248 680 257 685 c 128,-1,11
 266 690 266 690 278 697 c 128,-1,12
 290 704 290 704 304 712 c 128,-1,13
 318 720 318 720 327 726 c 1,14,-1
 409 726 l 1,0,-1
EndSplineSet
EndChar

StartChar: two
Encoding: 50 50 18
Width: 581
Flags: W
LayerCount: 2
Fore
SplineSet
534 48 m 1,0,-1
 524 0 l 1,1,-1
 34 0 l 1,2,3
 52 77 52 77 83.5 131.5 c 128,-1,4
 115 186 115 186 158.5 226.5 c 128,-1,5
 202 267 202 267 257.5 298 c 128,-1,6
 313 329 313 329 380 360 c 1,7,-1
 379 360 l 1,8,9
 458 395 458 395 499 440.5 c 128,-1,10
 540 486 540 486 551 537 c 0,11,12
 556 564 556 564 552 588.5 c 128,-1,13
 548 613 548 613 532.5 632.5 c 128,-1,14
 517 652 517 652 488.5 664.5 c 128,-1,15
 460 677 460 677 418 679 c 1,16,17
 383 679 383 679 354.5 670.5 c 128,-1,18
 326 662 326 662 304 650 c 128,-1,19
 282 638 282 638 265.5 624.5 c 128,-1,20
 249 611 249 611 239 601 c 1,21,22
 228 612 228 612 218.5 621 c 128,-1,23
 209 630 209 630 198 640 c 1,24,25
 231 674 231 674 293 700 c 128,-1,26
 355 726 355 726 427 726 c 0,27,28
 486 726 486 726 525.5 711 c 128,-1,29
 565 696 565 696 587.5 670 c 128,-1,30
 610 644 610 644 616.5 609.5 c 128,-1,31
 623 575 623 575 615 537 c 0,32,33
 599 465 599 465 543.5 405.5 c 128,-1,34
 488 346 488 346 385 301 c 0,35,36
 341 281 341 281 299.5 256.5 c 128,-1,37
 258 232 258 232 224 201 c 128,-1,38
 190 170 190 170 164.5 132.5 c 128,-1,39
 139 95 139 95 127 48 c 1,40,-1
 534 48 l 1,0,-1
EndSplineSet
EndChar

StartChar: three
Encoding: 51 51 19
Width: 620
Flags: W
LayerCount: 2
Fore
SplineSet
455 679 m 0,0,1
 420 679 420 679 382 671 c 128,-1,2
 344 663 344 663 309 652 c 128,-1,3
 274 641 274 641 243 628 c 128,-1,4
 212 615 212 615 190 605 c 1,5,-1
 202 659 l 1,6,7
 254 683 254 683 320.5 705 c 128,-1,8
 387 727 387 727 465 727 c 0,9,10
 510 727 510 727 550 718 c 128,-1,11
 590 709 590 709 618 689 c 128,-1,12
 646 669 646 669 658.5 637.5 c 128,-1,13
 671 606 671 606 662 561 c 0,14,15
 647 493 647 493 607.5 448.5 c 128,-1,16
 568 404 568 404 494 385 c 1,17,18
 528 376 528 376 558 363.5 c 128,-1,19
 588 351 588 351 607.5 330 c 128,-1,20
 627 309 627 309 634.5 278 c 128,-1,21
 642 247 642 247 632 202 c 0,22,23
 623 158 623 158 594 118.5 c 128,-1,24
 565 79 565 79 520 49 c 128,-1,25
 475 19 475 19 415 1 c 128,-1,26
 355 -17 355 -17 284 -17 c 0,27,28
 231 -17 231 -17 191 -12.5 c 128,-1,29
 151 -8 151 -8 122 -2 c 128,-1,30
 93 4 93 4 74.5 10.5 c 128,-1,31
 56 17 56 17 47 22 c 1,32,-1
 58 75 l 1,33,34
 111 49 111 49 168.5 37.5 c 128,-1,35
 226 26 226 26 287 26 c 0,36,37
 353 26 353 26 400 45.5 c 128,-1,38
 447 65 447 65 478.5 92.5 c 128,-1,39
 510 120 510 120 527 150 c 128,-1,40
 544 180 544 180 548 202 c 0,41,42
 554 229 554 229 547 256.5 c 128,-1,43
 540 284 540 284 519.5 306.5 c 128,-1,44
 499 329 499 329 464 343 c 128,-1,45
 429 357 429 357 380 357 c 2,46,-1
 294 357 l 1,47,-1
 305 405 l 1,48,-1
 391 405 l 2,49,50
 439 405 439 405 473 417 c 128,-1,51
 507 429 507 429 529.5 448.5 c 128,-1,52
 552 468 552 468 564.5 493.5 c 128,-1,53
 577 519 577 519 583 546 c 0,54,55
 588 570 588 570 584.5 594 c 128,-1,56
 581 618 581 618 566 636.5 c 128,-1,57
 551 655 551 655 524 667 c 128,-1,58
 497 679 497 679 455 679 c 0,0,1
EndSplineSet
EndChar

StartChar: four
Encoding: 52 52 20
Width: 676
Flags: W
LayerCount: 2
Fore
SplineSet
476 244 m 1,0,-1
 568 674 l 1,1,2
 408 522 408 522 299.5 416.5 c 128,-1,3
 191 311 191 311 121 244 c 1,4,-1
 476 244 l 1,0,-1
79 201 m 1,5,-1
 92 263 l 1,6,7
 217 380 217 380 338 495 c 128,-1,8
 459 610 459 610 584 727 c 1,9,-1
 644 727 l 1,10,-1
 541 244 l 1,11,-1
 706 244 l 1,12,-1
 697 201 l 1,13,-1
 532 201 l 1,14,-1
 490 0 l 1,15,-1
 425 0 l 1,16,-1
 467 201 l 1,17,-1
 79 201 l 1,5,-1
EndSplineSet
EndChar

StartChar: five
Encoding: 53 53 21
Width: 620
Flags: W
LayerCount: 2
Fore
SplineSet
730 715 m 1,0,1
 726 703 726 703 722.5 694.5 c 128,-1,2
 719 686 719 686 715 676 c 1,3,-1
 309 676 l 1,4,-1
 231 446 l 1,5,6
 260 457 260 457 305.5 470 c 128,-1,7
 351 483 351 483 403 483 c 0,8,9
 466 483 466 483 516 470 c 128,-1,10
 566 457 566 457 598 428.5 c 128,-1,11
 630 400 630 400 641.5 356 c 128,-1,12
 653 312 653 312 640 250 c 0,13,14
 627 189 627 189 595.5 142.5 c 128,-1,15
 564 96 564 96 519 64.5 c 128,-1,16
 474 33 474 33 418 16.5 c 128,-1,17
 362 0 362 0 301 0 c 0,18,19
 245 0 245 0 203 6 c 128,-1,20
 161 12 161 12 131 20.5 c 128,-1,21
 101 29 101 29 82 38 c 128,-1,22
 63 47 63 47 55 53 c 1,23,-1
 67 111 l 1,24,25
 121 82 121 82 182 61.5 c 128,-1,26
 243 41 243 41 309 41 c 0,27,28
 367 41 367 41 412.5 61 c 128,-1,29
 458 81 458 81 490 112 c 128,-1,30
 522 143 522 143 541.5 180 c 128,-1,31
 561 217 561 217 568 250 c 0,32,33
 575 286 575 286 571 320.5 c 128,-1,34
 567 355 567 355 547 382 c 128,-1,35
 527 409 527 409 489.5 425.5 c 128,-1,36
 452 442 452 442 394 442 c 0,37,38
 368 442 368 442 338.5 437 c 128,-1,39
 309 432 309 432 282.5 425.5 c 128,-1,40
 256 419 256 419 233.5 411.5 c 128,-1,41
 211 404 211 404 199 400 c 1,42,-1
 151 432 l 1,43,44
 170 484 170 484 185 523 c 128,-1,45
 200 562 200 562 211 591 c 128,-1,46
 222 620 222 620 230 640.5 c 128,-1,47
 238 661 238 661 244 677 c 0,48,49
 247 685 247 685 251 695.5 c 128,-1,50
 255 706 255 706 258 715 c 1,51,-1
 730 715 l 1,0,1
EndSplineSet
EndChar

StartChar: six
Encoding: 54 54 22
Width: 602
Flags: W
LayerCount: 2
Fore
SplineSet
179 219 m 1,0,1
 172 188 172 188 177 154.5 c 128,-1,2
 182 121 182 121 199.5 93.5 c 128,-1,3
 217 66 217 66 246.5 48 c 128,-1,4
 276 30 276 30 319 30 c 0,5,6
 380 30 380 30 427.5 57 c 128,-1,7
 475 84 475 84 506.5 125 c 128,-1,8
 538 166 538 166 550.5 213.5 c 128,-1,9
 563 261 563 261 554 302 c 128,-1,10
 545 343 545 343 513.5 370 c 128,-1,11
 482 397 482 397 425 397 c 0,12,13
 387 397 387 397 351.5 382 c 128,-1,14
 316 367 316 367 284 342 c 128,-1,15
 252 317 252 317 225 285 c 128,-1,16
 198 253 198 253 179 219 c 1,0,1
690 601 m 1,17,18
 675 612 675 612 653 625 c 128,-1,19
 631 638 631 638 604.5 649.5 c 128,-1,20
 578 661 578 661 546 669 c 128,-1,21
 514 677 514 677 479 677 c 0,22,23
 427 677 427 677 386.5 657.5 c 128,-1,24
 346 638 346 638 315 606.5 c 128,-1,25
 284 575 284 575 261 533.5 c 128,-1,26
 238 492 238 492 222 448.5 c 128,-1,27
 206 405 206 405 196 362.5 c 128,-1,28
 186 320 186 320 180 285 c 1,29,30
 190 303 190 303 213.5 330.5 c 128,-1,31
 237 358 237 358 270.5 383.5 c 128,-1,32
 304 409 304 409 346 427 c 128,-1,33
 388 445 388 445 435 445 c 0,34,35
 515 445 515 445 561.5 411.5 c 128,-1,36
 608 378 608 378 623.5 327 c 128,-1,37
 639 276 639 276 625.5 217.5 c 128,-1,38
 612 159 612 159 571.5 108 c 128,-1,39
 531 57 531 57 465 23.5 c 128,-1,40
 399 -10 399 -10 311 -10 c 0,41,42
 251 -10 251 -10 206.5 7.5 c 128,-1,43
 162 25 162 25 137 67 c 128,-1,44
 112 109 112 109 108.5 179.5 c 128,-1,45
 105 250 105 250 127 356 c 0,46,47
 149 459 149 459 186.5 530 c 128,-1,48
 224 601 224 601 272 644.5 c 128,-1,49
 320 688 320 688 375.5 707.5 c 128,-1,50
 431 727 431 727 490 727 c 0,51,52
 526 727 526 727 555 721 c 128,-1,53
 584 715 584 715 610 705.5 c 128,-1,54
 636 696 636 696 659.5 684 c 128,-1,55
 683 672 683 672 707 659 c 1,56,-1
 690 601 l 1,17,18
EndSplineSet
EndChar

StartChar: seven
Encoding: 55 55 23
Width: 613
Flags: W
LayerCount: 2
Fore
SplineSet
222 709 m 1,0,-1
 726 709 l 1,1,2
 721 684 721 684 713 667 c 128,-1,3
 705 650 705 650 695 637 c 128,-1,4
 685 624 685 624 673.5 612.5 c 128,-1,5
 662 601 662 601 649 587 c 1,6,7
 650 587 650 587 634.5 571.5 c 128,-1,8
 619 556 619 556 591.5 529 c 128,-1,9
 564 502 564 502 527.5 465.5 c 128,-1,10
 491 429 491 429 449 388 c 1,11,12
 411 346 411 346 388 303 c 128,-1,13
 365 260 365 260 354 209 c 2,14,-1
 310 0 l 1,15,-1
 242 0 l 1,16,-1
 286 209 l 2,17,18
 301 280 301 280 332.5 327 c 128,-1,19
 364 374 364 374 397 409 c 1,20,21
 468 480 468 480 532 544 c 128,-1,22
 596 608 596 608 661 672 c 1,23,-1
 198 672 l 1,24,-1
 222 709 l 1,0,-1
EndSplineSet
EndChar

StartChar: eight
Encoding: 56 56 24
Width: 613
Flags: W
LayerCount: 2
Fore
SplineSet
443 445 m 1,0,1
 448 446 448 446 471 455.5 c 128,-1,2
 494 465 494 465 521 482 c 128,-1,3
 548 499 548 499 571.5 523 c 128,-1,4
 595 547 595 547 601 576 c 0,5,6
 608 610 608 610 597 630.5 c 128,-1,7
 586 651 586 651 564.5 662 c 128,-1,8
 543 673 543 673 514.5 676.5 c 128,-1,9
 486 680 486 680 459 680 c 0,10,11
 434 680 434 680 404 674.5 c 128,-1,12
 374 669 374 669 346.5 656.5 c 128,-1,13
 319 644 319 644 299 624 c 128,-1,14
 279 604 279 604 273 576 c 0,15,16
 267 549 267 549 286 527.5 c 128,-1,17
 305 506 305 506 333.5 489.5 c 128,-1,18
 362 473 362 473 393 462 c 128,-1,19
 424 451 424 451 443 445 c 1,0,1
365 402 m 1,20,21
 285 379 285 379 229.5 326 c 128,-1,22
 174 273 174 273 157 195 c 0,23,24
 147 150 147 150 158.5 118.5 c 128,-1,25
 170 87 170 87 195 67.5 c 128,-1,26
 220 48 220 48 253.5 39 c 128,-1,27
 287 30 287 30 322 30 c 0,28,29
 362 30 362 30 401.5 41.5 c 128,-1,30
 441 53 441 53 473 74 c 128,-1,31
 505 95 505 95 528 125.5 c 128,-1,32
 551 156 551 156 559 195 c 0,33,34
 569 243 569 243 555.5 280 c 128,-1,35
 542 317 542 317 513.5 343 c 128,-1,36
 485 369 485 369 445.5 384 c 128,-1,37
 406 399 406 399 365 402 c 1,20,21
312 416 m 1,38,39
 296 423 296 423 274.5 436 c 128,-1,40
 253 449 253 449 234 468 c 128,-1,41
 215 487 215 487 204 512 c 128,-1,42
 193 537 193 537 199 567 c 0,43,44
 215 643 215 643 285 684.5 c 128,-1,45
 355 726 355 726 470 726 c 0,46,47
 530 726 530 726 571 713.5 c 128,-1,48
 612 701 612 701 636 679 c 128,-1,49
 660 657 660 657 668 628.5 c 128,-1,50
 676 600 676 600 669 567 c 0,51,52
 658 516 658 516 613 479 c 128,-1,53
 568 442 568 442 496 418 c 1,54,55
 529 401 529 401 557.5 380 c 128,-1,56
 586 359 586 359 604.5 332 c 128,-1,57
 623 305 623 305 631 271 c 128,-1,58
 639 237 639 237 630 195 c 0,59,60
 619 142 619 142 589.5 102.5 c 128,-1,61
 560 63 560 63 518 36.5 c 128,-1,62
 476 10 476 10 422.5 -3.5 c 128,-1,63
 369 -17 369 -17 311 -17 c 0,64,65
 256 -17 256 -17 209.5 -6.5 c 128,-1,66
 163 4 163 4 132.5 28.5 c 128,-1,67
 102 53 102 53 89.5 93.5 c 128,-1,68
 77 134 77 134 90 195 c 0,69,70
 100 242 100 242 128 279 c 128,-1,71
 156 316 156 316 189.5 344 c 128,-1,72
 223 372 223 372 256.5 390 c 128,-1,73
 290 408 290 408 312 416 c 1,38,39
EndSplineSet
EndChar

StartChar: colon
Encoding: 58 58 25
Width: 281
Flags: W
LayerCount: 2
Fore
SplineSet
123 83 m 1,0,-1
 208 83 l 1,1,-1
 190 -1 l 1,2,-1
 105 -1 l 1,3,-1
 123 83 l 1,0,-1
198 433 m 1,4,-1
 215 517 l 1,5,-1
 300 517 l 1,6,-1
 283 433 l 1,7,-1
 198 433 l 1,4,-1
EndSplineSet
EndChar

StartChar: semicolon
Encoding: 59 59 26
Width: 287
Flags: W
LayerCount: 2
Fore
SplineSet
106 0 m 1,0,-1
 123 84 l 1,1,-1
 210 84 l 1,2,3
 208 55 208 55 205 30 c 128,-1,4
 202 5 202 5 197 -15 c 0,5,6
 188 -60 188 -60 172 -91.5 c 128,-1,7
 156 -123 156 -123 136.5 -143.5 c 128,-1,8
 117 -164 117 -164 95 -174 c 128,-1,9
 73 -184 73 -184 52 -187 c 1,10,-1
 59 -152 l 1,11,12
 88 -149 88 -149 106 -134.5 c 128,-1,13
 124 -120 124 -120 135.5 -99 c 128,-1,14
 147 -78 147 -78 153.5 -52 c 128,-1,15
 160 -26 160 -26 166 0 c 1,16,-1
 106 0 l 1,0,-1
198 433 m 1,17,-1
 215 517 l 1,18,-1
 300 517 l 1,19,-1
 283 433 l 1,20,-1
 198 433 l 1,17,-1
EndSplineSet
EndChar

StartChar: less
Encoding: 60 60 27
Width: 621
Flags: W
LayerCount: 2
Fore
SplineSet
590 458 m 1,0,-1
 101 253 l 1,1,-1
 599 49 l 1,2,-1
 599 -2 l 1,3,4
 530 26 530 26 463 56 c 128,-1,5
 396 86 396 86 329 116.5 c 128,-1,6
 262 147 262 147 195 177 c 128,-1,7
 128 207 128 207 59 235 c 1,8,-1
 59 274 l 1,9,10
 190 328 190 328 324.5 392.5 c 128,-1,11
 459 457 459 457 590 511 c 1,12,-1
 590 458 l 1,0,-1
EndSplineSet
EndChar

StartChar: equal
Encoding: 61 61 28
Width: 598
Flags: W
LayerCount: 2
Fore
SplineSet
560 169 m 1,0,-1
 560 128 l 1,1,-1
 59 128 l 1,2,-1
 59 169 l 1,3,-1
 560 169 l 1,0,-1
560 378 m 1,4,-1
 560 335 l 1,5,-1
 59 335 l 1,6,-1
 59 378 l 1,7,-1
 560 378 l 1,4,-1
EndSplineSet
EndChar

StartChar: greater
Encoding: 62 62 29
Width: 618
Flags: W
LayerCount: 2
Fore
SplineSet
57 511 m 1,0,1
 188 457 188 457 322.5 392.5 c 128,-1,2
 457 328 457 328 588 274 c 1,3,-1
 588 235 l 1,4,5
 519 207 519 207 452 177 c 128,-1,6
 385 147 385 147 318 116.5 c 128,-1,7
 251 86 251 86 184 56 c 128,-1,8
 117 26 117 26 48 -2 c 1,9,-1
 48 49 l 1,10,-1
 546 253 l 1,11,-1
 57 458 l 1,12,-1
 57 511 l 1,0,1
EndSplineSet
EndChar

StartChar: question
Encoding: 63 63 30
Width: 581
Flags: W
LayerCount: 2
Fore
SplineSet
283 223 m 1,0,1
 293 263 293 263 312 294.5 c 128,-1,2
 331 326 331 326 352.5 350 c 128,-1,3
 374 374 374 374 397 391.5 c 128,-1,4
 420 409 420 409 440 423 c 0,5,6
 462 438 462 438 482 452.5 c 128,-1,7
 502 467 502 467 518 484 c 128,-1,8
 534 501 534 501 546.5 523 c 128,-1,9
 559 545 559 545 566 575 c 0,10,11
 577 630 577 630 543 665 c 128,-1,12
 509 700 509 700 416 700 c 0,13,14
 384 700 384 700 354.5 695 c 128,-1,15
 325 690 325 690 298.5 682.5 c 128,-1,16
 272 675 272 675 249.5 666 c 128,-1,17
 227 657 227 657 211 650 c 1,18,-1
 225 719 l 1,19,20
 246 727 246 727 271.5 733 c 128,-1,21
 297 739 297 739 323 743 c 128,-1,22
 349 747 349 747 376 749 c 128,-1,23
 403 751 403 751 427 751 c 0,24,25
 479 751 479 751 522 741 c 128,-1,26
 565 731 565 731 593.5 710 c 128,-1,27
 622 689 622 689 634 655.5 c 128,-1,28
 646 622 646 622 636 575 c 0,29,30
 629 543 629 543 613.5 517.5 c 128,-1,31
 598 492 598 492 577.5 471 c 128,-1,32
 557 450 557 450 533.5 432.5 c 128,-1,33
 510 415 510 415 485 399 c 0,34,35
 435 366 435 366 390 324 c 128,-1,36
 345 282 345 282 323 223 c 1,37,-1
 283 223 l 1,0,1
236 83 m 1,38,-1
 320 83 l 1,39,-1
 302 -1 l 1,40,-1
 218 -1 l 1,41,-1
 236 83 l 1,38,-1
EndSplineSet
EndChar

StartChar: at
Encoding: 64 64 31
Width: 817
Flags: W
LayerCount: 2
Fore
SplineSet
506 399 m 1,0,1
 503 403 503 403 493 415 c 128,-1,2
 483 427 483 427 469 440 c 128,-1,3
 455 453 455 453 439.5 462.5 c 128,-1,4
 424 472 424 472 409 472 c 0,5,6
 344 472 344 472 344 358 c 0,7,8
 344 315 344 315 362.5 294.5 c 128,-1,9
 381 274 381 274 413 274 c 0,10,11
 426 274 426 274 440 281 c 128,-1,12
 454 288 454 288 466 298.5 c 128,-1,13
 478 309 478 309 486.5 322 c 128,-1,14
 495 335 495 335 497 347 c 2,15,-1
 506 399 l 1,0,1
806 441 m 0,16,17
 806 401 806 401 796.5 360 c 128,-1,18
 787 319 787 319 765 285.5 c 128,-1,19
 743 252 743 252 705.5 231 c 128,-1,20
 668 210 668 210 613 210 c 0,21,22
 586 210 586 210 565.5 217 c 128,-1,23
 545 224 545 224 531 234.5 c 128,-1,24
 517 245 517 245 507.5 257 c 128,-1,25
 498 269 498 269 494 279 c 1,26,27
 484 261 484 261 471 250 c 128,-1,28
 458 239 458 239 444.5 233 c 128,-1,29
 431 227 431 227 418 225 c 128,-1,30
 405 223 405 223 394 223 c 0,31,32
 371 223 371 223 350 229.5 c 128,-1,33
 329 236 329 236 313 252 c 128,-1,34
 297 268 297 268 287.5 295.5 c 128,-1,35
 278 323 278 323 278 365 c 0,36,37
 278 396 278 396 285 425.5 c 128,-1,38
 292 455 292 455 307 477 c 128,-1,39
 322 499 322 499 344.5 512.5 c 128,-1,40
 367 526 367 526 398 526 c 0,41,42
 408 526 408 526 422 522 c 128,-1,43
 436 518 436 518 451.5 510 c 128,-1,44
 467 502 467 502 483 488.5 c 128,-1,45
 499 475 499 475 513 456 c 1,46,47
 516 476 516 476 520.5 490 c 128,-1,48
 525 504 525 504 529 518 c 0,49,50
 530 518 530 518 530.5 517.5 c 128,-1,51
 531 517 531 517 535.5 515.5 c 128,-1,52
 540 514 540 514 549.5 510.5 c 128,-1,53
 559 507 559 507 579 500 c 1,54,55
 573 456 573 456 565.5 405.5 c 128,-1,56
 558 355 558 355 558 313 c 0,57,58
 558 252 558 252 619 252 c 0,59,60
 647 252 647 252 668 267.5 c 128,-1,61
 689 283 689 283 703 310 c 128,-1,62
 717 337 717 337 723.5 373 c 128,-1,63
 730 409 730 409 730 449 c 0,64,65
 730 513 730 513 704 561 c 128,-1,66
 678 609 678 609 636 640.5 c 128,-1,67
 594 672 594 672 540.5 688 c 128,-1,68
 487 704 487 704 432 704 c 0,69,70
 420 704 420 704 393 702.5 c 128,-1,71
 366 701 366 701 332 691.5 c 128,-1,72
 298 682 298 682 262 661.5 c 128,-1,73
 226 641 226 641 196 603.5 c 128,-1,74
 166 566 166 566 147 508.5 c 128,-1,75
 128 451 128 451 128 367 c 0,76,77
 128 279 128 279 148 220 c 128,-1,78
 168 161 168 161 200 123.5 c 128,-1,79
 232 86 232 86 271 66.5 c 128,-1,80
 310 47 310 47 348.5 38.5 c 128,-1,81
 387 30 387 30 420 29 c 128,-1,82
 453 28 453 28 473 28 c 0,83,84
 512 28 512 28 553.5 35.5 c 128,-1,85
 595 43 595 43 636 56 c 128,-1,86
 677 69 677 69 715.5 86 c 128,-1,87
 754 103 754 103 789 123 c 1,88,-1
 789 38 l 1,89,90
 701 6 701 6 612.5 -6 c 128,-1,91
 524 -18 524 -18 436 -18 c 0,92,93
 337 -18 337 -18 263 10 c 128,-1,94
 189 38 189 38 141 89 c 128,-1,95
 93 140 93 140 70 210.5 c 128,-1,96
 47 281 47 281 49 366 c 1,97,98
 49 455 49 455 78 526.5 c 128,-1,99
 107 598 107 598 158.5 648 c 128,-1,100
 210 698 210 698 280.5 725 c 128,-1,101
 351 752 351 752 435 752 c 0,102,103
 512 752 512 752 579.5 733 c 128,-1,104
 647 714 647 714 697.5 675 c 128,-1,105
 748 636 748 636 777 577.5 c 128,-1,106
 806 519 806 519 806 441 c 0,16,17
EndSplineSet
EndChar

StartChar: A
Encoding: 65 65 32
Width: 640
Flags: W
LayerCount: 2
Fore
SplineSet
483 682 m 1,0,-1
 263 314 l 1,1,-1
 532 314 l 1,2,-1
 483 682 l 1,0,-1
444 715 m 1,3,-1
 535 715 l 1,4,-1
 635 0 l 1,5,-1
 569 0 l 1,6,-1
 536 272 l 1,7,-1
 244 272 l 1,8,-1
 76 0 l 1,9,-1
 11 0 l 1,10,-1
 444 715 l 1,3,-1
EndSplineSet
EndChar

StartChar: B
Encoding: 66 66 33
Width: 685
Flags: W
LayerCount: 2
Fore
SplineSet
165 33 m 1,0,-1
 313 26 l 1,1,2
 393 24 393 24 447 36 c 128,-1,3
 501 48 501 48 535.5 71.5 c 128,-1,4
 570 95 570 95 588.5 128.5 c 128,-1,5
 607 162 607 162 616 203 c 0,6,7
 624 242 624 242 615 272.5 c 128,-1,8
 606 303 606 303 583 324 c 128,-1,9
 560 345 560 345 523.5 356 c 128,-1,10
 487 367 487 367 440 367 c 2,11,-1
 236 367 l 1,12,-1
 165 33 l 1,0,-1
404 412 m 2,13,14
 506 412 506 412 557.5 441.5 c 128,-1,15
 609 471 609 471 623 539 c 0,16,17
 636 600 636 600 601 635.5 c 128,-1,18
 566 671 566 671 466 671 c 2,19,-1
 300 671 l 1,20,-1
 245 412 l 1,21,-1
 404 412 l 2,13,14
474 714 m 2,22,23
 548 714 548 714 595.5 700.5 c 128,-1,24
 643 687 643 687 668 663 c 128,-1,25
 693 639 693 639 699.5 607 c 128,-1,26
 706 575 706 575 698 539 c 0,27,28
 691 506 691 506 675 481.5 c 128,-1,29
 659 457 659 457 635.5 439 c 128,-1,30
 612 421 612 421 583 410 c 128,-1,31
 554 399 554 399 522 395 c 1,32,33
 564 388 564 388 600 373 c 128,-1,34
 636 358 636 358 659.5 333.5 c 128,-1,35
 683 309 683 309 693 275 c 128,-1,36
 703 241 703 241 693 195 c 0,37,38
 684 155 684 155 663.5 116.5 c 128,-1,39
 643 78 643 78 605 48.5 c 128,-1,40
 567 19 567 19 506.5 2 c 128,-1,41
 446 -15 446 -15 359 -13 c 0,42,43
 291 -12 291 -12 245 -10 c 128,-1,44
 199 -8 199 -8 168 -6.5 c 128,-1,45
 137 -5 137 -5 120 -3.5 c 128,-1,46
 103 -2 103 -2 94 -1 c 1,47,48
 133 182 133 182 169 356.5 c 128,-1,49
 205 531 205 531 244 714 c 1,50,-1
 474 714 l 2,22,23
EndSplineSet
EndChar

StartChar: C
Encoding: 67 67 34
Width: 680
Flags: W
LayerCount: 2
Fore
SplineSet
581 731 m 0,0,1
 632 731 632 731 678.5 721 c 128,-1,2
 725 711 725 711 766 698 c 1,3,-1
 753 637 l 1,4,5
 711 659 711 659 667.5 674 c 128,-1,6
 624 689 624 689 572 689 c 0,7,8
 568 689 568 689 546 687 c 128,-1,9
 524 685 524 685 491 675.5 c 128,-1,10
 458 666 458 666 418.5 645 c 128,-1,11
 379 624 379 624 341 587 c 128,-1,12
 303 550 303 550 269.5 493.5 c 128,-1,13
 236 437 236 437 216 355 c 1,14,15
 199 272 199 272 207 216 c 128,-1,16
 215 160 215 160 236.5 124 c 128,-1,17
 258 88 258 88 289 68.5 c 128,-1,18
 320 49 320 49 349.5 40.5 c 128,-1,19
 379 32 379 32 402 31 c 128,-1,20
 425 30 425 30 432 30 c 0,21,22
 493 30 493 30 546.5 53 c 128,-1,23
 600 76 600 76 647 108 c 1,24,-1
 633 39 l 1,25,26
 619 31 619 31 598 20.5 c 128,-1,27
 577 10 577 10 550 1 c 128,-1,28
 523 -8 523 -8 490 -14.5 c 128,-1,29
 457 -21 457 -21 421 -21 c 0,30,31
 332 -21 332 -21 270.5 8.5 c 128,-1,32
 209 38 209 38 173.5 89 c 128,-1,33
 138 140 138 140 128.5 208.5 c 128,-1,34
 119 277 119 277 134 354 c 0,35,36
 153 446 153 446 197 516.5 c 128,-1,37
 241 587 241 587 301 634.5 c 128,-1,38
 361 682 361 682 433 706.5 c 128,-1,39
 505 731 505 731 581 731 c 0,0,1
EndSplineSet
EndChar

StartChar: D
Encoding: 68 68 35
Width: 682
Flags: W
LayerCount: 2
Fore
SplineSet
174 83 m 2,0,1
 171 69 171 69 170 61 c 128,-1,2
 169 53 169 53 170.5 49 c 128,-1,3
 172 45 172 45 177 44.5 c 128,-1,4
 182 44 182 44 191 44 c 2,5,-1
 282 44 l 2,6,7
 326 44 326 44 379.5 59 c 128,-1,8
 433 74 433 74 483.5 110 c 128,-1,9
 534 146 534 146 575 205.5 c 128,-1,10
 616 265 616 265 635 355 c 0,11,12
 653 441 653 441 637.5 501.5 c 128,-1,13
 622 562 622 562 587.5 600 c 128,-1,14
 553 638 553 638 506.5 655.5 c 128,-1,15
 460 673 460 673 416 673 c 0,16,17
 348 673 348 673 323.5 671.5 c 128,-1,18
 299 670 299 670 298 665 c 2,19,-1
 174 83 l 2,0,1
424 716 m 2,20,21
 524 716 524 716 586 680 c 128,-1,22
 648 644 648 644 680.5 589.5 c 128,-1,23
 713 535 713 535 719.5 472 c 128,-1,24
 726 409 726 409 715 355 c 0,25,26
 703 301 703 301 673 238.5 c 128,-1,27
 643 176 643 176 590.5 123.5 c 128,-1,28
 538 71 538 71 459.5 36 c 128,-1,29
 381 1 381 1 273 1 c 2,30,-1
 92 1 l 1,31,-1
 244 716 l 1,32,-1
 424 716 l 2,20,21
EndSplineSet
EndChar

StartChar: E
Encoding: 69 69 36
Width: 568
Flags: W
LayerCount: 2
Fore
SplineSet
245 714 m 1,0,-1
 660 714 l 1,1,-1
 651 672 l 1,2,-1
 299 672 l 1,3,-1
 238 385 l 1,4,-1
 499 385 l 1,5,-1
 490 342 l 1,6,-1
 229 342 l 1,7,-1
 166 43 l 1,8,-1
 542 43 l 1,9,-1
 533 0 l 1,10,-1
 94 0 l 1,11,-1
 245 714 l 1,0,-1
EndSplineSet
EndChar

StartChar: F
Encoding: 70 70 37
Width: 579
Flags: W
LayerCount: 2
Fore
SplineSet
245 714 m 1,0,-1
 707 714 l 1,1,-1
 698 670 l 1,2,-1
 300 670 l 1,3,-1
 239 385 l 1,4,-1
 486 385 l 1,5,-1
 476 335 l 1,6,-1
 229 335 l 1,7,-1
 158 0 l 1,8,-1
 94 0 l 1,9,-1
 245 714 l 1,0,-1
EndSplineSet
EndChar

StartChar: H
Encoding: 72 72 38
Width: 750
Flags: W
LayerCount: 2
Fore
SplineSet
768 715 m 1,0,-1
 833 715 l 1,1,-1
 682 0 l 1,2,-1
 617 0 l 1,3,-1
 688 336 l 1,4,-1
 236 336 l 1,5,-1
 165 0 l 1,6,-1
 93 0 l 1,7,-1
 244 715 l 1,8,-1
 316 715 l 1,9,-1
 245 381 l 1,10,-1
 697 381 l 1,11,-1
 768 715 l 1,0,-1
EndSplineSet
EndChar

StartChar: I
Encoding: 73 73 39
Width: 259
Flags: W
LayerCount: 2
Fore
SplineSet
254 715 m 1,0,-1
 318 715 l 1,1,-1
 167 0 l 1,2,-1
 103 0 l 1,3,-1
 254 715 l 1,0,-1
EndSplineSet
EndChar

StartChar: J
Encoding: 74 74 40
Width: 272
Flags: W
LayerCount: 2
Fore
SplineSet
335 716 m 1,0,-1
 178 -22 l 2,1,2
 166 -76 166 -76 145.5 -109.5 c 128,-1,3
 125 -143 125 -143 101.5 -163 c 128,-1,4
 78 -183 78 -183 55.5 -192 c 128,-1,5
 33 -201 33 -201 17 -204 c 1,6,-1
 25 -167 l 1,7,8
 64 -135 64 -135 85 -102.5 c 128,-1,9
 106 -70 106 -70 116 -22 c 2,10,-1
 273 716 l 1,11,-1
 335 716 l 1,0,-1
EndSplineSet
EndChar

StartChar: K
Encoding: 75 75 41
Width: 626
Flags: W
LayerCount: 2
Fore
SplineSet
653 715 m 1,0,-1
 721 715 l 1,1,-1
 427 436 l 1,2,-1
 624 0 l 1,3,-1
 546 0 l 1,4,-1
 373 384 l 1,5,-1
 199 230 l 1,6,-1
 151 0 l 1,7,-1
 87 0 l 1,8,-1
 238 715 l 1,9,-1
 302 715 l 1,10,-1
 216 307 l 1,11,-1
 653 715 l 1,0,-1
EndSplineSet
EndChar

StartChar: L
Encoding: 76 76 42
Width: 535
Flags: W
LayerCount: 2
Fore
SplineSet
540 45 m 1,0,-1
 531 0 l 1,1,-1
 94 0 l 1,2,-1
 245 715 l 1,3,-1
 311 715 l 1,4,-1
 175 71 l 2,5,6
 170 51 170 51 172 48 c 128,-1,7
 174 45 174 45 191 45 c 2,8,-1
 540 45 l 1,0,-1
EndSplineSet
EndChar

StartChar: M
Encoding: 77 77 43
Width: 920
Flags: W
LayerCount: 2
Fore
SplineSet
461 84 m 1,0,-1
 301 674 l 1,1,2
 267 515 267 515 229 344 c 128,-1,3
 191 173 191 173 155 0 c 1,4,-1
 92 0 l 1,5,-1
 243 715 l 1,6,-1
 365 715 l 1,7,-1
 494 179 l 2,8,9
 497 164 497 164 503 159 c 128,-1,10
 509 154 509 154 516 155.5 c 128,-1,11
 523 157 523 157 530 163.5 c 128,-1,12
 537 170 537 170 543 179 c 0,13,14
 619 296 619 296 673.5 379 c 128,-1,15
 728 462 728 462 765.5 519 c 128,-1,16
 803 576 803 576 826 611 c 128,-1,17
 849 646 849 646 863 666.5 c 128,-1,18
 877 687 877 687 883.5 697 c 128,-1,19
 890 707 890 707 894 715 c 1,20,-1
 1007 715 l 1,21,-1
 856 0 l 1,22,-1
 792 0 l 1,23,-1
 934 675 l 1,24,25
 836 531 836 531 733.5 378.5 c 128,-1,26
 631 226 631 226 535 84 c 1,27,-1
 461 84 l 1,0,-1
EndSplineSet
EndChar

StartChar: N
Encoding: 78 78 44
Width: 711
Flags: W
LayerCount: 2
Fore
SplineSet
242 714 m 1,0,-1
 337 714 l 1,1,-1
 599 76 l 1,2,-1
 734 714 l 1,3,-1
 800 714 l 1,4,-1
 649 0 l 1,5,-1
 574 0 l 1,6,-1
 298 673 l 1,7,-1
 155 0 l 1,8,-1
 91 0 l 1,9,-1
 242 714 l 1,0,-1
EndSplineSet
EndChar

StartChar: O
Encoding: 79 79 45
Width: 824
Flags: W
LayerCount: 2
Fore
SplineSet
200 357 m 0,0,1
 182 271 182 271 188.5 213 c 128,-1,2
 195 155 195 155 216.5 118.5 c 128,-1,3
 238 82 238 82 269.5 62.5 c 128,-1,4
 301 43 301 43 332 35 c 128,-1,5
 363 27 363 27 390 26 c 128,-1,6
 417 25 417 25 429 25 c 0,7,8
 439 25 439 25 466 26.5 c 128,-1,9
 493 28 493 28 529 37.5 c 128,-1,10
 565 47 565 47 606.5 67 c 128,-1,11
 648 87 648 87 687 124 c 128,-1,12
 726 161 726 161 758 217.5 c 128,-1,13
 790 274 790 274 807 357 c 0,14,15
 825 441 825 441 817 498 c 128,-1,16
 809 555 809 555 786 592 c 128,-1,17
 763 629 763 629 730 648 c 128,-1,18
 697 667 697 667 664.5 676 c 128,-1,19
 632 685 632 685 605.5 686 c 128,-1,20
 579 687 579 687 569 687 c 0,21,22
 557 687 557 687 530 685.5 c 128,-1,23
 503 684 503 684 467.5 674.5 c 128,-1,24
 432 665 432 665 392.5 645 c 128,-1,25
 353 625 353 625 316 588 c 128,-1,26
 279 551 279 551 248.5 495 c 128,-1,27
 218 439 218 439 200 357 c 0,0,1
579 731 m 1,28,29
 774 728 774 728 843.5 634 c 128,-1,30
 913 540 913 540 874 356 c 0,31,32
 857 276 857 276 822 207.5 c 128,-1,33
 787 139 787 139 731.5 88.5 c 128,-1,34
 676 38 676 38 598 9 c 128,-1,35
 520 -20 520 -20 419 -20 c 0,36,37
 316 -20 316 -20 250.5 7 c 128,-1,38
 185 34 185 34 151 83.5 c 128,-1,39
 117 133 117 133 111 202.5 c 128,-1,40
 105 272 105 272 122 356 c 0,41,42
 161 540 161 540 280 634 c 128,-1,43
 399 728 399 728 579 731 c 1,28,29
EndSplineSet
EndChar

StartChar: P
Encoding: 80 80 46
Width: 616
Flags: W
LayerCount: 2
Fore
SplineSet
232 347 m 1,0,-1
 414 347 l 2,1,2
 467 347 467 347 505 365.5 c 128,-1,3
 543 384 543 384 568.5 409.5 c 128,-1,4
 594 435 594 435 607.5 461.5 c 128,-1,5
 621 488 621 488 625 505 c 0,6,7
 630 531 630 531 628.5 560.5 c 128,-1,8
 627 590 627 590 612 614.5 c 128,-1,9
 597 639 597 639 566.5 655 c 128,-1,10
 536 671 536 671 483 671 c 2,11,-1
 301 671 l 1,12,-1
 232 347 l 1,0,-1
492 715 m 2,13,14
 563 715 563 715 607.5 696 c 128,-1,15
 652 677 652 677 675 646.5 c 128,-1,16
 698 616 698 616 703 578.5 c 128,-1,17
 708 541 708 541 701 505 c 0,18,19
 694 471 694 471 673.5 435 c 128,-1,20
 653 399 653 399 618 369 c 128,-1,21
 583 339 583 339 529.5 320 c 128,-1,22
 476 301 476 301 404 301 c 2,23,-1
 222 301 l 1,24,-1
 158 -1 l 1,25,-1
 94 -1 l 1,26,-1
 246 714 l 1,27,-1
 492 715 l 2,13,14
EndSplineSet
EndChar

StartChar: Q
Encoding: 81 81 47
Width: 821
Flags: W
LayerCount: 2
Fore
SplineSet
200 354 m 1,0,1
 181 268 181 268 188 210 c 128,-1,2
 195 152 195 152 216 115.5 c 128,-1,3
 237 79 237 79 268.5 59.5 c 128,-1,4
 300 40 300 40 331.5 32 c 128,-1,5
 363 24 363 24 389.5 23 c 128,-1,6
 416 22 416 22 428 22 c 0,7,8
 438 22 438 22 465.5 23.5 c 128,-1,9
 493 25 493 25 529 34.5 c 128,-1,10
 565 44 565 44 606 64 c 128,-1,11
 647 84 647 84 685.5 121 c 128,-1,12
 724 158 724 158 756 214.5 c 128,-1,13
 788 271 788 271 806 354 c 0,14,15
 824 438 824 438 816 495 c 128,-1,16
 808 552 808 552 785.5 589 c 128,-1,17
 763 626 763 626 730 645 c 128,-1,18
 697 664 697 664 664 673 c 128,-1,19
 631 682 631 682 604.5 683 c 128,-1,20
 578 684 578 684 568 684 c 0,21,22
 556 684 556 684 529 682.5 c 128,-1,23
 502 681 502 681 466.5 671.5 c 128,-1,24
 431 662 431 662 392 642 c 128,-1,25
 353 622 353 622 315.5 585 c 128,-1,26
 278 548 278 548 247.5 492 c 128,-1,27
 217 436 217 436 200 354 c 1,0,1
578 728 m 1,28,29
 774 725 774 725 843.5 631 c 128,-1,30
 913 537 913 537 874 353 c 0,31,32
 857 277 857 277 824.5 211.5 c 128,-1,33
 792 146 792 146 739 96.5 c 128,-1,34
 686 47 686 47 612 15.5 c 128,-1,35
 538 -16 538 -16 441 -23 c 1,36,-1
 434 -56 l 2,37,38
 426 -93 426 -93 433.5 -118.5 c 128,-1,39
 441 -144 441 -144 457 -160.5 c 128,-1,40
 473 -177 473 -177 493 -185.5 c 128,-1,41
 513 -194 513 -194 531 -196 c 1,42,-1
 529 -207 l 1,43,44
 469 -204 469 -204 437.5 -184.5 c 128,-1,45
 406 -165 406 -165 393 -141 c 128,-1,46
 380 -117 380 -117 380 -93 c 128,-1,47
 380 -69 380 -69 383 -55 c 2,48,-1
 390 -23 l 1,49,50
 295 -16 295 -16 236 14.5 c 128,-1,51
 177 45 177 45 146.5 94.5 c 128,-1,52
 116 144 116 144 111 209.5 c 128,-1,53
 106 275 106 275 122 353 c 0,54,55
 161 537 161 537 280 631 c 128,-1,56
 399 725 399 725 578 728 c 1,28,29
EndSplineSet
EndChar

StartChar: R
Encoding: 82 82 48
Width: 662
Flags: W
LayerCount: 2
Fore
SplineSet
416 397 m 2,0,1
 466 397 466 397 501.5 410.5 c 128,-1,2
 537 424 537 424 560.5 444 c 128,-1,3
 584 464 584 464 597 488.5 c 128,-1,4
 610 513 610 513 614 535 c 0,5,6
 619 559 619 559 616 583 c 128,-1,7
 613 607 613 607 597 626.5 c 128,-1,8
 581 646 581 646 551 658.5 c 128,-1,9
 521 671 521 671 474 671 c 2,10,-1
 297 671 l 1,11,-1
 239 397 l 1,12,-1
 416 397 l 2,0,1
483 715 m 2,13,14
 544 715 544 715 586 702 c 128,-1,15
 628 689 628 689 652 666 c 128,-1,16
 676 643 676 643 684 612 c 128,-1,17
 692 581 692 581 684 544 c 0,18,19
 675 502 675 502 654 471 c 128,-1,20
 633 440 633 440 606 419 c 128,-1,21
 579 398 579 398 549 386.5 c 128,-1,22
 519 375 519 375 493 372 c 1,23,24
 517 366 517 366 532 354.5 c 128,-1,25
 547 343 547 343 556 328 c 128,-1,26
 565 313 565 313 569.5 295 c 128,-1,27
 574 277 574 277 578 257 c 2,28,-1
 627 0 l 1,29,-1
 561 0 l 1,30,31
 547 76 547 76 537 128.5 c 128,-1,32
 527 181 527 181 520.5 214.5 c 128,-1,33
 514 248 514 248 511 265 c 128,-1,34
 508 282 508 282 507 286 c 0,35,36
 499 318 499 318 481 333 c 128,-1,37
 463 348 463 348 429 348 c 2,38,-1
 228 348 l 1,39,-1
 155 0 l 1,40,-1
 92 0 l 1,41,-1
 243 715 l 1,42,-1
 483 715 l 2,13,14
EndSplineSet
EndChar

StartChar: S
Encoding: 83 83 49
Width: 588
Flags: W
LayerCount: 2
Fore
SplineSet
666 638 m 1,0,1
 635 654 635 654 607.5 664 c 128,-1,2
 580 674 580 674 554 679 c 128,-1,3
 528 684 528 684 502.5 686 c 128,-1,4
 477 688 477 688 450 688 c 0,5,6
 416 688 416 688 383.5 679 c 128,-1,7
 351 670 351 670 323.5 652 c 128,-1,8
 296 634 296 634 277 608.5 c 128,-1,9
 258 583 258 583 251 550 c 0,10,11
 245 518 245 518 250.5 495 c 128,-1,12
 256 472 256 472 272.5 455 c 128,-1,13
 289 438 289 438 315 425.5 c 128,-1,14
 341 413 341 413 376 403 c 1,15,16
 415 390 415 390 457.5 373.5 c 128,-1,17
 500 357 500 357 533 330.5 c 128,-1,18
 566 304 566 304 583.5 265.5 c 128,-1,19
 601 227 601 227 589 170 c 0,20,21
 576 111 576 111 539.5 74 c 128,-1,22
 503 37 503 37 456.5 16 c 128,-1,23
 410 -5 410 -5 362 -12.5 c 128,-1,24
 314 -20 314 -20 278 -20 c 0,25,26
 190 -20 190 -20 138 0 c 128,-1,27
 86 20 86 20 64 38 c 1,28,-1
 78 104 l 1,29,30
 94 90 94 90 116 76.5 c 128,-1,31
 138 63 138 63 164.5 52.5 c 128,-1,32
 191 42 191 42 222 35 c 128,-1,33
 253 28 253 28 288 28 c 0,34,35
 329 28 329 28 367 39 c 128,-1,36
 405 50 405 50 435 69.5 c 128,-1,37
 465 89 465 89 485.5 114.5 c 128,-1,38
 506 140 506 140 513 170 c 0,39,40
 516 187 516 187 517 209.5 c 128,-1,41
 518 232 518 232 505 256 c 128,-1,42
 492 280 492 280 459.5 302 c 128,-1,43
 427 324 427 324 366 341 c 1,44,-1
 367 341 l 1,45,46
 313 357 313 357 272.5 375.5 c 128,-1,47
 232 394 232 394 207 419 c 128,-1,48
 182 444 182 444 172.5 476 c 128,-1,49
 163 508 163 508 173 551 c 1,50,51
 180 586 180 586 203 618.5 c 128,-1,52
 226 651 226 651 263 676 c 128,-1,53
 300 701 300 701 349.5 716 c 128,-1,54
 399 731 399 731 460 731 c 0,55,56
 509 731 509 731 544 727 c 128,-1,57
 579 723 579 723 604.5 717 c 128,-1,58
 630 711 630 711 647 703.5 c 128,-1,59
 664 696 664 696 677 689 c 1,60,-1
 666 638 l 1,0,1
EndSplineSet
EndChar

StartChar: T
Encoding: 84 84 50
Width: 616
Flags: W
LayerCount: 2
Fore
SplineSet
764 673 m 1,0,-1
 497 673 l 1,1,-1
 354 0 l 1,2,-1
 287 0 l 1,3,-1
 430 673 l 1,4,-1
 155 673 l 1,5,-1
 164 716 l 1,6,-1
 773 716 l 1,7,-1
 764 673 l 1,0,-1
EndSplineSet
EndChar

StartChar: U
Encoding: 85 85 51
Width: 717
Flags: W
LayerCount: 2
Fore
SplineSet
794 715 m 1,0,-1
 708 306 l 2,1,2
 702 279 702 279 693.5 245 c 128,-1,3
 685 211 685 211 670 175.5 c 128,-1,4
 655 140 655 140 632 106 c 128,-1,5
 609 72 609 72 573 45.5 c 128,-1,6
 537 19 537 19 486 3 c 128,-1,7
 435 -13 435 -13 366 -13 c 0,8,9
 296 -13 296 -13 251 3 c 128,-1,10
 206 19 206 19 180.5 46 c 128,-1,11
 155 73 155 73 145.5 107.5 c 128,-1,12
 136 142 136 142 135.5 178 c 128,-1,13
 135 214 135 214 141 249.5 c 128,-1,14
 147 285 147 285 153 314 c 2,15,-1
 238 715 l 1,16,-1
 303 715 l 1,17,-1
 217 306 l 2,18,19
 213 290 213 290 208.5 264 c 128,-1,20
 204 238 204 238 203.5 207.5 c 128,-1,21
 203 177 203 177 210 146 c 128,-1,22
 217 115 217 115 236 90.5 c 128,-1,23
 255 66 255 66 288.5 50 c 128,-1,24
 322 34 322 34 376 34 c 0,25,26
 429 34 429 34 468 49.5 c 128,-1,27
 507 65 507 65 536 90 c 128,-1,28
 565 115 565 115 584 145.5 c 128,-1,29
 603 176 603 176 615.5 206.5 c 128,-1,30
 628 237 628 237 634.5 263.5 c 128,-1,31
 641 290 641 290 645 306 c 2,32,-1
 731 715 l 1,33,-1
 794 715 l 1,0,-1
EndSplineSet
EndChar

StartChar: V
Encoding: 86 86 52
Width: 683
Flags: W
LayerCount: 2
Fore
SplineSet
379 0 m 1,0,-1
 282 0 l 1,1,-1
 172 715 l 1,2,-1
 242 715 l 1,3,-1
 340 46 l 1,4,-1
 722 715 l 1,5,-1
 801 715 l 1,6,-1
 379 0 l 1,0,-1
EndSplineSet
EndChar

StartChar: W
Encoding: 87 87 53
Width: 1060
Flags: W
LayerCount: 2
Fore
SplineSet
243 715 m 1,0,-1
 344 49 l 1,1,-1
 657 715 l 1,2,-1
 739 715 l 1,3,-1
 765 47 l 1,4,-1
 1144 715 l 1,5,-1
 1220 715 l 1,6,-1
 809 0 l 1,7,-1
 712 0 l 1,8,-1
 691 679 l 1,9,-1
 380 0 l 1,10,-1
 283 0 l 1,11,-1
 169 715 l 1,12,-1
 243 715 l 1,0,-1
EndSplineSet
EndChar

StartChar: X
Encoding: 88 88 54
Width: 683
Flags: W
LayerCount: 2
Fore
SplineSet
395 368 m 1,0,-1
 199 715 l 1,1,-1
 277 715 l 1,2,-1
 438 417 l 1,3,-1
 727 715 l 1,4,-1
 805 715 l 1,5,-1
 469 368 l 1,6,-1
 668 -1 l 1,7,-1
 599 -1 l 1,8,-1
 418 320 l 1,9,-1
 101 -1 l 1,10,-1
 31 -1 l 1,11,-1
 395 368 l 1,0,-1
EndSplineSet
EndChar

StartChar: Y
Encoding: 89 89 55
Width: 690
Flags: W
LayerCount: 2
Fore
SplineSet
180 715 m 1,0,-1
 253 715 l 1,1,-1
 419 319 l 1,2,-1
 756 715 l 1,3,-1
 830 715 l 1,4,-1
 446 268 l 1,5,-1
 389 -1 l 1,6,-1
 317 -1 l 1,7,-1
 374 268 l 1,8,-1
 180 715 l 1,0,-1
EndSplineSet
EndChar

StartChar: Z
Encoding: 90 90 56
Width: 655
Flags: W
LayerCount: 2
Fore
SplineSet
651 50 m 1,0,-1
 641 0 l 1,1,-1
 34 0 l 1,2,-1
 48 67 l 1,3,-1
 724 672 l 1,4,-1
 176 672 l 1,5,-1
 185 715 l 1,6,-1
 792 715 l 1,7,-1
 778 649 l 1,8,-1
 112 50 l 1,9,-1
 651 50 l 1,0,-1
EndSplineSet
EndChar

StartChar: bracketleft
Encoding: 91 91 57
Width: 324
Flags: W
LayerCount: 2
Fore
SplineSet
472 705 m 1,0,-1
 314 705 l 1,1,-1
 129 -169 l 1,2,-1
 287 -169 l 1,3,-1
 277 -213 l 1,4,-1
 44 -213 l 1,5,-1
 249 750 l 1,6,-1
 482 750 l 1,7,-1
 472 705 l 1,0,-1
EndSplineSet
EndChar

StartChar: bracketright
Encoding: 93 93 58
Width: 324
Flags: W
LayerCount: 2
Fore
SplineSet
406 750 m 1,0,-1
 201 -212 l 1,1,-1
 -30 -212 l 1,2,-1
 -20 -166 l 1,3,-1
 137 -166 l 1,4,-1
 322 705 l 1,5,-1
 164 705 l 1,6,-1
 174 750 l 1,7,-1
 406 750 l 1,0,-1
EndSplineSet
EndChar

StartChar: asciicircum
Encoding: 94 94 59
Width: 602
Flags: W
LayerCount: 2
Fore
SplineSet
73 289 m 1,0,-1
 298 710 l 1,1,-1
 298 711 l 1,2,-1
 334 711 l 1,3,4
 358 659 358 659 387 605 c 128,-1,5
 416 551 416 551 446.5 496.5 c 128,-1,6
 477 442 477 442 506.5 387.5 c 128,-1,7
 536 333 536 333 562 281 c 1,8,-1
 515 281 l 1,9,-1
 316 674 l 1,10,11
 279 595 279 595 249.5 537 c 128,-1,12
 220 479 220 479 196.5 434.5 c 128,-1,13
 173 390 173 390 155.5 355.5 c 128,-1,14
 138 321 138 321 124 290 c 1,15,-1
 73 289 l 1,0,-1
EndSplineSet
EndChar

StartChar: underscore
Encoding: 95 95 60
Width: 500
Flags: W
LayerCount: 2
Fore
SplineSet
485 -120 m 1,0,-1
 481 -139 l 1,1,-1
 -19 -139 l 1,2,-1
 -15 -120 l 1,3,-1
 485 -120 l 1,0,-1
EndSplineSet
EndChar

StartChar: grave
Encoding: 96 96 61
Width: 222
Flags: W
LayerCount: 2
Fore
SplineSet
241 751 m 1,0,-1
 267 639 l 1,1,-1
 225 639 l 1,2,-1
 163 751 l 1,3,-1
 241 751 l 1,0,-1
EndSplineSet
EndChar

StartChar: a
Encoding: 97 97 62
Width: 538
Flags: W
LayerCount: 2
Fore
SplineSet
235 28 m 0,0,1
 282 28 282 28 321 48 c 128,-1,2
 360 68 360 68 389.5 98 c 128,-1,3
 419 128 419 128 437.5 162 c 128,-1,4
 456 196 456 196 462 224 c 2,5,-1
 509 447 l 1,6,7
 480 464 480 464 456 473 c 128,-1,8
 432 482 432 482 395 482 c 0,9,10
 338 482 338 482 299.5 462 c 128,-1,11
 261 442 261 442 236 409.5 c 128,-1,12
 211 377 211 377 197 337 c 128,-1,13
 183 297 183 297 174 258 c 0,14,15
 166 219 166 219 160.5 178 c 128,-1,16
 155 137 155 137 159 103.5 c 128,-1,17
 163 70 163 70 180 49 c 128,-1,18
 197 28 197 28 235 28 c 0,0,1
480 1 m 1,19,-1
 428 1 l 1,20,-1
 439 106 l 1,21,22
 433 92 433 92 413.5 71.5 c 128,-1,23
 394 51 394 51 365.5 31.5 c 128,-1,24
 337 12 337 12 301 -2 c 128,-1,25
 265 -16 265 -16 226 -16 c 0,26,27
 178 -16 178 -16 148.5 3 c 128,-1,28
 119 22 119 22 106.5 57.5 c 128,-1,29
 94 93 94 93 95.5 144 c 128,-1,30
 97 195 97 195 110 258 c 0,31,32
 140 399 140 399 211 466.5 c 128,-1,33
 282 534 282 534 411 534 c 0,34,35
 440 534 440 534 462.5 528.5 c 128,-1,36
 485 523 485 523 505 515.5 c 128,-1,37
 525 508 525 508 543.5 500 c 128,-1,38
 562 492 562 492 582 488 c 1,39,-1
 480 1 l 1,19,-1
EndSplineSet
EndChar

StartChar: b
Encoding: 98 98 63
Width: 514
Flags: W
LayerCount: 2
Fore
SplineSet
132 63 m 1,0,1
 160 46 160 46 195.5 37.5 c 128,-1,2
 231 29 231 29 263 29 c 0,3,4
 315 29 315 29 350.5 52 c 128,-1,5
 386 75 386 75 411 111 c 128,-1,6
 436 147 436 147 450.5 190.5 c 128,-1,7
 465 234 465 234 474 275 c 0,8,9
 482 313 482 313 486 351 c 128,-1,10
 490 389 490 389 484.5 419.5 c 128,-1,11
 479 450 479 450 461.5 469 c 128,-1,12
 444 488 444 488 410 488 c 0,13,14
 378 488 378 488 348.5 474.5 c 128,-1,15
 319 461 319 461 293.5 439.5 c 128,-1,16
 268 418 268 418 247.5 391 c 128,-1,17
 227 364 227 364 210.5 336.5 c 128,-1,18
 194 309 194 309 183.5 283.5 c 128,-1,19
 173 258 173 258 170 241 c 2,20,-1
 132 63 l 1,0,1
218 794 m 1,21,-1
 285 794 l 1,22,-1
 198 384 l 1,23,24
 209 407 209 407 231 433.5 c 128,-1,25
 253 460 253 460 283 482 c 128,-1,26
 313 504 313 504 348.5 518.5 c 128,-1,27
 384 533 384 533 422 533 c 0,28,29
 459 533 459 533 488.5 520 c 128,-1,30
 518 507 518 507 535.5 477 c 128,-1,31
 553 447 553 447 555.5 397.5 c 128,-1,32
 558 348 558 348 543 275 c 0,33,34
 511 125 511 125 438 56.5 c 128,-1,35
 365 -12 365 -12 238 -12 c 0,36,37
 180 -12 180 -12 133 0 c 128,-1,38
 86 12 86 12 57 25 c 1,39,-1
 218 794 l 1,21,-1
EndSplineSet
EndChar

StartChar: c
Encoding: 99 99 64
Width: 509
Flags: W
LayerCount: 2
Fore
SplineSet
329 30 m 0,0,1
 381 30 381 30 430.5 44.5 c 128,-1,2
 480 59 480 59 512 73 c 1,3,4
 506 47 506 47 504.5 35.5 c 128,-1,5
 503 24 503 24 501 15 c 1,6,7
 452 1 452 1 410.5 -7.5 c 128,-1,8
 369 -16 369 -16 319 -16 c 0,9,10
 184 -16 184 -16 131 51.5 c 128,-1,11
 78 119 78 119 108 263 c 1,12,13
 125 339 125 339 154 390.5 c 128,-1,14
 183 442 183 442 225 473.5 c 128,-1,15
 267 505 267 505 320 518.5 c 128,-1,16
 373 532 373 532 436 532 c 0,17,18
 486 532 486 532 525 518.5 c 128,-1,19
 564 505 564 505 591 488 c 1,20,-1
 580 435 l 1,21,22
 542 454 542 454 505 470 c 128,-1,23
 468 486 468 486 426 486 c 0,24,25
 387 486 387 486 348 477.5 c 128,-1,26
 309 469 309 469 276 445 c 128,-1,27
 243 421 243 421 217 378 c 128,-1,28
 191 335 191 335 176 265 c 0,29,30
 160 192 160 192 167 146.5 c 128,-1,31
 174 101 174 101 196 75 c 128,-1,32
 218 49 218 49 253 39.5 c 128,-1,33
 288 30 288 30 329 30 c 0,0,1
EndSplineSet
EndChar

StartChar: d
Encoding: 100 100 65
Width: 538
Flags: W
LayerCount: 2
Fore
SplineSet
519 448 m 1,0,1
 507 454 507 454 487.5 461 c 128,-1,2
 468 468 468 468 446.5 475 c 128,-1,3
 425 482 425 482 402.5 486.5 c 128,-1,4
 380 491 380 491 361 491 c 0,5,6
 326 491 326 491 299 477.5 c 128,-1,7
 272 464 272 464 252 442.5 c 128,-1,8
 232 421 232 421 218.5 394.5 c 128,-1,9
 205 368 205 368 196 342.5 c 128,-1,10
 187 317 187 317 182 295.5 c 128,-1,11
 177 274 177 274 174 262 c 0,12,13
 167 230 167 230 162.5 190 c 128,-1,14
 158 150 158 150 164.5 115 c 128,-1,15
 171 80 171 80 192 56 c 128,-1,16
 213 32 213 32 257 32 c 0,17,18
 347 32 347 32 398.5 81 c 128,-1,19
 450 130 450 130 470 222 c 2,20,-1
 519 448 l 1,0,1
438 68 m 1,21,22
 408 33 408 33 359.5 10.5 c 128,-1,23
 311 -12 311 -12 248 -12 c 0,24,25
 207 -12 207 -12 174 2 c 128,-1,26
 141 16 141 16 121 48 c 128,-1,27
 101 80 101 80 96 132 c 128,-1,28
 91 184 91 184 107 261 c 0,29,30
 123 336 123 336 151 388.5 c 128,-1,31
 179 441 179 441 214.5 474 c 128,-1,32
 250 507 250 507 290.5 522 c 128,-1,33
 331 537 331 537 371 537 c 0,34,35
 397 537 397 537 439 529 c 128,-1,36
 481 521 481 521 530 501 c 1,37,-1
 592 793 l 1,38,-1
 659 793 l 1,39,-1
 490 -4 l 1,40,-1
 427 -4 l 1,41,42
 428 1 428 1 428.5 5.5 c 128,-1,43
 429 10 429 10 429.5 17.5 c 128,-1,44
 430 25 430 25 432 36.5 c 128,-1,45
 434 48 434 48 438 68 c 1,21,22
EndSplineSet
EndChar

StartChar: e
Encoding: 101 101 66
Width: 521
Flags: W
LayerCount: 2
Fore
SplineSet
499 306 m 1,0,1
 505 343 505 343 503.5 374 c 128,-1,2
 502 405 502 405 492 431 c 0,3,4
 481 458 481 458 457 472 c 128,-1,5
 433 486 433 486 391 486 c 0,6,7
 347 486 347 486 313 471 c 128,-1,8
 279 456 279 456 255 430.5 c 128,-1,9
 231 405 231 405 215 372.5 c 128,-1,10
 199 340 199 340 191 305 c 1,11,-1
 499 306 l 1,0,1
293 25 m 0,12,13
 323 25 323 25 349.5 33.5 c 128,-1,14
 376 42 376 42 398 54 c 128,-1,15
 420 66 420 66 436 80 c 128,-1,16
 452 94 452 94 463 106 c 1,17,18
 482 88 482 88 488.5 81.5 c 128,-1,19
 495 75 495 75 500 71 c 1,20,21
 471 44 471 44 443 27 c 128,-1,22
 415 10 415 10 387.5 0.5 c 128,-1,23
 360 -9 360 -9 334 -12.5 c 128,-1,24
 308 -16 308 -16 284 -16 c 0,25,26
 217 -16 217 -16 176.5 2.5 c 128,-1,27
 136 21 136 21 116 55 c 128,-1,28
 96 89 96 89 94.5 138 c 128,-1,29
 93 187 93 187 105 247 c 0,30,31
 133 381 133 381 206 456.5 c 128,-1,32
 279 532 279 532 401 532 c 0,33,34
 503 532 503 532 541 466 c 128,-1,35
 579 400 579 400 548 263 c 1,36,-1
 175 264 l 1,37,38
 163 211 163 211 158 167.5 c 128,-1,39
 153 124 153 124 163 92 c 128,-1,40
 173 60 173 60 203 42.5 c 128,-1,41
 233 25 233 25 293 25 c 0,12,13
EndSplineSet
EndChar

StartChar: f
Encoding: 102 102 67
Width: 322
Flags: W
LayerCount: 2
Fore
SplineSet
571 697 m 1,0,1
 547 711 547 711 522.5 719 c 128,-1,2
 498 727 498 727 466 727 c 0,3,4
 414 727 414 727 384 714.5 c 128,-1,5
 354 702 354 702 337 680.5 c 128,-1,6
 320 659 320 659 312 629 c 128,-1,7
 304 599 304 599 296 563 c 2,8,-1
 287 518 l 1,9,-1
 416 518 l 1,10,-1
 406 475 l 1,11,-1
 277 475 l 1,12,-1
 177 0 l 1,13,-1
 113 0 l 1,14,-1
 213 475 l 1,15,-1
 127 475 l 1,16,-1
 137 518 l 1,17,-1
 223 518 l 1,18,-1
 232 563 l 1,19,20
 246 626 246 626 267.5 668 c 128,-1,21
 289 710 289 710 320 734.5 c 128,-1,22
 351 759 351 759 390 769 c 128,-1,23
 429 779 429 779 477 779 c 0,24,25
 518 779 518 779 543 768 c 128,-1,26
 568 757 568 757 580 748 c 1,27,-1
 571 697 l 1,0,1
EndSplineSet
EndChar

StartChar: h
Encoding: 104 104 68
Width: 569
Flags: W
LayerCount: 2
Fore
SplineSet
510 320 m 2,0,1
 526 398 526 398 503.5 440.5 c 128,-1,2
 481 483 481 483 418 483 c 0,3,4
 384 483 384 483 350.5 470.5 c 128,-1,5
 317 458 317 458 289 437 c 128,-1,6
 261 416 261 416 241 388.5 c 128,-1,7
 221 361 221 361 215 331 c 2,8,-1
 145 0 l 1,9,-1
 79 0 l 1,10,-1
 247 795 l 1,11,-1
 313 795 l 1,12,-1
 232 411 l 1,13,14
 247 435 247 435 273 457 c 128,-1,15
 299 479 299 479 330.5 496 c 128,-1,16
 362 513 362 513 395 523 c 128,-1,17
 428 533 428 533 459 533 c 0,18,19
 494 533 494 533 520.5 519.5 c 128,-1,20
 547 506 547 506 562.5 479 c 128,-1,21
 578 452 578 452 581 410.5 c 128,-1,22
 584 369 584 369 572 313 c 2,23,-1
 506 0 l 1,24,-1
 442 0 l 1,25,-1
 510 320 l 2,0,1
EndSplineSet
EndChar

StartChar: i
Encoding: 105 105 69
Width: 229
Flags: W
LayerCount: 2
Fore
SplineSet
226 711 m 1,0,-1
 244 796 l 1,1,-1
 329 796 l 1,2,-1
 311 711 l 1,3,-1
 226 711 l 1,0,-1
202 518 m 1,4,-1
 270 518 l 1,5,-1
 160 0 l 1,6,-1
 92 0 l 1,7,-1
 202 518 l 1,4,-1
EndSplineSet
EndChar

StartChar: j
Encoding: 106 106 70
Width: 231
Flags: W
LayerCount: 2
Fore
SplineSet
157 -16 m 2,0,1
 145 -75 145 -75 122.5 -112.5 c 128,-1,2
 100 -150 100 -150 74.5 -171.5 c 128,-1,3
 49 -193 49 -193 25 -202 c 128,-1,4
 1 -211 1 -211 -15 -214 c 1,5,6
 -11 -200 -11 -200 -9 -189.5 c 128,-1,7
 -7 -179 -7 -179 -4 -169 c 1,8,9
 32 -141 32 -141 55 -104.5 c 128,-1,10
 78 -68 78 -68 87 -26 c 2,11,-1
 203 518 l 1,12,-1
 271 518 l 1,13,-1
 157 -16 l 2,0,1
312 711 m 1,14,-1
 228 711 l 1,15,-1
 246 796 l 1,16,-1
 330 796 l 1,17,-1
 312 711 l 1,14,-1
EndSplineSet
EndChar

StartChar: k
Encoding: 107 107 71
Width: 538
Flags: W
LayerCount: 2
Fore
SplineSet
509 0 m 1,0,-1
 430 0 l 1,1,-1
 336 170 l 1,2,-1
 269 143 l 1,3,-1
 280 196 l 1,4,5
 314 209 314 209 355.5 229 c 128,-1,6
 397 249 397 249 435 275.5 c 128,-1,7
 473 302 473 302 501 333 c 128,-1,8
 529 364 529 364 536 399 c 0,9,10
 546 444 546 444 524.5 471.5 c 128,-1,11
 503 499 503 499 461 499 c 0,12,13
 429 499 429 499 390.5 482 c 128,-1,14
 352 465 352 465 316.5 436.5 c 128,-1,15
 281 408 281 408 253.5 372 c 128,-1,16
 226 336 226 336 217 297 c 2,17,-1
 154 0 l 1,18,-1
 86 0 l 1,19,-1
 254 794 l 1,20,-1
 322 794 l 1,21,-1
 241 411 l 1,22,23
 297 476 297 476 360.5 513 c 128,-1,24
 424 550 424 550 490 550 c 0,25,26
 522 550 522 550 545.5 539 c 128,-1,27
 569 528 569 528 583 509 c 128,-1,28
 597 490 597 490 601 464.5 c 128,-1,29
 605 439 605 439 599 410 c 0,30,31
 587 353 587 353 534 300.5 c 128,-1,32
 481 248 481 248 399 200 c 1,33,-1
 509 0 l 1,0,-1
EndSplineSet
EndChar

StartChar: l
Encoding: 108 108 72
Width: 229
Flags: W
LayerCount: 2
Fore
SplineSet
92 0 m 1,0,-1
 260 794 l 1,1,-1
 326 794 l 1,2,-1
 158 0 l 1,3,-1
 92 0 l 1,0,-1
EndSplineSet
EndChar

StartChar: m
Encoding: 109 109 73
Width: 789
Flags: W
LayerCount: 2
Fore
SplineSet
754 330 m 2,0,1
 761 365 761 365 764 393.5 c 128,-1,2
 767 422 767 422 761.5 442 c 128,-1,3
 756 462 756 462 739.5 473 c 128,-1,4
 723 484 723 484 693 484 c 0,5,6
 655 484 655 484 624.5 469.5 c 128,-1,7
 594 455 594 455 571 432 c 128,-1,8
 548 409 548 409 533.5 379.5 c 128,-1,9
 519 350 519 350 513 320 c 2,10,-1
 445 0 l 1,11,-1
 377 0 l 1,12,-1
 445 320 l 2,13,14
 461 399 461 399 451.5 441.5 c 128,-1,15
 442 484 442 484 388 484 c 0,16,17
 350 484 350 484 319 466.5 c 128,-1,18
 288 449 288 449 264 422 c 128,-1,19
 240 395 240 395 225 363 c 128,-1,20
 210 331 210 331 204 303 c 2,21,-1
 140 0 l 1,22,-1
 74 0 l 1,23,-1
 183 517 l 1,24,-1
 242 517 l 1,25,-1
 225 407 l 1,26,27
 258 468 258 468 310.5 500.5 c 128,-1,28
 363 533 363 533 429 533 c 0,29,30
 472 533 472 533 495 503.5 c 128,-1,31
 518 474 518 474 522 407 c 1,32,33
 538 432 538 432 559.5 454.5 c 128,-1,34
 581 477 581 477 607.5 494.5 c 128,-1,35
 634 512 634 512 666 522.5 c 128,-1,36
 698 533 698 533 735 533 c 0,37,38
 798 533 798 533 817.5 483.5 c 128,-1,39
 837 434 837 434 813 323 c 1,40,-1
 748 0 l 1,41,-1
 684 0 l 1,42,-1
 754 330 l 2,0,1
EndSplineSet
EndChar

StartChar: n
Encoding: 110 110 74
Width: 562
Flags: W
LayerCount: 2
Fore
SplineSet
513 320 m 2,0,1
 529 398 529 398 506.5 440.5 c 128,-1,2
 484 483 484 483 421 483 c 0,3,4
 387 483 387 483 353.5 470.5 c 128,-1,5
 320 458 320 458 292 437 c 128,-1,6
 264 416 264 416 244 388.5 c 128,-1,7
 224 361 224 361 218 331 c 2,8,-1
 148 0 l 1,9,-1
 82 0 l 1,10,-1
 192 518 l 1,11,-1
 251 518 l 1,12,-1
 235 415 l 1,13,14
 250 439 250 439 276 460 c 128,-1,15
 302 481 302 481 333 497.5 c 128,-1,16
 364 514 364 514 398 523.5 c 128,-1,17
 432 533 432 533 462 533 c 0,18,19
 533 533 533 533 566 479 c 128,-1,20
 599 425 599 425 575 313 c 2,21,-1
 509 0 l 1,22,-1
 445 0 l 1,23,-1
 513 320 l 2,0,1
EndSplineSet
EndChar

StartChar: o
Encoding: 111 111 75
Width: 563
Flags: W
LayerCount: 2
Fore
SplineSet
173 261 m 0,0,1
 156 179 156 179 163 132.5 c 128,-1,2
 170 86 170 86 191 63 c 128,-1,3
 212 40 212 40 242 34.5 c 128,-1,4
 272 29 272 29 300 29 c 0,5,6
 322 29 322 29 350 33 c 128,-1,7
 378 37 378 37 407.5 58.5 c 128,-1,8
 437 80 437 80 463.5 127 c 128,-1,9
 490 174 490 174 509 261 c 0,10,11
 527 345 527 345 519.5 391 c 128,-1,12
 512 437 512 437 490.5 458 c 128,-1,13
 469 479 469 479 440 483 c 128,-1,14
 411 487 411 487 386 487 c 0,15,16
 360 487 360 487 330.5 484 c 128,-1,17
 301 481 301 481 272 460 c 128,-1,18
 243 439 243 439 217 393 c 128,-1,19
 191 347 191 347 173 261 c 0,0,1
396 533 m 0,20,21
 468 533 468 533 511 511.5 c 128,-1,22
 554 490 554 490 574 453 c 128,-1,23
 594 416 594 416 595 366.5 c 128,-1,24
 596 317 596 317 584 261 c 0,25,26
 570 193 570 193 547.5 141 c 128,-1,27
 525 89 525 89 491 54 c 128,-1,28
 457 19 457 19 408 1 c 128,-1,29
 359 -17 359 -17 290 -17 c 256,30,31
 221 -17 221 -17 179 5.5 c 128,-1,32
 137 28 137 28 116.5 66.5 c 128,-1,33
 96 105 96 105 94 155 c 128,-1,34
 92 205 92 205 104 261 c 0,35,36
 118 326 118 326 140.5 377 c 128,-1,37
 163 428 163 428 198 462.5 c 128,-1,38
 233 497 233 497 282 515 c 128,-1,39
 331 533 331 533 396 533 c 0,20,21
EndSplineSet
EndChar

StartChar: p
Encoding: 112 112 76
Width: 544
Flags: W
LayerCount: 2
Fore
SplineSet
432 490 m 0,0,1
 385 490 385 490 346 470 c 128,-1,2
 307 450 307 450 277.5 420 c 128,-1,3
 248 390 248 390 229.5 356 c 128,-1,4
 211 322 211 322 205 294 c 2,5,-1
 158 71 l 1,6,7
 187 54 187 54 211 47.5 c 128,-1,8
 235 41 235 41 272 41 c 0,9,10
 329 41 329 41 367.5 60.5 c 128,-1,11
 406 80 406 80 431 111 c 128,-1,12
 456 142 456 142 470 181.5 c 128,-1,13
 484 221 484 221 493 260 c 0,14,15
 501 299 501 299 506.5 340 c 128,-1,16
 512 381 512 381 508 414.5 c 128,-1,17
 504 448 504 448 486.5 469 c 128,-1,18
 469 490 469 490 432 490 c 0,0,1
96 -213 m 1,19,-1
 32 -213 l 1,20,-1
 187 517 l 1,21,-1
 239 517 l 1,22,-1
 226 397 l 1,23,24
 232 411 232 411 252 434 c 128,-1,25
 272 457 272 457 300.5 479.5 c 128,-1,26
 329 502 329 502 365.5 518 c 128,-1,27
 402 534 402 534 441 534 c 0,28,29
 489 534 489 534 518 515 c 128,-1,30
 547 496 547 496 560.5 460.5 c 128,-1,31
 574 425 574 425 572 374 c 128,-1,32
 570 323 570 323 557 260 c 0,33,34
 527 119 527 119 456 55.5 c 128,-1,35
 385 -8 385 -8 256 -8 c 0,36,37
 229 -8 229 -8 201 -2.5 c 128,-1,38
 173 3 173 3 144 11 c 1,39,-1
 96 -213 l 1,19,-1
EndSplineSet
EndChar

StartChar: q
Encoding: 113 113 77
Width: 540
Flags: W
LayerCount: 2
Fore
SplineSet
233 31 m 0,0,1
 279 31 279 31 318 51 c 128,-1,2
 357 71 357 71 386.5 101 c 128,-1,3
 416 131 416 131 435 165 c 128,-1,4
 454 199 454 199 460 227 c 2,5,-1
 507 450 l 1,6,7
 479 467 479 467 445.5 478 c 128,-1,8
 412 489 412 489 375 489 c 0,9,10
 325 489 325 489 290 468 c 128,-1,11
 255 447 255 447 231 414 c 128,-1,12
 207 381 207 381 193 340.5 c 128,-1,13
 179 300 179 300 171 261 c 256,14,15
 163 222 163 222 157.5 181 c 128,-1,16
 152 140 152 140 156 106.5 c 128,-1,17
 160 73 160 73 177.5 52 c 128,-1,18
 195 31 195 31 233 31 c 0,0,1
367 -211 m 1,19,-1
 435 109 l 1,20,21
 417 89 417 89 395 67.5 c 128,-1,22
 373 46 373 46 347 28.5 c 128,-1,23
 321 11 321 11 290 -0.5 c 128,-1,24
 259 -12 259 -12 224 -12 c 0,25,26
 176 -12 176 -12 147 7 c 128,-1,27
 118 26 118 26 104.5 61.5 c 128,-1,28
 91 97 91 97 93 147.5 c 128,-1,29
 95 198 95 198 108 261 c 0,30,31
 138 402 138 402 209 465.5 c 128,-1,32
 280 529 280 529 408 529 c 0,33,34
 437 529 437 529 463.5 524 c 128,-1,35
 490 519 490 519 512 512.5 c 128,-1,36
 534 506 534 506 551.5 498.5 c 128,-1,37
 569 491 569 491 580 485 c 1,38,-1
 432 -211 l 1,39,-1
 367 -211 l 1,19,-1
EndSplineSet
EndChar

StartChar: r
Encoding: 114 114 78
Width: 367
Flags: W
LayerCount: 2
Fore
SplineSet
78 0 m 1,0,-1
 187 517 l 1,1,-1
 242 517 l 1,2,-1
 232 403 l 1,3,4
 248 429 248 429 265 452.5 c 128,-1,5
 282 476 282 476 302 493.5 c 128,-1,6
 322 511 322 511 347.5 521.5 c 128,-1,7
 373 532 373 532 405 532 c 256,8,9
 437 532 437 532 455 527.5 c 128,-1,10
 473 523 473 523 482 519 c 1,11,-1
 466 464 l 1,12,13
 439 473 439 473 425 476.5 c 128,-1,14
 411 480 411 480 394 480 c 0,15,16
 369 480 369 480 340 468 c 128,-1,17
 311 456 311 456 284.5 429 c 128,-1,18
 258 402 258 402 235.5 357.5 c 128,-1,19
 213 313 213 313 199 248 c 2,20,-1
 147 0 l 1,21,-1
 78 0 l 1,0,-1
EndSplineSet
EndChar

StartChar: s
Encoding: 115 115 79
Width: 472
Flags: W
LayerCount: 2
Fore
SplineSet
347 528 m 0,0,1
 381 528 381 528 409 523 c 128,-1,2
 437 518 437 518 459 510.5 c 128,-1,3
 481 503 481 503 498.5 495 c 128,-1,4
 516 487 516 487 529 481 c 1,5,6
 526 470 526 470 524 456.5 c 128,-1,7
 522 443 522 443 520 433 c 1,8,9
 475 454 475 454 432 470 c 128,-1,10
 389 486 389 486 338 486 c 0,11,12
 318 486 318 486 298 483 c 128,-1,13
 278 480 278 480 260.5 470.5 c 128,-1,14
 243 461 243 461 230 443.5 c 128,-1,15
 217 426 217 426 211 397 c 0,16,17
 206 373 206 373 209.5 357.5 c 128,-1,18
 213 342 213 342 225.5 332 c 128,-1,19
 238 322 238 322 258.5 314.5 c 128,-1,20
 279 307 279 307 307 299 c 0,21,22
 408 273 408 273 452 236 c 128,-1,23
 496 199 496 199 483 138 c 0,24,25
 475 102 475 102 454 73.5 c 128,-1,26
 433 45 433 45 402 25.5 c 128,-1,27
 371 6 371 6 331 -4.5 c 128,-1,28
 291 -15 291 -15 245 -15 c 0,29,30
 206 -15 206 -15 174 -8.5 c 128,-1,31
 142 -2 142 -2 118 7.5 c 128,-1,32
 94 17 94 17 77 27 c 128,-1,33
 60 37 60 37 53 43 c 1,34,35
 56 60 56 60 60 75.5 c 128,-1,36
 64 91 64 91 67 108 c 1,37,38
 108 81 108 81 154 58 c 128,-1,39
 200 35 200 35 256 35 c 0,40,41
 283 35 283 35 308 39.5 c 128,-1,42
 333 44 333 44 354.5 55.5 c 128,-1,43
 376 67 376 67 391 87 c 128,-1,44
 406 107 406 107 413 138 c 0,45,46
 418 163 418 163 407 181 c 128,-1,47
 396 199 396 199 373.5 212.5 c 128,-1,48
 351 226 351 226 319 236 c 128,-1,49
 287 246 287 246 252 256 c 0,50,51
 213 268 213 268 188.5 282 c 128,-1,52
 164 296 164 296 151.5 313.5 c 128,-1,53
 139 331 139 331 137 352 c 128,-1,54
 135 373 135 373 140 399 c 0,55,56
 144 417 144 417 156 439.5 c 128,-1,57
 168 462 168 462 191.5 481.5 c 128,-1,58
 215 501 215 501 253 514.5 c 128,-1,59
 291 528 291 528 347 528 c 0,0,1
EndSplineSet
EndChar

StartChar: tt
Encoding: 65537 -1 80
Width: 632
Flags: W
LayerCount: 2
Fore
SplineSet
365 518 m 1,0,-1
 545 518 l 1,1,2
 564 577 564 577 576.5 614 c 128,-1,3
 589 651 589 651 597 672 c 1,4,-1
 643 672 l 1,5,-1
 611 518 l 1,6,-1
 744 518 l 1,7,-1
 734 475 l 1,8,-1
 601 475 l 1,9,-1
 530 139 l 2,10,11
 523 106 523 106 520.5 85.5 c 128,-1,12
 518 65 518 65 522 54.5 c 128,-1,13
 526 44 526 44 536.5 40.5 c 128,-1,14
 547 37 547 37 567 37 c 0,15,16
 608 37 608 37 643 54 c 1,17,-1
 632 3 l 1,18,19
 601 -8 601 -8 580 -10 c 128,-1,20
 559 -12 559 -12 532 -12 c 0,21,22
 523 -12 523 -12 510.5 -10.5 c 128,-1,23
 498 -9 498 -9 486 -4.5 c 128,-1,24
 474 0 474 0 463.5 7.5 c 128,-1,25
 453 15 453 15 448 28 c 1,26,27
 419 7 419 7 383 -4 c 128,-1,28
 347 -15 347 -15 310 -15 c 0,29,30
 283 -15 283 -15 250 -13.5 c 128,-1,31
 217 -12 217 -12 190.5 1.5 c 128,-1,32
 164 15 164 15 150 46.5 c 128,-1,33
 136 78 136 78 149 138 c 2,34,-1
 220 474 l 1,35,-1
 119 474 l 1,36,-1
 128 517 l 1,37,-1
 228 517 l 1,38,-1
 282 671 l 1,39,-1
 327 671 l 1,40,-1
 214 138 l 2,41,42
 205 98 205 98 217 77 c 128,-1,43
 229 56 229 56 250.5 47 c 128,-1,44
 272 38 272 38 296 37 c 128,-1,45
 320 36 320 36 337 36 c 0,46,47
 345 36 345 36 364 40 c 128,-1,48
 383 44 383 44 402.5 51.5 c 128,-1,49
 422 59 422 59 438 70.5 c 128,-1,50
 454 82 454 82 457 97 c 2,51,-1
 537 475 l 1,52,-1
 355 475 l 1,53,-1
 365 518 l 1,0,-1
EndSplineSet
Ligature2: "'liga' Standard Ligatures in Latin lookup 0 subtable" t t
EndChar

StartChar: u
Encoding: 117 117 81
Width: 574
Flags: W
LayerCount: 2
Fore
SplineSet
185 188 m 2,0,1
 169 111 169 111 183 69.5 c 128,-1,2
 197 28 197 28 263 28 c 0,3,4
 296 28 296 28 332.5 40 c 128,-1,5
 369 52 369 52 400.5 75 c 128,-1,6
 432 98 432 98 455.5 130.5 c 128,-1,7
 479 163 479 163 488 204 c 2,8,-1
 555 518 l 1,9,-1
 620 518 l 1,10,-1
 510 0 l 1,11,-1
 450 0 l 1,12,-1
 467 108 l 1,13,14
 432 48 432 48 372 15.5 c 128,-1,15
 312 -17 312 -17 238 -17 c 0,16,17
 205 -17 205 -17 177.5 -6 c 128,-1,18
 150 5 150 5 132.5 30 c 128,-1,19
 115 55 115 55 111 96 c 128,-1,20
 107 137 107 137 119 197 c 2,21,-1
 188 518 l 1,22,-1
 256 518 l 1,23,-1
 185 188 l 2,0,1
EndSplineSet
EndChar

StartChar: v
Encoding: 118 118 82
Width: 548
Flags: W
LayerCount: 2
Fore
SplineSet
212 518 m 1,0,-1
 293 59 l 1,1,2
 293 59 293 59 305.5 78.5 c 128,-1,3
 318 98 318 98 339 130.5 c 128,-1,4
 360 163 360 163 386 204 c 128,-1,5
 412 245 412 245 439 288 c 128,-1,6
 466 331 466 331 492 372 c 128,-1,7
 518 413 518 413 538.5 445.5 c 128,-1,8
 559 478 559 478 571 498 c 128,-1,9
 583 518 583 518 583 518 c 1,10,-1
 650 518 l 1,11,-1
 314 0 l 1,12,-1
 251 0 l 1,13,-1
 143 518 l 1,14,-1
 212 518 l 1,0,-1
EndSplineSet
EndChar

StartChar: w
Encoding: 119 119 83
Width: 787
Flags: W
LayerCount: 2
Fore
SplineSet
200 518 m 1,0,-1
 226 50 l 1,1,2
 226 50 226 50 238 70 c 128,-1,3
 250 90 250 90 269.5 123 c 128,-1,4
 289 156 289 156 314 198 c 128,-1,5
 339 240 339 240 364.5 283.5 c 128,-1,6
 390 327 390 327 415 369.5 c 128,-1,7
 440 412 440 412 459.5 444.5 c 128,-1,8
 479 477 479 477 491 497.5 c 128,-1,9
 503 518 503 518 503 518 c 1,10,-1
 557 518 l 1,11,-1
 620 49 l 1,12,-1
 830 518 l 1,13,-1
 894 518 l 1,14,-1
 654 0 l 1,15,-1
 572 0 l 1,16,-1
 521 477 l 1,17,-1
 250 0 l 1,18,-1
 173 0 l 1,19,-1
 137 518 l 1,20,-1
 200 518 l 1,0,-1
EndSplineSet
EndChar

StartChar: x
Encoding: 120 120 84
Width: 511
Flags: W
LayerCount: 2
Fore
SplineSet
96 1 m 1,0,-1
 25 1 l 1,1,-1
 283 271 l 1,2,-1
 156 518 l 1,3,-1
 234 518 l 1,4,-1
 329 320 l 1,5,-1
 512 518 l 1,6,-1
 589 518 l 1,7,-1
 357 271 l 1,8,-1
 498 1 l 1,9,-1
 430 1 l 1,10,-1
 309 223 l 1,11,-1
 96 1 l 1,0,-1
EndSplineSet
EndChar

StartChar: y
Encoding: 121 121 85
Width: 535
Flags: W
LayerCount: 2
Fore
SplineSet
140 518 m 1,0,-1
 208 518 l 1,1,-1
 291 0 l 1,2,-1
 569 518 l 1,3,-1
 637 518 l 1,4,-1
 220 -212 l 1,5,-1
 162 -212 l 1,6,-1
 245 -52 l 1,7,-1
 140 518 l 1,0,-1
EndSplineSet
EndChar

StartChar: z
Encoding: 122 122 86
Width: 458
Flags: W
LayerCount: 2
Fore
SplineSet
450 53 m 1,0,-1
 439 0 l 1,1,-1
 37 0 l 1,2,-1
 48 53 l 1,3,-1
 470 474 l 1,4,-1
 137 474 l 1,5,-1
 147 518 l 1,6,-1
 557 518 l 1,7,-1
 547 474 l 1,8,-1
 120 53 l 1,9,-1
 450 53 l 1,0,-1
EndSplineSet
EndChar

StartChar: braceleft
Encoding: 123 123 87
Width: 447
Flags: W
LayerCount: 2
Fore
SplineSet
384 -213 m 1,0,-1
 316 -213 l 2,1,2
 276 -213 276 -213 241 -202.5 c 128,-1,3
 206 -192 206 -192 181.5 -167.5 c 128,-1,4
 157 -143 157 -143 148 -103 c 128,-1,5
 139 -63 139 -63 152 -3 c 2,6,-1
 184 150 l 2,7,8
 190 175 190 175 184 192.5 c 128,-1,9
 178 210 178 210 166.5 221 c 128,-1,10
 155 232 155 232 141 238 c 128,-1,11
 127 244 127 244 118 248 c 1,12,-1
 128 294 l 1,13,14
 163 307 163 307 194 330.5 c 128,-1,15
 225 354 225 354 237 396 c 1,16,-1
 270 551 l 2,17,18
 281 606 281 606 307 644.5 c 128,-1,19
 333 683 333 683 367.5 707 c 128,-1,20
 402 731 402 731 442 742 c 128,-1,21
 482 753 482 753 522 753 c 2,22,-1
 590 753 l 1,23,-1
 580 706 l 1,24,-1
 522 706 l 2,25,26
 511 706 511 706 486 704.5 c 128,-1,27
 461 703 461 703 433 692.5 c 128,-1,28
 405 682 405 682 381 660 c 128,-1,29
 357 638 357 638 348 597 c 2,30,-1
 306 397 l 2,31,32
 302 381 302 381 295 363.5 c 128,-1,33
 288 346 288 346 277.5 331 c 128,-1,34
 267 316 267 316 252.5 304.5 c 128,-1,35
 238 293 238 293 220 290 c 1,36,-1
 212 252 l 1,37,38
 246 245 246 245 253.5 214.5 c 128,-1,39
 261 184 261 184 253 150 c 2,40,-1
 209 -60 l 2,41,42
 200 -102 200 -102 215 -123.5 c 128,-1,43
 230 -145 230 -145 253 -155 c 128,-1,44
 276 -165 276 -165 300.5 -166 c 128,-1,45
 325 -167 325 -167 336 -167 c 2,46,-1
 394 -167 l 1,47,-1
 384 -213 l 1,0,-1
EndSplineSet
EndChar

StartChar: bar
Encoding: 124 124 88
Width: 229
Flags: W
LayerCount: 2
Fore
SplineSet
271 809 m 1,0,-1
 318 809 l 1,1,-1
 97 -234 l 1,2,-1
 50 -234 l 1,3,-1
 271 809 l 1,0,-1
EndSplineSet
EndChar

StartChar: braceright
Encoding: 125 125 89
Width: 444
Flags: W
LayerCount: 2
Fore
SplineSet
-8 -213 m 1,0,-1
 1 -167 l 1,1,-1
 59 -167 l 2,2,3
 71 -167 71 -167 96 -166 c 128,-1,4
 121 -165 121 -165 149 -155 c 128,-1,5
 177 -145 177 -145 200.5 -123.5 c 128,-1,6
 224 -102 224 -102 233 -60 c 2,7,-1
 277 150 l 2,8,9
 285 185 285 185 305 214.5 c 128,-1,10
 325 244 325 244 362 251 c 1,11,-1
 370 289 l 1,12,13
 353 292 353 292 343 303.5 c 128,-1,14
 333 315 333 315 329 330.5 c 128,-1,15
 325 346 325 346 325.5 363.5 c 128,-1,16
 326 381 326 381 330 397 c 2,17,-1
 372 597 l 2,18,19
 381 638 381 638 366.5 660 c 128,-1,20
 352 682 352 682 329 692.5 c 128,-1,21
 306 703 306 703 281.5 704.5 c 128,-1,22
 257 706 257 706 245 706 c 2,23,-1
 187 706 l 1,24,-1
 197 753 l 1,25,-1
 265 753 l 2,26,27
 306 753 306 753 341.5 742 c 128,-1,28
 377 731 377 731 401 707 c 128,-1,29
 425 683 425 683 434 644.5 c 128,-1,30
 443 606 443 606 432 551 c 2,31,-1
 399 397 l 2,32,33
 393 371 393 371 398.5 353.5 c 128,-1,34
 404 336 404 336 415 324 c 128,-1,35
 426 312 426 312 439.5 305 c 128,-1,36
 453 298 453 298 464 294 c 1,37,-1
 454 247 l 1,38,39
 438 241 438 241 421 231.5 c 128,-1,40
 404 222 404 222 389 210 c 128,-1,41
 374 198 374 198 362.5 183 c 128,-1,42
 351 168 351 168 346 150 c 1,43,-1
 314 -3 l 2,44,45
 301 -63 301 -63 275 -103 c 128,-1,46
 249 -143 249 -143 215 -167.5 c 128,-1,47
 181 -192 181 -192 140.5 -202.5 c 128,-1,48
 100 -213 100 -213 59 -213 c 2,49,-1
 -8 -213 l 1,0,-1
EndSplineSet
EndChar

StartChar: asciitilde
Encoding: 126 126 90
Width: 600
Flags: W
LayerCount: 2
Fore
SplineSet
207 216 m 0,0,1
 181 216 181 216 154.5 209.5 c 128,-1,2
 128 203 128 203 108 197 c 1,3,4
 108 211 108 211 107 218 c 128,-1,5
 106 225 106 225 106 237 c 1,6,7
 134 250 134 250 158 259 c 128,-1,8
 182 268 182 268 209 268 c 0,9,10
 245 268 245 268 267.5 263.5 c 128,-1,11
 290 259 290 259 311 254 c 128,-1,12
 332 249 332 249 356 244.5 c 128,-1,13
 380 240 380 240 419 240 c 0,14,15
 448 240 448 240 473 246.5 c 128,-1,16
 498 253 498 253 518 262 c 1,17,-1
 518 217 l 1,18,19
 477 200 477 200 455.5 194.5 c 128,-1,20
 434 189 434 189 419 189 c 0,21,22
 382 189 382 189 358 193 c 128,-1,23
 334 197 334 197 312.5 202.5 c 128,-1,24
 291 208 291 208 267.5 212 c 128,-1,25
 244 216 244 216 207 216 c 0,0,1
EndSplineSet
EndChar

StartChar: ccedilla
Encoding: 231 231 91
Width: 531
Flags: W
LayerCount: 2
Fore
SplineSet
274 -84 m 0,0,1
 264 -84 264 -84 255.5 -84 c 128,-1,2
 247 -84 247 -84 238 -85 c 1,3,4
 242 -83 242 -83 244 -81 c 128,-1,5
 246 -79 246 -79 250.5 -72.5 c 128,-1,6
 255 -66 255 -66 264.5 -53.5 c 128,-1,7
 274 -41 274 -41 291 -18 c 1,8,9
 175 4 175 4 130 72 c 128,-1,10
 85 140 85 140 111 261 c 0,11,12
 127 337 127 337 156.5 388 c 128,-1,13
 186 439 186 439 227.5 470 c 128,-1,14
 269 501 269 501 322 514.5 c 128,-1,15
 375 528 375 528 438 528 c 0,16,17
 489 528 489 528 529.5 517 c 128,-1,18
 570 506 570 506 595 492 c 1,19,-1
 583 436 l 1,20,21
 552 456 552 456 511 470 c 128,-1,22
 470 484 470 484 428 484 c 0,23,24
 389 484 389 484 350.5 475.5 c 128,-1,25
 312 467 312 467 279 443 c 128,-1,26
 246 419 246 419 219.5 376 c 128,-1,27
 193 333 193 333 178 263 c 0,28,29
 163 190 163 190 170 144.5 c 128,-1,30
 177 99 177 99 198.5 73 c 128,-1,31
 220 47 220 47 255 37.5 c 128,-1,32
 290 28 290 28 331 28 c 0,33,34
 383 28 383 28 433 42.5 c 128,-1,35
 483 57 483 57 515 71 c 1,36,37
 510 49 510 49 507 34 c 128,-1,38
 504 19 504 19 503 11 c 1,39,40
 456 -2 456 -2 414.5 -10 c 128,-1,41
 373 -18 373 -18 322 -18 c 2,42,-1
 293 -18 l 1,43,-1
 261 -72 l 1,44,45
 293 -71 293 -71 313.5 -76.5 c 128,-1,46
 334 -82 334 -82 345.5 -92.5 c 128,-1,47
 357 -103 357 -103 359.5 -117 c 128,-1,48
 362 -131 362 -131 358 -146 c 1,49,50
 352 -178 352 -178 326 -196 c 128,-1,51
 300 -214 300 -214 263 -217 c 1,52,-1
 264 -217 l 2,53,54
 238 -217 238 -217 224.5 -215.5 c 128,-1,55
 211 -214 211 -214 199 -211 c 1,56,-1
 203 -190 l 1,57,58
 213 -195 213 -195 225 -197.5 c 128,-1,59
 237 -200 237 -200 249 -200 c 0,60,61
 256 -200 256 -200 267 -198 c 128,-1,62
 278 -196 278 -196 288.5 -190 c 128,-1,63
 299 -184 299 -184 308.5 -173.5 c 128,-1,64
 318 -163 318 -163 321 -146 c 0,65,66
 335 -84 335 -84 274 -84 c 0,0,1
EndSplineSet
Ligature2: "'ccmp' Glyph Composition/Decomposition in Latin lookup 1 subtable" c cedillacmb
EndChar

StartChar: degree
Encoding: 176 176 92
Width: 400
Flags: W
LayerCount: 2
Fore
SplineSet
104 577 m 0,0,1
 104 534 104 534 117.5 511.5 c 128,-1,2
 131 489 131 489 148 479 c 128,-1,3
 165 469 165 469 181.5 468 c 128,-1,4
 198 467 198 467 203 467 c 0,5,6
 209 467 209 467 226 468.5 c 128,-1,7
 243 470 243 470 261 480.5 c 128,-1,8
 279 491 279 491 293 513.5 c 128,-1,9
 307 536 307 536 307 577 c 0,10,11
 307 619 307 619 293 641 c 128,-1,12
 279 663 279 663 261 673.5 c 128,-1,13
 243 684 243 684 226 685.5 c 128,-1,14
 209 687 209 687 203 687 c 256,15,16
 197 687 197 687 181 685.5 c 128,-1,17
 165 684 165 684 147.5 673.5 c 128,-1,18
 130 663 130 663 117 640.5 c 128,-1,19
 104 618 104 618 104 577 c 0,0,1
203 719 m 1,20,21
 278 718 278 718 311 682 c 128,-1,22
 344 646 344 646 344 577 c 0,23,24
 344 547 344 547 336.5 521.5 c 128,-1,25
 329 496 329 496 312 477 c 128,-1,26
 295 458 295 458 268 447.5 c 128,-1,27
 241 437 241 437 203 437 c 256,28,29
 165 437 165 437 138.5 447 c 128,-1,30
 112 457 112 457 95.5 475.5 c 128,-1,31
 79 494 79 494 71.5 519.5 c 128,-1,32
 64 545 64 545 64 577 c 0,33,34
 64 647 64 647 101 682.5 c 128,-1,35
 138 718 138 718 203 719 c 1,20,21
EndSplineSet
EndChar

StartChar: sterling
Encoding: 163 163 93
Width: 585
Flags: W
LayerCount: 2
Fore
SplineSet
581 198 m 1,0,1
 587 227 587 227 586.5 249 c 128,-1,2
 586 271 586 271 581.5 287.5 c 128,-1,3
 577 304 577 304 570.5 315 c 128,-1,4
 564 326 564 326 557 334 c 1,5,6
 566 342 566 342 574 348.5 c 128,-1,7
 582 355 582 355 589 362 c 1,8,9
 621 323 621 323 623.5 280 c 128,-1,10
 626 237 626 237 618 198 c 0,11,12
 606 144 606 144 578.5 106 c 128,-1,13
 551 68 551 68 513.5 43.5 c 128,-1,14
 476 19 476 19 430.5 8.5 c 128,-1,15
 385 -2 385 -2 340 0 c 1,16,-1
 49 0 l 1,17,-1
 58 43 l 1,18,19
 121 52 121 52 155 96 c 128,-1,20
 189 140 189 140 203 205 c 2,21,-1
 236 360 l 1,22,-1
 187 360 l 1,23,-1
 197 405 l 1,24,-1
 246 405 l 1,25,-1
 283 579 l 2,26,27
 292 624 292 624 315.5 656 c 128,-1,28
 339 688 339 688 370.5 709 c 128,-1,29
 402 730 402 730 438.5 739.5 c 128,-1,30
 475 749 475 749 510 749 c 0,31,32
 553 749 553 749 576.5 741.5 c 128,-1,33
 600 734 600 734 616 723 c 1,34,-1
 607 680 l 1,35,36
 578 695 578 695 554.5 700 c 128,-1,37
 531 705 531 705 508 705 c 0,38,39
 469 705 469 705 442.5 692.5 c 128,-1,40
 416 680 416 680 398.5 659 c 128,-1,41
 381 638 381 638 371.5 611 c 128,-1,42
 362 584 362 584 356 556 c 2,43,-1
 324 405 l 1,44,-1
 437 405 l 1,45,-1
 427 360 l 1,46,-1
 314 360 l 1,47,-1
 281 205 l 2,48,49
 273 169 273 169 262 143.5 c 128,-1,50
 251 118 251 118 236 99 c 128,-1,51
 221 80 221 80 203 67 c 128,-1,52
 185 54 185 54 166 44 c 1,53,-1
 342 42 l 1,54,55
 443 42 443 42 501 82.5 c 128,-1,56
 559 123 559 123 581 198 c 1,0,1
EndSplineSet
EndChar

StartChar: section
Encoding: 167 167 94
Width: 556
Flags: W
LayerCount: 2
Fore
SplineSet
382 84 m 1,0,1
 402 76 402 76 421.5 64.5 c 128,-1,2
 441 53 441 53 454 35 c 128,-1,3
 467 17 467 17 473 -7 c 128,-1,4
 479 -31 479 -31 472 -62 c 0,5,6
 464 -99 464 -99 443.5 -127 c 128,-1,7
 423 -155 423 -155 391.5 -174 c 128,-1,8
 360 -193 360 -193 320.5 -203 c 128,-1,9
 281 -213 281 -213 235 -213 c 0,10,11
 198 -213 198 -213 167.5 -206.5 c 128,-1,12
 137 -200 137 -200 113 -191 c 128,-1,13
 89 -182 89 -182 71.5 -172 c 128,-1,14
 54 -162 54 -162 43 -156 c 1,15,-1
 58 -89 l 1,16,17
 96 -118 96 -118 144.5 -140.5 c 128,-1,18
 193 -163 193 -163 246 -163 c 0,19,20
 275 -163 275 -163 301 -159 c 128,-1,21
 327 -155 327 -155 348 -144 c 128,-1,22
 369 -133 369 -133 384 -113.5 c 128,-1,23
 399 -94 399 -94 405 -62 c 0,24,25
 410 -38 410 -38 400 -14 c 128,-1,26
 390 10 390 10 368 29 c 128,-1,27
 346 48 346 48 314.5 59.5 c 128,-1,28
 283 71 283 71 245 71 c 0,29,30
 201 71 201 71 171.5 86 c 128,-1,31
 142 101 142 101 125.5 127.5 c 128,-1,32
 109 154 109 154 106 189.5 c 128,-1,33
 103 225 103 225 112 267 c 0,34,35
 117 290 117 290 129.5 318.5 c 128,-1,36
 142 347 142 347 164.5 374.5 c 128,-1,37
 187 402 187 402 221.5 426.5 c 128,-1,38
 256 451 256 451 306 466 c 1,39,40
 266 494 266 494 253 527.5 c 128,-1,41
 240 561 240 561 252 619 c 0,42,43
 256 638 256 638 267 660 c 128,-1,44
 278 682 278 682 302 701 c 128,-1,45
 326 720 326 720 363.5 732.5 c 128,-1,46
 401 745 401 745 458 745 c 0,47,48
 494 745 494 745 524 740 c 128,-1,49
 554 735 554 735 577 727.5 c 128,-1,50
 600 720 600 720 616 712 c 128,-1,51
 632 704 632 704 641 699 c 1,52,-1
 631 650 l 1,53,54
 577 679 577 679 527 690.5 c 128,-1,55
 477 702 477 702 449 702 c 0,56,57
 429 702 429 702 408 699 c 128,-1,58
 387 696 387 696 370 687 c 128,-1,59
 353 678 353 678 339.5 660.5 c 128,-1,60
 326 643 326 643 320 614 c 0,61,62
 315 589 315 589 318.5 565 c 128,-1,63
 322 541 322 541 338 521 c 128,-1,64
 354 501 354 501 383.5 485 c 128,-1,65
 413 469 413 469 459 459 c 0,66,67
 491 452 491 452 517 439.5 c 128,-1,68
 543 427 543 427 559.5 404.5 c 128,-1,69
 576 382 576 382 581 348.5 c 128,-1,70
 586 315 586 315 576 267 c 0,71,72
 571 243 571 243 557.5 214.5 c 128,-1,73
 544 186 544 186 520.5 159.5 c 128,-1,74
 497 133 497 133 462.5 112.5 c 128,-1,75
 428 92 428 92 382 84 c 1,0,1
324 419 m 0,76,77
 303 419 303 419 280.5 408 c 128,-1,78
 258 397 258 397 238.5 378.5 c 128,-1,79
 219 360 219 360 204.5 336.5 c 128,-1,80
 190 313 190 313 185 288 c 0,81,82
 174 239 174 239 172 206 c 128,-1,83
 170 173 170 173 185.5 152.5 c 128,-1,84
 201 132 201 132 237 123.5 c 128,-1,85
 273 115 273 115 339 115 c 0,86,87
 365 115 365 115 391.5 125.5 c 128,-1,88
 418 136 418 136 441 156 c 128,-1,89
 464 176 464 176 481.5 204 c 128,-1,90
 499 232 499 232 506 267 c 0,91,92
 517 319 517 319 510 349 c 128,-1,93
 503 379 503 379 479 394 c 128,-1,94
 455 409 455 409 416 413 c 128,-1,95
 377 417 377 417 324 419 c 0,76,77
EndSplineSet
EndChar

StartChar: bullet
Encoding: 8226 8226 95
Width: 500
Flags: W
LayerCount: 2
Fore
SplineSet
78 364 m 0,0,1
 78 401 78 401 92 434 c 128,-1,2
 106 467 106 467 131 492 c 128,-1,3
 156 517 156 517 188.5 531 c 128,-1,4
 221 545 221 545 259 545 c 0,5,6
 296 545 296 545 329 531 c 128,-1,7
 362 517 362 517 387 492 c 128,-1,8
 412 467 412 467 426 434 c 128,-1,9
 440 401 440 401 440 364 c 0,10,11
 440 326 440 326 426 293.5 c 128,-1,12
 412 261 412 261 387 236 c 128,-1,13
 362 211 362 211 329 197 c 128,-1,14
 296 183 296 183 259 183 c 0,15,16
 221 183 221 183 188.5 197 c 128,-1,17
 156 211 156 211 131 236 c 128,-1,18
 106 261 106 261 92 293.5 c 128,-1,19
 78 326 78 326 78 364 c 0,0,1
EndSplineSet
EndChar

StartChar: germandbls
Encoding: 223 223 96
Width: 572
Flags: W
LayerCount: 2
Fore
SplineSet
484 205 m 0,0,1
 490 232 490 232 489.5 257 c 128,-1,2
 489 282 489 282 476.5 303.5 c 128,-1,3
 464 325 464 325 434 343 c 128,-1,4
 404 361 404 361 350 373 c 1,5,-1
 361 425 l 1,6,7
 440 429 440 429 486 461 c 128,-1,8
 532 493 532 493 548 565 c 0,9,10
 556 604 556 604 549 630 c 128,-1,11
 542 656 542 656 524.5 671.5 c 128,-1,12
 507 687 507 687 481 693.5 c 128,-1,13
 455 700 455 700 427 700 c 0,14,15
 384 700 384 700 356.5 689 c 128,-1,16
 329 678 329 678 309.5 653.5 c 128,-1,17
 290 629 290 629 277.5 590.5 c 128,-1,18
 265 552 265 552 253 498 c 2,19,-1
 148 0 l 1,20,-1
 77 0 l 1,21,-1
 172 450 l 2,22,23
 186 513 186 513 201.5 568 c 128,-1,24
 217 623 217 623 245 664 c 128,-1,25
 273 705 273 705 318.5 728.5 c 128,-1,26
 364 752 364 752 438 752 c 0,27,28
 468 752 468 752 502.5 744.5 c 128,-1,29
 537 737 537 737 564 716.5 c 128,-1,30
 591 696 591 696 604.5 659.5 c 128,-1,31
 618 623 618 623 605 564 c 0,32,33
 600 538 600 538 587 512.5 c 128,-1,34
 574 487 574 487 552.5 465 c 128,-1,35
 531 443 531 443 498 426 c 128,-1,36
 465 409 465 409 421 400 c 1,37,38
 455 391 455 391 484.5 375.5 c 128,-1,39
 514 360 514 360 534.5 336.5 c 128,-1,40
 555 313 555 313 563 280 c 128,-1,41
 571 247 571 247 562 203 c 0,42,43
 547 132 547 132 515 90 c 128,-1,44
 483 48 483 48 442 26.5 c 128,-1,45
 401 5 401 5 354.5 -1.5 c 128,-1,46
 308 -8 308 -8 265 -8 c 1,47,-1
 275 39 l 1,48,49
 361 47 361 47 414.5 88.5 c 128,-1,50
 468 130 468 130 484 205 c 0,0,1
EndSplineSet
EndChar

StartChar: acute
Encoding: 180 180 97
Width: 222
Flags: W
LayerCount: 2
Fore
SplineSet
389 742 m 1,0,-1
 264 614 l 1,1,-1
 203 614 l 1,2,-1
 287 742 l 1,3,-1
 389 742 l 1,0,-1
EndSplineSet
EndChar

StartChar: dieresis
Encoding: 168 168 98
Width: 222
Flags: W
LayerCount: 2
Fore
SplineSet
404 707 m 1,0,-1
 383 609 l 1,1,-1
 299 609 l 1,2,-1
 320 707 l 1,3,-1
 404 707 l 1,0,-1
206 707 m 1,4,-1
 185 609 l 1,5,-1
 102 609 l 1,6,-1
 123 707 l 1,7,-1
 206 707 l 1,4,-1
404 707 m 1,8,-1
 383 609 l 1,9,-1
 299 609 l 1,10,-1
 320 707 l 1,11,-1
 404 707 l 1,8,-1
206 707 m 1,12,-1
 185 609 l 1,13,-1
 102 609 l 1,14,-1
 123 707 l 1,15,-1
 206 707 l 1,12,-1
EndSplineSet
EndChar

StartChar: AE
Encoding: 198 198 99
Width: 1041
Flags: W
LayerCount: 2
Fore
SplineSet
413 315 m 1,0,-1
 671 315 l 1,1,-1
 749 672 l 1,2,-1
 413 315 l 1,0,-1
738 714 m 1,3,-1
 1170 714 l 1,4,-1
 1161 672 l 1,5,-1
 815 672 l 1,6,7
 800 601 800 601 790 554 c 128,-1,8
 780 507 780 507 774 475 c 128,-1,9
 768 443 768 443 763.5 422.5 c 128,-1,10
 759 402 759 402 755 385 c 1,11,-1
 1011 385 l 1,12,-1
 1002 342 l 1,13,-1
 746 342 l 1,14,-1
 685 43 l 1,15,-1
 1053 43 l 1,16,-1
 1044 0 l 1,17,-1
 605 0 l 1,18,-1
 663 273 l 1,19,-1
 382 273 l 1,20,-1
 118 1 l 1,21,-1
 62 1 l 1,22,-1
 738 714 l 1,3,-1
EndSplineSet
EndChar

StartChar: ae
Encoding: 230 230 100
Width: 826
Flags: W
LayerCount: 2
Fore
SplineSet
339 491 m 0,0,1
 308 491 308 491 281 482.5 c 128,-1,2
 254 474 254 474 232.5 461 c 128,-1,3
 211 448 211 448 194.5 434 c 128,-1,4
 178 420 178 420 166 409 c 1,5,-1
 156 419 l 2,6,7
 148 427 148 427 143 432.5 c 128,-1,8
 138 438 138 438 131 444 c 1,9,10
 187 496 187 496 243.5 514 c 128,-1,11
 300 532 300 532 348 532 c 0,12,13
 412 532 412 532 456 508 c 128,-1,14
 500 484 500 484 528 441 c 1,15,16
 630 532 630 532 742 532 c 0,17,18
 789 532 789 532 824 518.5 c 128,-1,19
 859 505 859 505 880 476 c 128,-1,20
 901 447 901 447 905.5 401.5 c 128,-1,21
 910 356 910 356 897 292 c 1,22,-1
 529 292 l 1,23,24
 518 241 518 241 510.5 192.5 c 128,-1,25
 503 144 503 144 510.5 107 c 128,-1,26
 518 70 518 70 546.5 47.5 c 128,-1,27
 575 25 575 25 635 25 c 0,28,29
 665 25 665 25 691 33.5 c 128,-1,30
 717 42 717 42 739 54.5 c 128,-1,31
 761 67 761 67 778 81.5 c 128,-1,32
 795 96 795 96 805 107 c 1,33,34
 817 97 817 97 823.5 89.5 c 128,-1,35
 830 82 830 82 841 72 c 1,36,37
 812 43 812 43 784 26 c 128,-1,38
 756 9 756 9 728.5 -0.5 c 128,-1,39
 701 -10 701 -10 675.5 -13 c 128,-1,40
 650 -16 650 -16 626 -16 c 0,41,42
 559 -16 559 -16 516 7.5 c 128,-1,43
 473 31 473 31 442 74 c 1,44,45
 342 -16 342 -16 232 -16 c 0,46,47
 185 -16 185 -16 150 -2.5 c 128,-1,48
 115 11 115 11 94 40.5 c 128,-1,49
 73 70 73 70 68.5 115.5 c 128,-1,50
 64 161 64 161 77 224 c 1,51,-1
 445 224 l 1,52,53
 456 275 456 275 463.5 323.5 c 128,-1,54
 471 372 471 372 463 409 c 128,-1,55
 455 446 455 446 427 468.5 c 128,-1,56
 399 491 399 491 339 491 c 0,0,1
847 333 m 1,57,58
 850 355 850 355 846.5 382 c 128,-1,59
 843 409 843 409 830 432 c 128,-1,60
 817 455 817 455 793.5 470.5 c 128,-1,61
 770 486 770 486 732 486 c 0,62,63
 688 486 688 486 656.5 472 c 128,-1,64
 625 458 625 458 602.5 436 c 128,-1,65
 580 414 580 414 566.5 387 c 128,-1,66
 553 360 553 360 545 333 c 1,67,-1
 847 333 l 1,57,58
127 183 m 1,68,69
 124 160 124 160 127 133.5 c 128,-1,70
 130 107 130 107 142 84 c 128,-1,71
 154 61 154 61 178.5 45.5 c 128,-1,72
 203 30 203 30 242 30 c 0,73,74
 286 30 286 30 317.5 44 c 128,-1,75
 349 58 349 58 370.5 80 c 128,-1,76
 392 102 392 102 406 129 c 128,-1,77
 420 156 420 156 427 183 c 1,78,-1
 127 183 l 1,68,69
EndSplineSet
EndChar

StartChar: questiondown
Encoding: 191 191 101
Width: 562
Flags: W
LayerCount: 2
Fore
SplineSet
222 118 m 0,0,1
 246 134 246 134 270.5 151.5 c 128,-1,2
 295 169 295 169 316.5 189.5 c 128,-1,3
 338 210 338 210 355.5 235.5 c 128,-1,4
 373 261 373 261 383 293 c 1,5,-1
 421 293 l 1,6,7
 409 252 409 252 391 221.5 c 128,-1,8
 373 191 373 191 352.5 167 c 128,-1,9
 332 143 332 143 309 125.5 c 128,-1,10
 286 108 286 108 265 94 c 0,11,12
 244 79 244 79 224 64 c 128,-1,13
 204 49 204 49 187.5 31 c 128,-1,14
 171 13 171 13 158.5 -9 c 128,-1,15
 146 -31 146 -31 140 -59 c 0,16,17
 128 -114 128 -114 162.5 -149 c 128,-1,18
 197 -184 197 -184 290 -184 c 0,19,20
 320 -184 320 -184 349 -179 c 128,-1,21
 378 -174 378 -174 404.5 -166.5 c 128,-1,22
 431 -159 431 -159 453.5 -150 c 128,-1,23
 476 -141 476 -141 492 -134 c 1,24,-1
 478 -202 l 1,25,26
 453 -210 453 -210 430.5 -216 c 128,-1,27
 408 -222 408 -222 385.5 -226 c 128,-1,28
 363 -230 363 -230 337 -232.5 c 128,-1,29
 311 -235 311 -235 280 -235 c 0,30,31
 226 -235 226 -235 182.5 -225 c 128,-1,32
 139 -215 139 -215 110 -194 c 128,-1,33
 81 -173 81 -173 69 -139.5 c 128,-1,34
 57 -106 57 -106 67 -59 c 0,35,36
 74 -28 74 -28 88 -3.5 c 128,-1,37
 102 21 102 21 122 41.5 c 128,-1,38
 142 62 142 62 167 80 c 128,-1,39
 192 98 192 98 222 118 c 0,0,1
469 433 m 1,40,-1
 385 433 l 1,41,-1
 402 517 l 1,42,-1
 486 517 l 1,43,-1
 469 433 l 1,40,-1
EndSplineSet
EndChar

StartChar: exclamdown
Encoding: 161 161 102
Width: 264
Flags: W
LayerCount: 2
Fore
SplineSet
271 431 m 1,0,-1
 187 431 l 1,1,-1
 205 515 l 1,2,-1
 289 515 l 1,3,-1
 271 431 l 1,0,-1
192 290 m 1,4,-1
 213 290 l 1,5,-1
 176 -4 l 1,6,-1
 130 -217 l 1,7,-1
 59 -217 l 1,8,-1
 105 -4 l 1,9,-1
 192 290 l 1,4,-1
EndSplineSet
EndChar

StartChar: guillemotleft
Encoding: 171 171 103
Width: 562
Flags: W
LayerCount: 2
Fore
SplineSet
124 282 m 0,0,1
 127 294 127 294 141 302 c 2,2,-1
 336 423 l 1,3,4
 333 409 333 409 329.5 396 c 128,-1,5
 326 383 326 383 315 378 c 1,6,-1
 159 282 l 1,7,8
 167 275 167 275 184 260.5 c 128,-1,9
 201 246 201 246 218.5 231 c 128,-1,10
 236 216 236 216 251 204 c 128,-1,11
 266 192 266 192 271 189 c 0,12,13
 282 180 282 180 280.5 166 c 128,-1,14
 279 152 279 152 276 140 c 1,15,-1
 133 262 l 1,16,17
 122 270 122 270 124 282 c 0,0,1
374 282 m 0,18,19
 377 294 377 294 391 302 c 2,20,-1
 586 423 l 1,21,22
 583 409 583 409 579.5 396 c 128,-1,23
 576 383 576 383 565 378 c 1,24,-1
 409 282 l 1,25,26
 417 275 417 275 434 260.5 c 128,-1,27
 451 246 451 246 468.5 231 c 128,-1,28
 486 216 486 216 501 204 c 128,-1,29
 516 192 516 192 521 189 c 0,30,31
 532 180 532 180 530.5 166 c 128,-1,32
 529 152 529 152 526 140 c 1,33,-1
 383 262 l 1,34,35
 372 270 372 270 374 282 c 0,18,19
EndSplineSet
EndChar

StartChar: guillemotright
Encoding: 187 187 104
Width: 555
Flags: W
LayerCount: 2
Fore
SplineSet
571 282 m 0,0,1
 569 270 569 270 554 262 c 1,2,-1
 359 140 l 1,3,4
 362 152 362 152 366.5 166 c 128,-1,5
 371 180 371 180 386 189 c 0,6,7
 391 192 391 192 411 204 c 128,-1,8
 431 216 431 216 455.5 231 c 128,-1,9
 480 246 480 246 503 260.5 c 128,-1,10
 526 275 526 275 536 282 c 1,11,-1
 422 378 l 1,12,13
 413 383 413 383 414.5 396 c 128,-1,14
 416 409 416 409 419 423 c 1,15,-1
 564 302 l 2,16,17
 574 294 574 294 571 282 c 0,0,1
321 282 m 0,18,19
 319 270 319 270 304 262 c 1,20,-1
 109 140 l 1,21,22
 112 152 112 152 116.5 166 c 128,-1,23
 121 180 121 180 136 189 c 0,24,25
 141 192 141 192 161 204 c 128,-1,26
 181 216 181 216 205.5 231 c 128,-1,27
 230 246 230 246 253 260.5 c 128,-1,28
 276 275 276 275 286 282 c 1,29,-1
 172 378 l 1,30,31
 163 383 163 383 164.5 396 c 128,-1,32
 166 409 166 409 169 423 c 1,33,-1
 314 302 l 2,34,35
 324 294 324 294 321 282 c 0,18,19
EndSplineSet
EndChar

StartChar: endash
Encoding: 8211 8211 105
Width: 500
Flags: W
LayerCount: 2
Fore
SplineSet
575 304 m 1,0,-1
 564 253 l 1,1,-1
 65 253 l 1,2,-1
 76 304 l 1,3,-1
 575 304 l 1,0,-1
EndSplineSet
EndChar

StartChar: emdash
Encoding: 8212 8212 106
Width: 1000
Flags: W
LayerCount: 2
Fore
SplineSet
207 304 m 1,0,-1
 966 304 l 1,1,-1
 955 253 l 1,2,-1
 196 253 l 1,3,-1
 207 304 l 1,0,-1
EndSplineSet
EndChar

StartChar: quotedblleft
Encoding: 8220 8220 107
Width: 440
Flags: W
LayerCount: 2
Fore
SplineSet
328 683 m 1,0,1
 300 679 300 679 281.5 665.5 c 128,-1,2
 263 652 263 652 251.5 631.5 c 128,-1,3
 240 611 240 611 233.5 585.5 c 128,-1,4
 227 560 227 560 221 533 c 1,5,-1
 283 533 l 1,6,-1
 265 448 l 1,7,-1
 178 448 l 1,8,9
 180 504 180 504 189 548 c 0,10,11
 199 593 199 593 215 624.5 c 128,-1,12
 231 656 231 656 250.5 676 c 128,-1,13
 270 696 270 696 292.5 706.5 c 128,-1,14
 315 717 315 717 336 721 c 1,15,-1
 328 683 l 1,0,1
490 533 m 1,16,-1
 472 448 l 1,17,-1
 385 448 l 1,18,19
 388 477 388 477 391 501.5 c 128,-1,20
 394 526 394 526 399 548 c 0,21,22
 409 594 409 594 424.5 625 c 128,-1,23
 440 656 440 656 459.5 676.5 c 128,-1,24
 479 697 479 697 500.5 707 c 128,-1,25
 522 717 522 717 544 721 c 1,26,-1
 536 683 l 1,27,28
 508 679 508 679 490.5 665.5 c 128,-1,29
 473 652 473 652 461 631.5 c 128,-1,30
 449 611 449 611 442.5 585.5 c 128,-1,31
 436 560 436 560 430 533 c 1,32,-1
 490 533 l 1,16,-1
EndSplineSet
EndChar

StartChar: quotedblright
Encoding: 8221 8221 108
Width: 444
Flags: W
LayerCount: 2
Fore
SplineSet
443 722 m 1,0,-1
 531 722 l 1,1,2
 531 692 531 692 527 667.5 c 128,-1,3
 523 643 523 643 518 620 c 0,4,5
 509 575 509 575 493 544 c 128,-1,6
 477 513 477 513 457.5 493 c 128,-1,7
 438 473 438 473 416.5 463 c 128,-1,8
 395 453 395 453 373 449 c 1,9,-1
 381 485 l 1,10,11
 409 488 409 488 427 502 c 128,-1,12
 445 516 445 516 456.5 537 c 128,-1,13
 468 558 468 558 474.5 584 c 128,-1,14
 481 610 481 610 487 637 c 1,15,-1
 425 637 l 1,16,-1
 443 722 l 1,0,-1
237 722 m 1,17,-1
 324 722 l 1,18,19
 321 693 321 693 318 667.5 c 128,-1,20
 315 642 315 642 310 620 c 0,21,22
 301 575 301 575 285 544 c 128,-1,23
 269 513 269 513 249 493 c 128,-1,24
 229 473 229 473 207 463 c 128,-1,25
 185 453 185 453 164 449 c 1,26,-1
 172 485 l 1,27,28
 200 488 200 488 218 502 c 128,-1,29
 236 516 236 516 247.5 537 c 128,-1,30
 259 558 259 558 266 584 c 128,-1,31
 273 610 273 610 279 637 c 1,32,-1
 219 637 l 1,33,-1
 237 722 l 1,17,-1
EndSplineSet
EndChar

StartChar: quoteleft
Encoding: 8216 8216 109
Width: 278
Flags: W
LayerCount: 2
Fore
SplineSet
300 533 m 1,0,-1
 282 448 l 1,1,-1
 195 448 l 1,2,3
 196 478 196 478 199 501.5 c 128,-1,4
 202 525 202 525 207 548 c 0,5,6
 217 593 217 593 232.5 625 c 128,-1,7
 248 657 248 657 268 677 c 128,-1,8
 288 697 288 697 309.5 707.5 c 128,-1,9
 331 718 331 718 353 721 c 1,10,-1
 344 682 l 1,11,12
 317 679 317 679 299 665.5 c 128,-1,13
 281 652 281 652 269 631.5 c 128,-1,14
 257 611 257 611 250.5 585.5 c 128,-1,15
 244 560 244 560 238 533 c 1,16,-1
 300 533 l 1,0,-1
EndSplineSet
EndChar

StartChar: quoteright
Encoding: 8217 8217 110
Width: 278
Flags: W
LayerCount: 2
Fore
SplineSet
256 722 m 1,0,-1
 343 722 l 1,1,2
 341 693 341 693 337.5 667.5 c 128,-1,3
 334 642 334 642 329 620 c 0,4,5
 320 575 320 575 304 544 c 128,-1,6
 288 513 288 513 268 493 c 128,-1,7
 248 473 248 473 226.5 463 c 128,-1,8
 205 453 205 453 184 449 c 1,9,-1
 192 485 l 1,10,11
 220 488 220 488 238 502 c 128,-1,12
 256 516 256 516 267.5 537 c 128,-1,13
 279 558 279 558 285.5 584 c 128,-1,14
 292 610 292 610 298 637 c 1,15,-1
 238 637 l 1,16,-1
 256 722 l 1,0,-1
EndSplineSet
EndChar

StartChar: Euro
Encoding: 8364 8364 111
Width: 615
Flags: W
LayerCount: 2
Fore
SplineSet
216 481 m 1,0,1
 332 769 332 769 565 769 c 0,2,3
 620 769 620 769 667 757.5 c 128,-1,4
 714 746 714 746 753 734 c 1,5,-1
 739 672 l 1,6,7
 699 692 699 692 653 708.5 c 128,-1,8
 607 725 607 725 556 725 c 0,9,10
 531 725 531 725 500 718 c 128,-1,11
 469 711 469 711 434.5 686.5 c 128,-1,12
 400 662 400 662 365 613.5 c 128,-1,13
 330 565 330 565 297 481 c 1,14,-1
 548 481 l 1,15,-1
 536 460 l 1,16,-1
 292 460 l 1,17,18
 286 434 286 434 281 415.5 c 128,-1,19
 276 397 276 397 272 379 c 128,-1,20
 268 361 268 361 265.5 341 c 128,-1,21
 263 321 263 321 260 293 c 1,22,-1
 453 293 l 1,23,24
 451 287 451 287 448.5 281.5 c 128,-1,25
 446 276 446 276 443 271 c 1,26,-1
 256 271 l 1,27,28
 258 215 258 215 269.5 177.5 c 128,-1,29
 281 140 281 140 297.5 116 c 128,-1,30
 314 92 314 92 333 79 c 128,-1,31
 352 66 352 66 368.5 60 c 128,-1,32
 385 54 385 54 397.5 53.5 c 128,-1,33
 410 53 410 53 413 53 c 0,34,35
 478 53 478 53 531.5 75.5 c 128,-1,36
 585 98 585 98 632 130 c 1,37,-1
 617 60 l 1,38,39
 602 51 602 51 580.5 40.5 c 128,-1,40
 559 30 559 30 531.5 21 c 128,-1,41
 504 12 504 12 471.5 6 c 128,-1,42
 439 0 439 0 402 0 c 0,43,44
 351 0 351 0 309 18.5 c 128,-1,45
 267 37 267 37 237 72 c 128,-1,46
 207 107 207 107 189.5 157 c 128,-1,47
 172 207 172 207 170 271 c 1,48,-1
 97 271 l 1,49,-1
 115 293 l 1,50,-1
 174 293 l 1,51,52
 181 338 181 338 189 378.5 c 128,-1,53
 197 419 197 419 210 460 c 1,54,-1
 137 460 l 1,55,-1
 155 481 l 1,56,-1
 216 481 l 1,0,1
EndSplineSet
EndChar

StartChar: guilsinglleft
Encoding: 8249 8249 112
Width: 306
Flags: W
LayerCount: 2
Fore
SplineSet
130 282 m 0,0,1
 133 294 133 294 147 302 c 2,2,-1
 342 423 l 1,3,4
 339 409 339 409 335.5 396 c 128,-1,5
 332 383 332 383 321 378 c 1,6,-1
 165 282 l 1,7,8
 173 275 173 275 190 260.5 c 128,-1,9
 207 246 207 246 224.5 231 c 128,-1,10
 242 216 242 216 257 204 c 128,-1,11
 272 192 272 192 277 189 c 0,12,13
 288 180 288 180 286.5 166 c 128,-1,14
 285 152 285 152 282 140 c 1,15,-1
 139 262 l 1,16,17
 128 270 128 270 130 282 c 0,0,1
EndSplineSet
EndChar

StartChar: guilsinglright
Encoding: 8250 8250 113
Width: 311
Flags: W
LayerCount: 2
Fore
SplineSet
316 282 m 0,0,1
 314 270 314 270 299 262 c 1,2,-1
 104 140 l 1,3,4
 107 152 107 152 111.5 166 c 128,-1,5
 116 180 116 180 131 189 c 0,6,7
 136 192 136 192 156 204 c 128,-1,8
 176 216 176 216 200.5 231 c 128,-1,9
 225 246 225 246 248 260.5 c 128,-1,10
 271 275 271 275 281 282 c 1,11,-1
 167 378 l 1,12,13
 158 383 158 383 159.5 396 c 128,-1,14
 161 409 161 409 164 423 c 1,15,-1
 309 302 l 2,16,17
 319 294 319 294 316 282 c 0,0,1
EndSplineSet
EndChar

StartChar: fi
Encoding: 64257 64257 114
Width: 606
Flags: W
LayerCount: 2
Fore
SplineSet
664 518 m 1,0,-1
 554 0 l 1,1,-1
 483 0 l 1,2,-1
 583 475 l 1,3,-1
 266 475 l 1,4,-1
 166 0 l 1,5,-1
 101 0 l 1,6,-1
 201 475 l 1,7,-1
 122 475 l 1,8,-1
 132 518 l 1,9,-1
 211 518 l 1,10,-1
 230 610 l 2,11,12
 242 664 242 664 265 703.5 c 128,-1,13
 288 743 288 743 320 769 c 128,-1,14
 352 795 352 795 390 807.5 c 128,-1,15
 428 820 428 820 467 820 c 0,16,17
 501 820 501 820 525.5 816 c 128,-1,18
 550 812 550 812 568 805.5 c 128,-1,19
 586 799 586 799 601 790 c 128,-1,20
 616 781 616 781 630 772 c 1,21,-1
 637 805 l 1,22,-1
 725 805 l 1,23,-1
 706 716 l 1,24,-1
 604 716 l 1,25,26
 592 726 592 726 575 737 c 128,-1,27
 558 748 558 748 540 757 c 128,-1,28
 522 766 522 766 502.5 772 c 128,-1,29
 483 778 483 778 465 778 c 0,30,31
 426 778 426 778 396.5 761 c 128,-1,32
 367 744 367 744 346 718.5 c 128,-1,33
 325 693 325 693 312 663 c 128,-1,34
 299 633 299 633 293 606 c 2,35,-1
 275 518 l 1,36,-1
 664 518 l 1,0,-1
EndSplineSet
Ligature2: "'liga' Standard Ligatures in Latin lookup 0 subtable" f i
EndChar

StartChar: fl
Encoding: 64258 64258 115
Width: 602
Flags: W
LayerCount: 2
Fore
SplineSet
479 1 m 1,0,-1
 613 634 l 2,1,2
 629 706 629 706 593 738.5 c 128,-1,3
 557 771 557 771 463 771 c 1,4,5
 423 770 423 770 396.5 757 c 128,-1,6
 370 744 370 744 351.5 722 c 128,-1,7
 333 700 333 700 322.5 670.5 c 128,-1,8
 312 641 312 641 305 607 c 2,9,-1
 286 518 l 1,10,-1
 413 518 l 1,11,-1
 403 474 l 1,12,-1
 276 474 l 1,13,-1
 176 0 l 1,14,-1
 110 0 l 1,15,-1
 210 474 l 1,16,-1
 120 474 l 1,17,-1
 130 518 l 1,18,-1
 220 518 l 1,19,-1
 239 607 l 2,20,21
 252 671 252 671 275 713 c 128,-1,22
 298 755 298 755 328 779.5 c 128,-1,23
 358 804 358 804 395 813.5 c 128,-1,24
 432 823 432 823 474 823 c 0,25,26
 517 823 517 823 560 815.5 c 128,-1,27
 603 808 603 808 635 787.5 c 128,-1,28
 667 767 667 767 682 730 c 128,-1,29
 697 693 697 693 684 634 c 2,30,-1
 550 1 l 1,31,-1
 479 1 l 1,0,-1
EndSplineSet
Ligature2: "'liga' Standard Ligatures in Latin lookup 0 subtable" f l
EndChar

StartChar: dotlessi
Encoding: 305 305 116
Width: 241
Flags: W
LayerCount: 2
Fore
SplineSet
202 518 m 1,0,-1
 270 518 l 1,1,-1
 160 0 l 1,2,-1
 92 0 l 1,3,-1
 202 518 l 1,0,-1
EndSplineSet
EndChar

StartChar: circumflex
Encoding: 710 710 117
Width: 240
Flags: W
LayerCount: 2
Fore
SplineSet
275 728 m 1,0,-1
 174 625 l 1,1,-1
 131 625 l 1,2,-1
 262 754 l 1,3,-1
 301 754 l 1,4,-1
 376 625 l 1,5,-1
 333 625 l 1,6,-1
 275 728 l 1,0,-1
EndSplineSet
EndChar

StartChar: tilde
Encoding: 732 732 118
Width: 222
Flags: W
LayerCount: 2
Fore
SplineSet
131 705 m 1,0,1
 137 711 137 711 151 718 c 128,-1,2
 165 725 165 725 193 725 c 0,3,4
 213 725 213 725 231.5 720.5 c 128,-1,5
 250 716 250 716 268.5 711 c 128,-1,6
 287 706 287 706 306 701.5 c 128,-1,7
 325 697 325 697 346 697 c 0,8,9
 366 697 366 697 382 699.5 c 128,-1,10
 398 702 398 702 411 707 c 1,11,-1
 403 669 l 1,12,13
 370 646 370 646 336 646 c 0,14,15
 313 646 313 646 294.5 650 c 128,-1,16
 276 654 276 654 258 659 c 128,-1,17
 240 664 240 664 220.5 668 c 128,-1,18
 201 672 201 672 179 672 c 0,19,20
 150 672 150 672 123 662 c 1,21,-1
 131 705 l 1,0,1
EndSplineSet
EndChar

StartChar: cedilla
Encoding: 184 184 119
Width: 245
Flags: W
LayerCount: 2
Fore
SplineSet
89 -90 m 0,0,1
 80 -90 80 -90 70.5 -91.5 c 128,-1,2
 61 -93 61 -93 51 -95 c 1,3,4
 55 -92 55 -92 62.5 -82 c 128,-1,5
 70 -72 70 -72 80 -58 c 128,-1,6
 90 -44 90 -44 101 -28 c 128,-1,7
 112 -12 112 -12 123 2 c 1,8,-1
 130 2 l 1,9,-1
 72 -78 l 1,10,11
 106 -75 106 -75 127 -80.5 c 128,-1,12
 148 -86 148 -86 159 -97.5 c 128,-1,13
 170 -109 170 -109 173 -123.5 c 128,-1,14
 176 -138 176 -138 173 -151 c 0,15,16
 166 -185 166 -185 140.5 -202.5 c 128,-1,17
 115 -220 115 -220 77 -224 c 1,18,19
 58 -224 58 -224 43.5 -222.5 c 128,-1,20
 29 -221 29 -221 15 -216 c 1,21,-1
 19 -196 l 1,22,23
 42 -206 42 -206 65 -206 c 0,24,25
 72 -206 72 -206 82.5 -204.5 c 128,-1,26
 93 -203 93 -203 104 -197.5 c 128,-1,27
 115 -192 115 -192 124 -181 c 128,-1,28
 133 -170 133 -170 137 -151 c 0,29,30
 150 -90 150 -90 89 -90 c 0,0,1
EndSplineSet
EndChar

StartChar: twosuperior
Encoding: 178 178 120
Width: 348
Flags: W
LayerCount: 2
Fore
SplineSet
386 311 m 1,0,-1
 383 300 l 1,1,-1
 102 300 l 1,2,3
 114 339 114 339 133.5 370 c 128,-1,4
 153 401 153 401 178.5 425 c 128,-1,5
 204 449 204 449 235.5 468 c 128,-1,6
 267 487 267 487 303 502 c 1,7,8
 353 525 353 525 380.5 555.5 c 128,-1,9
 408 586 408 586 415 618 c 0,10,11
 419 637 419 637 417 654.5 c 128,-1,12
 415 672 415 672 405.5 685.5 c 128,-1,13
 396 699 396 699 376 707 c 128,-1,14
 356 715 356 715 325 715 c 0,15,16
 286 715 286 715 259.5 699.5 c 128,-1,17
 233 684 233 684 219 671 c 1,18,19
 217 672 217 672 212 675 c 128,-1,20
 207 678 207 678 203 681 c 1,21,22
 229 701 229 701 260 713.5 c 128,-1,23
 291 726 291 726 329 726 c 0,24,25
 363 726 363 726 386 717.5 c 128,-1,26
 409 709 409 709 422 694 c 128,-1,27
 435 679 435 679 438.5 659.5 c 128,-1,28
 442 640 442 640 437 618 c 0,29,30
 428 577 428 577 396.5 543.5 c 128,-1,31
 365 510 365 510 306 484 c 0,32,33
 275 470 275 470 248 454.5 c 128,-1,34
 221 439 221 439 198.5 419 c 128,-1,35
 176 399 176 399 160.5 372.5 c 128,-1,36
 145 346 145 346 138 311 c 1,37,-1
 386 311 l 1,0,-1
EndSplineSet
EndChar

StartChar: threesuperior
Encoding: 179 179 121
Width: 341
Flags: W
LayerCount: 2
Fore
SplineSet
325 713 m 0,0,1
 285 713 285 713 245.5 700 c 128,-1,2
 206 687 206 687 178 676 c 1,3,-1
 181 690 l 1,4,5
 208 702 208 702 245 714.5 c 128,-1,6
 282 727 282 727 328 727 c 0,7,8
 353 727 353 727 376 722 c 128,-1,9
 399 717 399 717 415 705 c 128,-1,10
 431 693 431 693 438 673.5 c 128,-1,11
 445 654 445 654 439 626 c 0,12,13
 429 581 429 581 399 558 c 128,-1,14
 369 535 369 535 335 526 c 1,15,16
 351 523 351 523 369 517 c 128,-1,17
 387 511 387 511 401 499 c 128,-1,18
 415 487 415 487 422.5 467.5 c 128,-1,19
 430 448 430 448 423 418 c 0,20,21
 418 394 418 394 401.5 371.5 c 128,-1,22
 385 349 385 349 358.5 332 c 128,-1,23
 332 315 332 315 298 305 c 128,-1,24
 264 295 264 295 223 295 c 0,25,26
 163 295 163 295 131 301.5 c 128,-1,27
 99 308 99 308 86 313 c 1,28,-1
 90 332 l 1,29,-1
 91 332 l 1,30,31
 121 323 121 323 151.5 317.5 c 128,-1,32
 182 312 182 312 224 312 c 256,33,34
 266 312 266 312 295.5 323 c 128,-1,35
 325 334 325 334 345 350 c 128,-1,36
 365 366 365 366 375.5 384.5 c 128,-1,37
 386 403 386 403 389 418 c 0,38,39
 393 434 393 434 388.5 452 c 128,-1,40
 384 470 384 470 371 485 c 128,-1,41
 358 500 358 500 335.5 510 c 128,-1,42
 313 520 313 520 280 520 c 2,43,-1
 238 520 l 1,44,-1
 241 533 l 1,45,-1
 283 533 l 2,46,47
 314 533 314 533 336.5 540.5 c 128,-1,48
 359 548 359 548 374 560.5 c 128,-1,49
 389 573 389 573 398 590 c 128,-1,50
 407 607 407 607 411 626 c 0,51,52
 414 642 414 642 412 657.5 c 128,-1,53
 410 673 410 673 400 685.5 c 128,-1,54
 390 698 390 698 371.5 705.5 c 128,-1,55
 353 713 353 713 325 713 c 0,0,1
EndSplineSet
EndChar

StartChar: G
Encoding: 71 71 122
Width: 794
Flags: W
LayerCount: 2
Fore
SplineSet
805 301 m 1,0,-1
 750 38 l 1,1,2
 724 30 724 30 687 20 c 128,-1,3
 650 10 650 10 607.5 1 c 128,-1,4
 565 -8 565 -8 519.5 -14 c 128,-1,5
 474 -20 474 -20 431 -20 c 0,6,7
 325 -21 325 -21 257.5 6.5 c 128,-1,8
 190 34 190 34 155.5 84.5 c 128,-1,9
 121 135 121 135 116 205 c 128,-1,10
 111 275 111 275 129 359 c 256,11,12
 147 443 147 443 186.5 512 c 128,-1,13
 226 581 226 581 284 629.5 c 128,-1,14
 342 678 342 678 416.5 705 c 128,-1,15
 491 732 491 732 580 732 c 0,16,17
 629 732 629 732 671.5 728 c 128,-1,18
 714 724 714 724 747 718 c 128,-1,19
 780 712 780 712 802.5 705.5 c 128,-1,20
 825 699 825 699 834 695 c 1,21,-1
 820 628 l 1,22,23
 799 636 799 636 776 646.5 c 128,-1,24
 753 657 753 657 724.5 666 c 128,-1,25
 696 675 696 675 659 681.5 c 128,-1,26
 622 688 622 688 571 688 c 0,27,28
 496 688 496 688 434.5 662 c 128,-1,29
 373 636 373 636 326.5 590.5 c 128,-1,30
 280 545 280 545 249 484 c 128,-1,31
 218 423 218 423 203 353 c 0,32,33
 185 270 185 270 192.5 214 c 128,-1,34
 200 158 200 158 222 122 c 128,-1,35
 244 86 244 86 276.5 67 c 128,-1,36
 309 48 309 48 341.5 40 c 128,-1,37
 374 32 374 32 401.5 31 c 128,-1,38
 429 30 429 30 442 30 c 0,39,40
 514 30 514 30 574.5 43 c 128,-1,41
 635 56 635 56 695 91 c 1,42,-1
 739 301 l 1,43,-1
 805 301 l 1,0,-1
EndSplineSet
EndChar

StartChar: nine
Encoding: 57 57 123
Width: 602
Flags: W
LayerCount: 2
Fore
SplineSet
599 498 m 1,0,1
 606 529 606 529 601 562.5 c 128,-1,2
 596 596 596 596 579 623.5 c 128,-1,3
 562 651 562 651 532.5 669 c 128,-1,4
 503 687 503 687 460 687 c 0,5,6
 398 687 398 687 350.5 660 c 128,-1,7
 303 633 303 633 272 592 c 128,-1,8
 241 551 241 551 228 503.5 c 128,-1,9
 215 456 215 456 224 415 c 128,-1,10
 233 374 233 374 265 347 c 128,-1,11
 297 320 297 320 354 320 c 0,12,13
 392 320 392 320 427.5 335 c 128,-1,14
 463 350 463 350 495 375 c 128,-1,15
 527 400 527 400 553.5 432 c 128,-1,16
 580 464 580 464 599 498 c 1,0,1
88 116 m 1,17,18
 104 105 104 105 125.5 92 c 128,-1,19
 147 79 147 79 173.5 67.5 c 128,-1,20
 200 56 200 56 232 48 c 128,-1,21
 264 40 264 40 299 40 c 0,22,23
 350 40 350 40 391 59.5 c 128,-1,24
 432 79 432 79 463.5 110.5 c 128,-1,25
 495 142 495 142 517.5 183.5 c 128,-1,26
 540 225 540 225 556.5 268.5 c 128,-1,27
 573 312 573 312 583 354.5 c 128,-1,28
 593 397 593 397 598 432 c 1,29,30
 588 414 588 414 565 386.5 c 128,-1,31
 542 359 542 359 508 333.5 c 128,-1,32
 474 308 474 308 432 290 c 128,-1,33
 390 272 390 272 343 272 c 0,34,35
 263 272 263 272 217 305.5 c 128,-1,36
 171 339 171 339 155 390 c 128,-1,37
 139 441 139 441 152.5 499.5 c 128,-1,38
 166 558 166 558 207 609 c 128,-1,39
 248 660 248 660 313.5 693.5 c 128,-1,40
 379 727 379 727 467 727 c 0,41,42
 527 727 527 727 572 709.5 c 128,-1,43
 617 692 617 692 642 650 c 128,-1,44
 667 608 667 608 670.5 537.5 c 128,-1,45
 674 467 674 467 651 361 c 0,46,47
 629 258 629 258 591.5 187 c 128,-1,48
 554 116 554 116 506.5 72.5 c 128,-1,49
 459 29 459 29 403 9.5 c 128,-1,50
 347 -10 347 -10 288 -10 c 0,51,52
 252 -10 252 -10 223 -4 c 128,-1,53
 194 2 194 2 168 11.5 c 128,-1,54
 142 21 142 21 118.5 33 c 128,-1,55
 95 45 95 45 72 58 c 1,56,-1
 88 116 l 1,17,18
EndSplineSet
EndChar

StartChar: ti
Encoding: 65538 -1 124
Width: 547
Flags: W
LayerCount: 2
Fore
SplineSet
548 518 m 1,0,-1
 615 518 l 1,1,-1
 511 12 l 1,2,3
 427 -5 427 -5 379.5 -10 c 128,-1,4
 332 -15 332 -15 312 -15 c 0,5,6
 285 -15 285 -15 252.5 -12 c 128,-1,7
 220 -9 220 -9 193.5 6 c 128,-1,8
 167 21 167 21 153.5 51.5 c 128,-1,9
 140 82 140 82 152 138 c 2,10,-1
 223 475 l 1,11,-1
 123 475 l 1,12,-1
 133 518 l 1,13,-1
 232 518 l 1,14,-1
 284 671 l 1,15,-1
 331 671 l 1,16,-1
 299 518 l 1,17,-1
 432 518 l 1,18,-1
 422 475 l 1,19,-1
 289 475 l 1,20,-1
 218 138 l 2,21,22
 210 100 210 100 224.5 79 c 128,-1,23
 239 58 239 58 262.5 48.5 c 128,-1,24
 286 39 286 39 310.5 37.5 c 128,-1,25
 335 36 335 36 348 36 c 0,26,27
 363 36 363 36 392.5 40.5 c 128,-1,28
 422 45 422 45 449 56 c 1,29,-1
 548 518 l 1,0,-1
572 710 m 1,30,-1
 590 795 l 1,31,-1
 673 795 l 1,32,-1
 655 710 l 1,33,-1
 572 710 l 1,30,-1
EndSplineSet
Ligature2: "'liga' Standard Ligatures in Latin lookup 0 subtable" t i
EndChar

StartChar: th
Encoding: 65539 -1 125
Width: 870
Flags: W
LayerCount: 2
Fore
SplineSet
858 318 m 2,0,1
 865 351 865 351 865.5 381 c 128,-1,2
 866 411 866 411 857.5 433 c 128,-1,3
 849 455 849 455 831.5 468 c 128,-1,4
 814 481 814 481 786 481 c 0,5,6
 743 481 743 481 705.5 468 c 128,-1,7
 668 455 668 455 639 434 c 128,-1,8
 610 413 610 413 591 387.5 c 128,-1,9
 572 362 572 362 567 337 c 2,10,-1
 503 33 l 1,11,12
 479 19 479 19 449.5 9.5 c 128,-1,13
 420 0 420 0 391.5 -5.5 c 128,-1,14
 363 -11 363 -11 340.5 -13 c 128,-1,15
 318 -15 318 -15 307 -15 c 0,16,17
 281 -15 281 -15 248 -10.5 c 128,-1,18
 215 -6 215 -6 188.5 9.5 c 128,-1,19
 162 25 162 25 148 55 c 128,-1,20
 134 85 134 85 144 136 c 2,21,-1
 216 475 l 1,22,-1
 114 475 l 1,23,-1
 124 518 l 1,24,-1
 225 518 l 1,25,-1
 278 671 l 1,26,-1
 323 671 l 1,27,-1
 291 518 l 1,28,-1
 425 518 l 1,29,-1
 415 475 l 1,30,-1
 281 475 l 1,31,-1
 210 138 l 2,32,33
 202 102 202 102 212.5 82 c 128,-1,34
 223 62 223 62 241.5 51.5 c 128,-1,35
 260 41 260 41 281.5 38.5 c 128,-1,36
 303 36 303 36 318 36 c 0,37,38
 325 36 325 36 345 38 c 128,-1,39
 365 40 365 40 387.5 46.5 c 128,-1,40
 410 53 410 53 428.5 65 c 128,-1,41
 447 77 447 77 451 96 c 2,42,-1
 599 795 l 1,43,-1
 664 795 l 1,44,-1
 585 422 l 1,45,46
 605 444 605 444 631.5 463.5 c 128,-1,47
 658 483 658 483 688.5 497.5 c 128,-1,48
 719 512 719 512 752.5 520 c 128,-1,49
 786 528 786 528 818 528 c 0,50,51
 851 528 851 528 876 514.5 c 128,-1,52
 901 501 901 501 915.5 474 c 128,-1,53
 930 447 930 447 932 406 c 128,-1,54
 934 365 934 365 921 310 c 1,55,-1
 856 0 l 1,56,-1
 791 0 l 1,57,-1
 858 318 l 2,0,1
EndSplineSet
Ligature2: "'liga' Standard Ligatures in Latin lookup 0 subtable" t h
EndChar

StartChar: ck
Encoding: 65540 -1 126
Width: 1047
Flags: W
LayerCount: 2
Fore
SplineSet
1047 0 m 1,0,-1
 967 0 l 1,1,-1
 871 169 l 1,2,-1
 807 144 l 1,3,4
 808 151 808 151 810 162.5 c 128,-1,5
 812 174 812 174 817 196 c 1,6,7
 852 210 852 210 893.5 231 c 128,-1,8
 935 252 935 252 972 278 c 128,-1,9
 1009 304 1009 304 1036.5 334.5 c 128,-1,10
 1064 365 1064 365 1071 399 c 0,11,12
 1081 444 1081 444 1059.5 471.5 c 128,-1,13
 1038 499 1038 499 996 499 c 0,14,15
 965 499 965 499 926 482 c 128,-1,16
 887 465 887 465 851.5 436.5 c 128,-1,17
 816 408 816 408 788.5 372 c 128,-1,18
 761 336 761 336 752 297 c 2,19,-1
 723 164 l 1,20,21
 696 142 696 142 654.5 111 c 128,-1,22
 613 80 613 80 559.5 52 c 128,-1,23
 506 24 506 24 442.5 4 c 128,-1,24
 379 -16 379 -16 309 -16 c 0,25,26
 176 -16 176 -16 120.5 52.5 c 128,-1,27
 65 121 65 121 95 263 c 0,28,29
 112 339 112 339 141 390.5 c 128,-1,30
 170 442 170 442 212.5 473.5 c 128,-1,31
 255 505 255 505 308.5 518.5 c 128,-1,32
 362 532 362 532 426 532 c 0,33,34
 469 532 469 532 507 521 c 128,-1,35
 545 510 545 510 580 494 c 1,36,-1
 567 437 l 1,37,38
 533 458 533 458 496 472 c 128,-1,39
 459 486 459 486 416 486 c 0,40,41
 377 486 377 486 338 477.5 c 128,-1,42
 299 469 299 469 266 445 c 128,-1,43
 233 421 233 421 207 378 c 128,-1,44
 181 335 181 335 166 265 c 0,45,46
 150 192 150 192 157 146.5 c 128,-1,47
 164 101 164 101 186 75 c 128,-1,48
 208 49 208 49 243 39.5 c 128,-1,49
 278 30 278 30 319 30 c 256,50,51
 360 30 360 30 404.5 41.5 c 128,-1,52
 449 53 449 53 492.5 72.5 c 128,-1,53
 536 92 536 92 579 119 c 128,-1,54
 622 146 622 146 658 178 c 1,55,-1
 789 795 l 1,56,-1
 857 795 l 1,57,-1
 775 406 l 1,58,59
 822 470 822 470 889.5 510 c 128,-1,60
 957 550 957 550 1026 550 c 0,61,62
 1057 550 1057 550 1080.5 539 c 128,-1,63
 1104 528 1104 528 1118.5 509 c 128,-1,64
 1133 490 1133 490 1137.5 464.5 c 128,-1,65
 1142 439 1142 439 1136 410 c 0,66,67
 1124 353 1124 353 1070 300.5 c 128,-1,68
 1016 248 1016 248 937 200 c 1,69,-1
 1047 0 l 1,0,-1
EndSplineSet
Ligature2: "'liga' Standard Ligatures in Latin lookup 0 subtable" c k
EndChar

StartChar: mm
Encoding: 65541 -1 127
Width: 1340
Flags: W
LayerCount: 2
Fore
SplineSet
1343 330 m 2,0,1
 1349 358 1349 358 1352 386 c 128,-1,2
 1355 414 1355 414 1351 435.5 c 128,-1,3
 1347 457 1347 457 1331 470.5 c 128,-1,4
 1315 484 1315 484 1283 484 c 0,5,6
 1246 484 1246 484 1215.5 469.5 c 128,-1,7
 1185 455 1185 455 1162 432 c 128,-1,8
 1139 409 1139 409 1124 379.5 c 128,-1,9
 1109 350 1109 350 1103 320 c 2,10,-1
 1035 0 l 1,11,-1
 969 0 l 1,12,-1
 1037 320 l 2,13,14
 1043 352 1043 352 1045.5 381.5 c 128,-1,15
 1048 411 1048 411 1042.5 434 c 128,-1,16
 1037 457 1037 457 1022.5 470.5 c 128,-1,17
 1008 484 1008 484 981 484 c 0,18,19
 946 484 946 484 916 469.5 c 128,-1,20
 886 455 886 455 862.5 432 c 128,-1,21
 839 409 839 409 823.5 381 c 128,-1,22
 808 353 808 353 801 325 c 1,23,-1
 735 0 l 1,24,-1
 671 0 l 1,25,-1
 741 330 l 2,26,27
 748 365 748 365 751 393.5 c 128,-1,28
 754 422 754 422 749 442 c 128,-1,29
 744 462 744 462 727.5 473 c 128,-1,30
 711 484 711 484 681 484 c 0,31,32
 643 484 643 484 612.5 469.5 c 128,-1,33
 582 455 582 455 559 432 c 128,-1,34
 536 409 536 409 521 379.5 c 128,-1,35
 506 350 506 350 500 320 c 2,36,-1
 432 0 l 1,37,-1
 367 0 l 1,38,-1
 435 320 l 2,39,40
 452 401 452 401 441.5 442.5 c 128,-1,41
 431 484 431 484 377 484 c 0,42,43
 339 484 339 484 308.5 469 c 128,-1,44
 278 454 278 454 255.5 430.5 c 128,-1,45
 233 407 233 407 218 377.5 c 128,-1,46
 203 348 203 348 198 320 c 2,47,-1
 130 0 l 1,48,-1
 62 0 l 1,49,-1
 171 517 l 1,50,-1
 229 517 l 1,51,-1
 218 418 l 1,52,53
 238 449 238 449 262.5 471 c 128,-1,54
 287 493 287 493 313.5 506.5 c 128,-1,55
 340 520 340 520 367 526.5 c 128,-1,56
 394 533 394 533 419 533 c 0,57,58
 436 533 436 533 453 526.5 c 128,-1,59
 470 520 470 520 483.5 506 c 128,-1,60
 497 492 497 492 505.5 470 c 128,-1,61
 514 448 514 448 513 418 c 1,62,63
 528 440 528 440 551.5 461 c 128,-1,64
 575 482 575 482 603.5 498 c 128,-1,65
 632 514 632 514 662.5 523.5 c 128,-1,66
 693 533 693 533 722 533 c 0,67,68
 741 533 741 533 759 526 c 128,-1,69
 777 519 777 519 790.5 504 c 128,-1,70
 804 489 804 489 811.5 465 c 128,-1,71
 819 441 819 441 818 406 c 1,72,73
 835 439 835 439 859.5 462.5 c 128,-1,74
 884 486 884 486 911.5 502 c 128,-1,75
 939 518 939 518 967.5 525.5 c 128,-1,76
 996 533 996 533 1022 533 c 0,77,78
 1040 533 1040 533 1057.5 527.5 c 128,-1,79
 1075 522 1075 522 1089.5 508.5 c 128,-1,80
 1104 495 1104 495 1112 473 c 128,-1,81
 1120 451 1120 451 1118 418 c 1,82,83
 1133 443 1133 443 1156.5 464 c 128,-1,84
 1180 485 1180 485 1207.5 500.5 c 128,-1,85
 1235 516 1235 516 1266.5 524.5 c 128,-1,86
 1298 533 1298 533 1328 533 c 0,87,88
 1359 533 1359 533 1379.5 522 c 128,-1,89
 1400 511 1400 511 1409.5 486 c 128,-1,90
 1419 461 1419 461 1418 421 c 128,-1,91
 1417 381 1417 381 1405 323 c 2,92,-1
 1337 0 l 1,93,-1
 1273 0 l 1,94,-1
 1343 330 l 2,0,1
EndSplineSet
Ligature2: "'liga' Standard Ligatures in Latin lookup 0 subtable" m m
EndChar

StartChar: t
Encoding: 116 116 128
Width: 344
Flags: W
LayerCount: 2
Fore
SplineSet
236 518 m 1,0,1
 248 554 248 554 261.5 594 c 128,-1,2
 275 634 275 634 288 671 c 1,3,-1
 333 671 l 1,4,-1
 301 518 l 1,5,-1
 435 518 l 1,6,-1
 425 475 l 1,7,-1
 291 475 l 1,8,-1
 220 139 l 2,9,10
 213 106 213 106 210.5 85.5 c 128,-1,11
 208 65 208 65 212.5 54.5 c 128,-1,12
 217 44 217 44 227.5 40.5 c 128,-1,13
 238 37 238 37 257 37 c 0,14,15
 278 37 278 37 298 41.5 c 128,-1,16
 318 46 318 46 334 53 c 1,17,-1
 323 3 l 1,18,19
 286 -5 286 -5 262.5 -8.5 c 128,-1,20
 239 -12 239 -12 222 -12 c 0,21,22
 198 -12 198 -12 181 -7.5 c 128,-1,23
 164 -3 164 -3 154 10 c 128,-1,24
 144 23 144 23 142.5 45.5 c 128,-1,25
 141 68 141 68 149 104 c 2,26,-1
 227 475 l 1,27,-1
 125 475 l 1,28,-1
 135 518 l 1,29,-1
 236 518 l 1,0,1
EndSplineSet
EndChar

StartChar: oo
Encoding: 65542 -1 129
Width: 945
Flags: W
LayerCount: 2
Fore
SplineSet
805 533 m 0,0,1
 877 533 877 533 920 511.5 c 128,-1,2
 963 490 963 490 984 453 c 128,-1,3
 1005 416 1005 416 1006.5 366.5 c 128,-1,4
 1008 317 1008 317 996 261 c 0,5,6
 982 193 982 193 958.5 141 c 128,-1,7
 935 89 935 89 900 54 c 128,-1,8
 865 19 865 19 815 1 c 128,-1,9
 765 -17 765 -17 697 -17 c 0,10,11
 634 -17 634 -17 589.5 8 c 128,-1,12
 545 33 545 33 515 80 c 1,13,14
 464 32 464 32 408.5 7.5 c 128,-1,15
 353 -17 353 -17 284 -17 c 256,16,17
 215 -17 215 -17 172.5 5.5 c 128,-1,18
 130 28 130 28 109 66.5 c 128,-1,19
 88 105 88 105 86 155 c 128,-1,20
 84 205 84 205 96 261 c 0,21,22
 110 326 110 326 133 377 c 128,-1,23
 156 428 156 428 192 462.5 c 128,-1,24
 228 497 228 497 277.5 515 c 128,-1,25
 327 533 327 533 394 533 c 0,26,27
 459 533 459 533 503.5 508.5 c 128,-1,28
 548 484 548 484 578 437 c 1,29,30
 630 485 630 485 684.5 509 c 128,-1,31
 739 533 739 533 805 533 c 0,0,1
168 261 m 0,32,33
 151 179 151 179 158 132.5 c 128,-1,34
 165 86 165 86 186 63 c 128,-1,35
 207 40 207 40 237 34.5 c 128,-1,36
 267 29 267 29 294 29 c 0,37,38
 308 29 308 29 326.5 30 c 128,-1,39
 345 31 345 31 365.5 37.5 c 128,-1,40
 386 44 386 44 407.5 58 c 128,-1,41
 429 72 429 72 448.5 98 c 128,-1,42
 468 124 468 124 485.5 163.5 c 128,-1,43
 503 203 503 203 515 261 c 0,44,45
 533 345 533 345 521 391 c 128,-1,46
 509 437 509 437 484.5 458 c 128,-1,47
 460 479 460 479 431 483 c 128,-1,48
 402 487 402 487 384 487 c 0,49,50
 363 487 363 487 333.5 484 c 128,-1,51
 304 481 304 481 273 460 c 128,-1,52
 242 439 242 439 214 393 c 128,-1,53
 186 347 186 347 168 261 c 0,32,33
574 261 m 0,54,55
 564 213 564 213 563 170.5 c 128,-1,56
 562 128 562 128 575.5 96.5 c 128,-1,57
 589 65 589 65 620.5 47 c 128,-1,58
 652 29 652 29 707 29 c 0,59,60
 721 29 721 29 739 30 c 128,-1,61
 757 31 757 31 777 37.5 c 128,-1,62
 797 44 797 44 817.5 58 c 128,-1,63
 838 72 838 72 857.5 98 c 128,-1,64
 877 124 877 124 894 163.5 c 128,-1,65
 911 203 911 203 923 261 c 0,66,67
 941 345 941 345 932.5 391 c 128,-1,68
 924 437 924 437 901.5 458 c 128,-1,69
 879 479 879 479 849.5 483 c 128,-1,70
 820 487 820 487 795 487 c 0,71,72
 739 487 739 487 701 468.5 c 128,-1,73
 663 450 663 450 638 418.5 c 128,-1,74
 613 387 613 387 598 346 c 128,-1,75
 583 305 583 305 574 261 c 0,54,55
EndSplineSet
Ligature2: "'liga' Standard Ligatures in Latin lookup 0 subtable" o o
EndChar

StartChar: ff
Encoding: 64256 64256 130
Width: 626
Flags: W
LayerCount: 2
Fore
SplineSet
894 698 m 1,0,1
 869 712 869 712 844.5 720 c 128,-1,2
 820 728 820 728 788 728 c 0,3,4
 736 728 736 728 706 715.5 c 128,-1,5
 676 703 676 703 659 681.5 c 128,-1,6
 642 660 642 660 634 630 c 128,-1,7
 626 600 626 600 618 564 c 2,8,-1
 609 518 l 1,9,-1
 738 518 l 1,10,-1
 728 475 l 1,11,-1
 599 475 l 1,12,-1
 454 -211 l 1,13,-1
 391 -211 l 1,14,-1
 536 475 l 1,15,-1
 270 475 l 1,16,-1
 125 -211 l 1,17,-1
 62 -211 l 1,18,-1
 207 475 l 1,19,-1
 121 475 l 1,20,-1
 131 518 l 1,21,-1
 217 518 l 1,22,-1
 226 564 l 1,23,24
 240 627 240 627 262 669 c 128,-1,25
 284 711 284 711 313.5 735.5 c 128,-1,26
 343 760 343 760 381.5 770 c 128,-1,27
 420 780 420 780 468 780 c 0,28,29
 501 780 501 780 531.5 768 c 128,-1,30
 562 756 562 756 584 742 c 1,31,-1
 573 690 l 1,32,33
 545 707 545 707 516.5 717.5 c 128,-1,34
 488 728 488 728 457 728 c 0,35,36
 406 728 406 728 376.5 715.5 c 128,-1,37
 347 703 347 703 330.5 681.5 c 128,-1,38
 314 660 314 660 305.5 630 c 128,-1,39
 297 600 297 600 289 564 c 2,40,-1
 280 518 l 1,41,-1
 546 518 l 1,42,-1
 555 564 l 1,43,44
 569 628 569 628 591 670 c 128,-1,45
 613 712 613 712 643.5 736.5 c 128,-1,46
 674 761 674 761 713 770.5 c 128,-1,47
 752 780 752 780 799 780 c 0,48,49
 826 780 826 780 854 770 c 128,-1,50
 882 760 882 760 904 749 c 1,51,-1
 894 698 l 1,0,1
EndSplineSet
Ligature2: "'liga' Standard Ligatures in Latin lookup 0 subtable" f f
EndChar

StartChar: ellipsis
Encoding: 8230 8230 131
Width: 813
Flags: W
LayerCount: 2
Fore
SplineSet
110 83 m 1,0,-1
 195 83 l 1,1,-1
 177 -1 l 1,2,-1
 92 -1 l 1,3,-1
 110 83 l 1,0,-1
404 83 m 1,4,-1
 489 83 l 1,5,-1
 471 -1 l 1,6,-1
 386 -1 l 1,7,-1
 404 83 l 1,4,-1
698 83 m 1,8,-1
 782 83 l 1,9,-1
 764 -1 l 1,10,-1
 680 -1 l 1,11,-1
 698 83 l 1,8,-1
EndSplineSet
EndChar

StartChar: yen
Encoding: 165 165 132
Width: 690
Flags: W
LayerCount: 2
Fore
SplineSet
179 731 m 1,0,-1
 262 731 l 1,1,-1
 421 328 l 1,2,3
 503 425 503 425 591.5 529.5 c 128,-1,4
 680 634 680 634 763 731 c 1,5,-1
 847 731 l 1,6,-1
 496 325 l 1,7,-1
 670 325 l 1,8,-1
 661 284 l 1,9,-1
 455 284 l 1,10,-1
 419 115 l 1,11,-1
 625 115 l 1,12,-1
 616 75 l 1,13,-1
 410 75 l 1,14,-1
 395 0 l 1,15,-1
 321 0 l 1,16,-1
 336 75 l 1,17,-1
 133 75 l 1,18,-1
 142 115 l 1,19,-1
 345 115 l 1,20,-1
 381 284 l 1,21,-1
 178 284 l 1,22,-1
 187 325 l 1,23,-1
 358 325 l 1,24,-1
 179 731 l 1,0,-1
EndSplineSet
EndChar

StartChar: cent
Encoding: 162 162 133
Width: 509
Flags: W
LayerCount: 2
Fore
SplineSet
416 604 m 1,0,-1
 449 604 l 1,1,-1
 433 529 l 1,2,3
 491 524 491 524 527.5 514 c 128,-1,4
 564 504 564 504 592 492 c 1,5,6
 587 478 587 478 583 467.5 c 128,-1,7
 579 457 579 457 574 445 c 1,8,9
 544 459 544 459 510.5 472 c 128,-1,10
 477 485 477 485 425 490 c 1,11,-1
 326 28 l 1,12,13
 391 34 391 34 437.5 47.5 c 128,-1,14
 484 61 484 61 512 73 c 1,15,16
 507 50 507 50 504 35.5 c 128,-1,17
 501 21 501 21 500 14 c 1,18,19
 478 8 478 8 458.5 3 c 128,-1,20
 439 -2 439 -2 418 -6 c 128,-1,21
 397 -10 397 -10 373 -12.5 c 128,-1,22
 349 -15 349 -15 317 -16 c 1,23,-1
 294 -124 l 1,24,-1
 261 -124 l 1,25,-1
 285 -14 l 1,26,27
 227 -14 227 -14 187 5.5 c 128,-1,28
 147 25 147 25 125 61.5 c 128,-1,29
 103 98 103 98 99 149 c 128,-1,30
 95 200 95 200 108 263 c 0,31,32
 136 394 136 394 214 461.5 c 128,-1,33
 292 529 292 529 400 529 c 1,34,-1
 416 604 l 1,0,-1
176 264 m 1,35,36
 164 210 164 210 167 166 c 128,-1,37
 170 122 170 122 185.5 91 c 128,-1,38
 201 60 201 60 228.5 43.5 c 128,-1,39
 256 27 256 27 293 27 c 1,40,-1
 392 490 l 1,41,42
 362 490 362 490 328.5 474 c 128,-1,43
 295 458 295 458 265 429 c 128,-1,44
 235 400 235 400 211 358 c 128,-1,45
 187 316 187 316 176 265 c 1,46,-1
 176 264 l 1,35,36
EndSplineSet
EndChar

StartChar: rt
Encoding: 65543 -1 134
Width: 677
Flags: W
LayerCount: 2
Fore
SplineSet
145 0 m 1,0,-1
 74 0 l 1,1,-1
 184 518 l 1,2,-1
 244 518 l 1,3,-1
 231 414 l 1,4,5
 246 445 246 445 267.5 467.5 c 128,-1,6
 289 490 289 490 312 504.5 c 128,-1,7
 335 519 335 519 359 526 c 128,-1,8
 383 533 383 533 403 533 c 0,9,10
 435 533 435 533 453.5 528 c 128,-1,11
 472 523 472 523 482 518 c 1,12,-1
 464 464 l 1,13,14
 440 472 440 472 425 476.5 c 128,-1,15
 410 481 410 481 392 481 c 0,16,17
 367 481 367 481 340 475 c 128,-1,18
 313 469 313 469 287 446 c 128,-1,19
 261 423 261 423 237.5 376 c 128,-1,20
 214 329 214 329 197 248 c 2,21,-1
 145 0 l 1,0,-1
595 537 m 1,22,-1
 643 671 l 1,23,-1
 688 671 l 1,24,-1
 656 518 l 1,25,-1
 790 518 l 1,26,-1
 780 475 l 1,27,-1
 646 475 l 1,28,-1
 575 139 l 2,29,30
 568 106 568 106 565.5 85.5 c 128,-1,31
 563 65 563 65 567 54.5 c 128,-1,32
 571 44 571 44 581.5 40.5 c 128,-1,33
 592 37 592 37 612 37 c 0,34,35
 630 37 630 37 650 43 c 128,-1,36
 670 49 670 49 690 57 c 1,37,-1
 678 2 l 1,38,39
 644 -7 644 -7 620 -9.5 c 128,-1,40
 596 -12 596 -12 577 -12 c 0,41,42
 553 -12 553 -12 535.5 -7.5 c 128,-1,43
 518 -3 518 -3 508 10 c 128,-1,44
 498 23 498 23 496.5 45.5 c 128,-1,45
 495 68 495 68 503 104 c 2,46,-1
 595 537 l 1,22,-1
EndSplineSet
Ligature2: "'liga' Standard Ligatures in Latin lookup 0 subtable" r t
EndChar

StartChar: approxequal
Encoding: 8776 8776 135
Width: 600
Flags: W
LayerCount: 2
Fore
SplineSet
252 216 m 0,0,1
 226 216 226 216 198.5 209.5 c 128,-1,2
 171 203 171 203 149 197 c 1,3,4
 152 211 152 211 152.5 218 c 128,-1,5
 153 225 153 225 156 237 c 1,6,7
 187 250 187 250 212.5 259 c 128,-1,8
 238 268 238 268 265 268 c 0,9,10
 301 268 301 268 323 263.5 c 128,-1,11
 345 259 345 259 364.5 254 c 128,-1,12
 384 249 384 249 407.5 244.5 c 128,-1,13
 431 240 431 240 470 240 c 0,14,15
 499 240 499 240 525 246.5 c 128,-1,16
 551 253 551 253 573 262 c 1,17,-1
 564 217 l 1,18,19
 519 200 519 200 496.5 194.5 c 128,-1,20
 474 189 474 189 459 189 c 0,21,22
 422 189 422 189 398.5 193 c 128,-1,23
 375 197 375 197 355 202.5 c 128,-1,24
 335 208 335 208 312 212 c 128,-1,25
 289 216 289 216 252 216 c 0,0,1
EndSplineSet
EndChar

StartChar: Oslash
Encoding: 216 216 136
Width: 824
Flags: W
LayerCount: 2
Fore
SplineSet
743 736 m 1,0,-1
 728 712 l 1,1,2
 834 668 834 668 868.5 580.5 c 128,-1,3
 903 493 903 493 874 356 c 0,4,5
 857 276 857 276 822 207.5 c 128,-1,6
 787 139 787 139 731.5 88.5 c 128,-1,7
 676 38 676 38 598 9 c 128,-1,8
 520 -20 520 -20 419 -20 c 0,9,10
 360 -20 360 -20 291 -8 c 1,11,-1
 284 -20 l 1,12,-1
 267 -20 l 1,13,-1
 277 -5 l 1,14,15
 219 16 219 16 183 51 c 128,-1,16
 147 86 147 86 129.5 132.5 c 128,-1,17
 112 179 112 179 110.5 235 c 128,-1,18
 109 291 109 291 122 356 c 1,19,20
 141 444 141 444 184 514 c 128,-1,21
 227 584 227 584 287.5 632 c 128,-1,22
 348 680 348 680 422.5 705.5 c 128,-1,23
 497 731 497 731 579 731 c 0,24,25
 613 731 613 731 645 727.5 c 128,-1,26
 677 724 677 724 710 716 c 1,27,28
 713 722 713 722 717 726 c 0,29,30
 718 728 718 728 719.5 729.5 c 128,-1,31
 721 731 721 731 722 733 c 0,32,33
 724 735 724 735 724 736 c 1,34,-1
 743 736 l 1,0,-1
200 357 m 0,35,36
 186 290 186 290 189 239 c 128,-1,37
 192 188 192 188 208 150 c 128,-1,38
 224 112 224 112 249 86 c 128,-1,39
 274 60 274 60 304 43 c 1,40,-1
 502 367 l 1,41,-1
 685 671 l 1,42,43
 663 677 663 677 648 680 c 128,-1,44
 633 683 633 683 620 684.5 c 128,-1,45
 607 686 607 686 595.5 686.5 c 128,-1,46
 584 687 584 687 569 687 c 0,47,48
 556 687 556 687 529 685.5 c 128,-1,49
 502 684 502 684 466.5 674.5 c 128,-1,50
 431 665 431 665 391.5 645 c 128,-1,51
 352 625 352 625 315.5 588 c 128,-1,52
 279 551 279 551 248.5 495 c 128,-1,53
 218 439 218 439 200 357 c 0,35,36
429 25 m 0,54,55
 439 25 439 25 466 26.5 c 128,-1,56
 493 28 493 28 529 37.5 c 128,-1,57
 565 47 565 47 606.5 67 c 128,-1,58
 648 87 648 87 687 124 c 128,-1,59
 726 161 726 161 758 217.5 c 128,-1,60
 790 274 790 274 807 357 c 0,61,62
 821 421 821 421 817 470.5 c 128,-1,63
 813 520 813 520 797 557.5 c 128,-1,64
 781 595 781 595 755 621 c 128,-1,65
 729 647 729 647 700 665 c 1,66,-1
 319 37 l 1,67,68
 348 29 348 29 378 27 c 128,-1,69
 408 25 408 25 429 25 c 0,54,55
EndSplineSet
EndChar

StartChar: oslash
Encoding: 248 248 137
Width: 565
Flags: W
LayerCount: 2
Fore
SplineSet
400 533 m 0,0,1
 441 533 441 533 482 524 c 128,-1,2
 523 515 523 515 547 492 c 1,3,-1
 571 518 l 1,4,-1
 582 518 l 1,5,-1
 553 486 l 1,6,7
 573 468 573 468 584 442 c 128,-1,8
 595 416 595 416 598 386.5 c 128,-1,9
 601 357 601 357 599 324.5 c 128,-1,10
 597 292 597 292 590 261 c 0,11,12
 576 193 576 193 553 141 c 128,-1,13
 530 89 530 89 495.5 54 c 128,-1,14
 461 19 461 19 411 1 c 128,-1,15
 361 -17 361 -17 293 -17 c 0,16,17
 259 -17 259 -17 225.5 -10.5 c 128,-1,18
 192 -4 192 -4 164 12 c 1,19,20
 160 6 160 6 155 0 c 0,21,22
 150 -5 150 -5 145.5 -10.5 c 128,-1,23
 141 -16 141 -16 138 -20 c 1,24,-1
 126 -20 l 1,25,-1
 156 17 l 1,26,27
 131 34 131 34 117 61.5 c 128,-1,28
 103 89 103 89 97.5 122 c 128,-1,29
 92 155 92 155 94.5 191 c 128,-1,30
 97 227 97 227 104 261 c 0,31,32
 118 326 118 326 141 377 c 128,-1,33
 164 428 164 428 200 462.5 c 128,-1,34
 236 497 236 497 285 515 c 128,-1,35
 334 533 334 533 400 533 c 0,0,1
176 261 m 0,36,37
 163 200 163 200 168 151.5 c 128,-1,38
 173 103 173 103 194 62 c 1,39,40
 273 158 273 158 351 252 c 128,-1,41
 429 346 429 346 509 443 c 1,42,43
 497 461 497 461 483 470.5 c 128,-1,44
 469 480 469 480 452 483.5 c 128,-1,45
 435 487 435 487 419 487 c 128,-1,46
 403 487 403 487 390 487 c 0,47,48
 364 487 364 487 334 484 c 128,-1,49
 304 481 304 481 275 460 c 128,-1,50
 246 439 246 439 220 393 c 128,-1,51
 194 347 194 347 176 261 c 0,36,37
303 29 m 0,52,53
 325 29 325 29 353 33 c 128,-1,54
 381 37 381 37 410.5 58.5 c 128,-1,55
 440 80 440 80 466.5 127 c 128,-1,56
 493 174 493 174 512 261 c 0,57,58
 515 277 515 277 519 300.5 c 128,-1,59
 523 324 523 324 525 349 c 128,-1,60
 527 374 527 374 524.5 397 c 128,-1,61
 522 420 522 420 513 436 c 1,62,-1
 198 56 l 1,63,64
 225 35 225 35 255.5 32 c 128,-1,65
 286 29 286 29 303 29 c 0,52,53
EndSplineSet
EndChar

StartChar: ordmasculine
Encoding: 186 186 138
Width: 400
Flags: W
LayerCount: 2
Fore
SplineSet
226 577 m 0,0,1
 217 534 217 534 225.5 511.5 c 128,-1,2
 234 489 234 489 249 479 c 128,-1,3
 264 469 264 469 280.5 468 c 128,-1,4
 297 467 297 467 302 467 c 0,5,6
 308 467 308 467 325 468.5 c 128,-1,7
 342 470 342 470 362.5 480.5 c 128,-1,8
 383 491 383 491 401.5 513.5 c 128,-1,9
 420 536 420 536 429 577 c 0,10,11
 438 619 438 619 428.5 641 c 128,-1,12
 419 663 419 663 403.5 673.5 c 128,-1,13
 388 684 388 684 371.5 685.5 c 128,-1,14
 355 687 355 687 349 687 c 256,15,16
 343 687 343 687 326.5 685.5 c 128,-1,17
 310 684 310 684 290 673.5 c 128,-1,18
 270 663 270 663 252.5 640.5 c 128,-1,19
 235 618 235 618 226 577 c 0,0,1
355 719 m 1,20,21
 430 718 430 718 455.5 682 c 128,-1,22
 481 646 481 646 466 577 c 0,23,24
 460 547 460 547 447 521.5 c 128,-1,25
 434 496 434 496 413 477 c 128,-1,26
 392 458 392 458 362.5 447.5 c 128,-1,27
 333 437 333 437 295 437 c 256,28,29
 257 437 257 437 233 447 c 128,-1,30
 209 457 209 457 196.5 475.5 c 128,-1,31
 184 494 184 494 181.5 519.5 c 128,-1,32
 179 545 179 545 186 577 c 0,33,34
 201 647 201 647 245.5 682.5 c 128,-1,35
 290 718 290 718 355 719 c 1,20,21
EndSplineSet
EndChar

StartChar: ring
Encoding: 730 730 139
Width: 400
Flags: W
LayerCount: 2
Fore
SplineSet
219 590 m 0,0,1
 208 541 208 541 218.5 515.5 c 128,-1,2
 229 490 229 490 246 478.5 c 128,-1,3
 263 467 263 467 281 466 c 128,-1,4
 299 465 299 465 305 465 c 0,5,6
 312 465 312 465 332 467 c 128,-1,7
 352 469 352 469 375 480.5 c 128,-1,8
 398 492 398 492 419.5 517.5 c 128,-1,9
 441 543 441 543 451 590 c 256,10,11
 461 637 461 637 450.5 662.5 c 128,-1,12
 440 688 440 688 422 699.5 c 128,-1,13
 404 711 404 711 384.5 713 c 128,-1,14
 365 715 365 715 358 715 c 256,15,16
 351 715 351 715 332.5 713 c 128,-1,17
 314 711 314 711 292 699.5 c 128,-1,18
 270 688 270 688 249.5 662.5 c 128,-1,19
 229 637 229 637 219 590 c 0,0,1
361 727 m 1,20,21
 434 726 434 726 458 691 c 128,-1,22
 482 656 482 656 468 590 c 0,23,24
 456 532 456 532 416.5 493.5 c 128,-1,25
 377 455 377 455 303 455 c 0,26,27
 266 455 266 455 242.5 464.5 c 128,-1,28
 219 474 219 474 207 492 c 128,-1,29
 195 510 195 510 193.5 535 c 128,-1,30
 192 560 192 560 198 590 c 0,31,32
 212 658 212 658 255 692 c 128,-1,33
 298 726 298 726 361 727 c 1,20,21
EndSplineSet
EndChar

StartChar: periodcentered
Encoding: 183 183 140
Width: 290
Flags: W
LayerCount: 2
Fore
SplineSet
189 391 m 1,0,-1
 274 391 l 1,1,-1
 256 306 l 1,2,-1
 171 306 l 1,3,-1
 189 391 l 1,0,-1
EndSplineSet
EndChar

StartChar: quotesinglbase
Encoding: 8218 8218 141
Width: 278
Flags: W
LayerCount: 2
Fore
SplineSet
123 84 m 1,0,-1
 210 84 l 1,1,2
 208 55 208 55 205 30 c 128,-1,3
 202 5 202 5 197 -15 c 0,4,5
 188 -60 188 -60 172 -91.5 c 128,-1,6
 156 -123 156 -123 136.5 -143.5 c 128,-1,7
 117 -164 117 -164 95 -174 c 128,-1,8
 73 -184 73 -184 52 -187 c 1,9,-1
 59 -152 l 1,10,11
 88 -149 88 -149 106 -134.5 c 128,-1,12
 124 -120 124 -120 135.5 -99 c 128,-1,13
 147 -78 147 -78 153.5 -52 c 128,-1,14
 160 -26 160 -26 166 0 c 1,15,-1
 106 0 l 1,16,-1
 123 84 l 1,0,-1
EndSplineSet
EndChar

StartChar: quotedblbase
Encoding: 8222 8222 142
Width: 487
Flags: W
LayerCount: 2
Fore
SplineSet
119 84 m 1,0,-1
 205 84 l 1,1,2
 202 25 202 25 193 -15 c 0,3,4
 184 -60 184 -60 168 -91.5 c 128,-1,5
 152 -123 152 -123 132.5 -143.5 c 128,-1,6
 113 -164 113 -164 91 -174 c 128,-1,7
 69 -184 69 -184 48 -187 c 1,8,-1
 55 -152 l 1,9,10
 83 -149 83 -149 101 -134.5 c 128,-1,11
 119 -120 119 -120 130.5 -99 c 128,-1,12
 142 -78 142 -78 148.5 -52 c 128,-1,13
 155 -26 155 -26 161 0 c 1,14,-1
 102 0 l 1,15,-1
 119 84 l 1,0,-1
345 84 m 1,16,-1
 432 84 l 1,17,18
 431 53 431 53 428.5 30.5 c 128,-1,19
 426 8 426 8 421 -15 c 0,20,21
 412 -61 412 -61 395.5 -92.5 c 128,-1,22
 379 -124 379 -124 359.5 -144 c 128,-1,23
 340 -164 340 -164 317.5 -174 c 128,-1,24
 295 -184 295 -184 275 -187 c 1,25,-1
 282 -152 l 1,26,27
 311 -149 311 -149 328.5 -135 c 128,-1,28
 346 -121 346 -121 356.5 -100.5 c 128,-1,29
 367 -80 367 -80 374 -54 c 128,-1,30
 381 -28 381 -28 386 -1 c 1,31,32
 373 -1 373 -1 357.5 -0.5 c 128,-1,33
 342 0 342 0 328 0 c 1,34,-1
 345 84 l 1,16,-1
EndSplineSet
EndChar

StartChar: fraction
Encoding: 8260 8260 143
Width: 347
Flags: W
LayerCount: 2
Fore
SplineSet
515 753 m 1,0,-1
 17 -20 l 1,1,-1
 4 -20 l 1,2,-1
 503 753 l 1,3,-1
 515 753 l 1,0,-1
EndSplineSet
EndChar

StartChar: caron
Encoding: 711 711 144
Width: 230
Flags: W
LayerCount: 2
Fore
SplineSet
260 651 m 1,0,-1
 361 754 l 1,1,-1
 404 754 l 1,2,-1
 273 625 l 1,3,-1
 234 625 l 1,4,-1
 159 754 l 1,5,-1
 202 754 l 1,6,-1
 260 651 l 1,0,-1
EndSplineSet
EndChar

StartChar: florin
Encoding: 402 402 145
Width: 322
Flags: W
LayerCount: 2
Fore
SplineSet
571 697 m 1,0,1
 547 711 547 711 522.5 719 c 128,-1,2
 498 727 498 727 466 727 c 0,3,4
 414 727 414 727 384 714.5 c 128,-1,5
 354 702 354 702 337 680.5 c 128,-1,6
 320 659 320 659 312 629 c 128,-1,7
 304 599 304 599 296 563 c 2,8,-1
 286 517 l 1,9,-1
 415 517 l 1,10,-1
 406 474 l 1,11,-1
 277 474 l 1,12,-1
 172 -21 l 1,13,14
 158 -79 158 -79 135.5 -115.5 c 128,-1,15
 113 -152 113 -152 89 -173.5 c 128,-1,16
 65 -195 65 -195 42 -203.5 c 128,-1,17
 19 -212 19 -212 4 -215 c 1,18,-1
 13 -170 l 1,19,20
 31 -156 31 -156 45.5 -143.5 c 128,-1,21
 60 -131 60 -131 71.5 -115 c 128,-1,22
 83 -99 83 -99 91.5 -78.5 c 128,-1,23
 100 -58 100 -58 107 -28 c 2,24,-1
 213 474 l 1,25,-1
 127 474 l 1,26,-1
 136 517 l 1,27,-1
 222 517 l 1,28,-1
 232 563 l 2,29,30
 246 626 246 626 267.5 668 c 128,-1,31
 289 710 289 710 320 734.5 c 128,-1,32
 351 759 351 759 390 769 c 128,-1,33
 429 779 429 779 477 779 c 0,34,35
 503 779 503 779 531.5 769 c 128,-1,36
 560 759 560 759 580 748 c 1,37,-1
 571 697 l 1,0,1
EndSplineSet
EndChar

StartChar: periodcentered
Encoding: 65544 -1 146
Width: 290
Flags: W
LayerCount: 2
Fore
SplineSet
189 391 m 1,0,-1
 274 391 l 1,1,-1
 256 306 l 1,2,-1
 171 306 l 1,3,-1
 189 391 l 1,0,-1
EndSplineSet
EndChar

StartChar: onesuperior
Encoding: 185 185 147
Width: 297
Flags: W
LayerCount: 2
Fore
SplineSet
317 726 m 1,0,-1
 239 362 l 1,1,-1
 224 362 l 1,2,-1
 299 715 l 1,3,4
 294 714 294 714 287 713 c 128,-1,5
 280 712 280 712 273 711 c 0,6,7
 264 709 264 709 255 708 c 1,8,-1
 270 715 l 2,9,10
 276 718 276 718 282.5 721 c 128,-1,11
 289 724 289 724 294 726 c 1,12,-1
 317 726 l 1,0,-1
EndSplineSet
EndChar

StartChar: ordfeminine
Encoding: 170 170 148
Width: 277
Flags: W
LayerCount: 2
Fore
SplineSet
315 573 m 1,0,1
 300 567 300 567 279 566 c 128,-1,2
 258 565 258 565 246 565 c 0,3,4
 235 565 235 565 224.5 564.5 c 128,-1,5
 214 564 214 564 204.5 558.5 c 128,-1,6
 195 553 195 553 187.5 542 c 128,-1,7
 180 531 180 531 176 510 c 0,8,9
 170 480 170 480 184 466.5 c 128,-1,10
 198 453 198 453 221 453 c 0,11,12
 255 453 255 453 296 484 c 1,13,-1
 315 573 l 1,0,1
295 434 m 1,14,-1
 288 457 l 1,15,16
 274 444 274 444 253.5 437.5 c 128,-1,17
 233 431 233 431 216 431 c 0,18,19
 166 431 166 431 150 451.5 c 128,-1,20
 134 472 134 472 142 510 c 0,21,22
 145 525 145 525 152 539 c 128,-1,23
 159 553 159 553 171 563.5 c 128,-1,24
 183 574 183 574 200 580.5 c 128,-1,25
 217 587 217 587 240 587 c 0,26,27
 274 587 274 587 290.5 588 c 128,-1,28
 307 589 307 589 321 600 c 1,29,30
 327 628 327 628 328 644.5 c 128,-1,31
 329 661 329 661 323.5 668.5 c 128,-1,32
 318 676 318 676 307 678 c 128,-1,33
 296 680 296 680 278 680 c 0,34,35
 254 680 254 680 233.5 675.5 c 128,-1,36
 213 671 213 671 201 666 c 1,37,-1
 196 691 l 1,38,39
 215 697 215 697 239.5 701 c 128,-1,40
 264 705 264 705 288 705 c 0,41,42
 306 705 306 705 321.5 701.5 c 128,-1,43
 337 698 337 698 347 686.5 c 128,-1,44
 357 675 357 675 359.5 655 c 128,-1,45
 362 635 362 635 355 602 c 2,46,-1
 320 434 l 1,47,-1
 295 434 l 1,14,-1
EndSplineSet
EndChar

StartChar: gravecmb
Encoding: 768 768 153
Width: 222
Flags: W
LayerCount: 2
Fore
SplineSet
241 751 m 1,0,-1
 267 639 l 1,1,-1
 225 639 l 1,2,-1
 163 751 l 1,3,-1
 241 751 l 1,0,-1
EndSplineSet
EndChar

StartChar: acutecmb
Encoding: 769 769 155
Width: 222
Flags: W
LayerCount: 2
Fore
SplineSet
389 742 m 1,0,-1
 264 614 l 1,1,-1
 203 614 l 1,2,-1
 287 742 l 1,3,-1
 389 742 l 1,0,-1
EndSplineSet
EndChar

StartChar: circumflexcmb
Encoding: 770 770 157
Width: 240
Flags: W
LayerCount: 2
Fore
SplineSet
275 728 m 1,0,-1
 174 625 l 1,1,-1
 131 625 l 1,2,-1
 262 754 l 1,3,-1
 301 754 l 1,4,-1
 376 625 l 1,5,-1
 333 625 l 1,6,-1
 275 728 l 1,0,-1
EndSplineSet
EndChar

StartChar: tildecmb
Encoding: 771 771 159
Width: 222
Flags: W
LayerCount: 2
Fore
SplineSet
131 705 m 1,0,1
 137 711 137 711 151 718 c 128,-1,2
 165 725 165 725 193 725 c 0,3,4
 213 725 213 725 231.5 720.5 c 128,-1,5
 250 716 250 716 268.5 711 c 128,-1,6
 287 706 287 706 306 701.5 c 128,-1,7
 325 697 325 697 346 697 c 0,8,9
 366 697 366 697 382 699.5 c 128,-1,10
 398 702 398 702 411 707 c 1,11,-1
 403 669 l 1,12,13
 370 646 370 646 336 646 c 0,14,15
 313 646 313 646 294.5 650 c 128,-1,16
 276 654 276 654 258 659 c 128,-1,17
 240 664 240 664 220.5 668 c 128,-1,18
 201 672 201 672 179 672 c 0,19,20
 150 672 150 672 123 662 c 1,21,-1
 131 705 l 1,0,1
EndSplineSet
EndChar

StartChar: ringcmb
Encoding: 778 778 163
Width: 400
Flags: W
LayerCount: 2
Fore
SplineSet
219 590 m 0,0,1
 208 541 208 541 218.5 515.5 c 128,-1,2
 229 490 229 490 246 478.5 c 128,-1,3
 263 467 263 467 281 466 c 128,-1,4
 299 465 299 465 305 465 c 0,5,6
 312 465 312 465 332 467 c 128,-1,7
 352 469 352 469 375 480.5 c 128,-1,8
 398 492 398 492 419.5 517.5 c 128,-1,9
 441 543 441 543 451 590 c 256,10,11
 461 637 461 637 450.5 662.5 c 128,-1,12
 440 688 440 688 422 699.5 c 128,-1,13
 404 711 404 711 384.5 713 c 128,-1,14
 365 715 365 715 358 715 c 256,15,16
 351 715 351 715 332.5 713 c 128,-1,17
 314 711 314 711 292 699.5 c 128,-1,18
 270 688 270 688 249.5 662.5 c 128,-1,19
 229 637 229 637 219 590 c 0,0,1
361 727 m 1,20,21
 434 726 434 726 458 691 c 128,-1,22
 482 656 482 656 468 590 c 0,23,24
 456 532 456 532 416.5 493.5 c 128,-1,25
 377 455 377 455 303 455 c 0,26,27
 266 455 266 455 242.5 464.5 c 128,-1,28
 219 474 219 474 207 492 c 128,-1,29
 195 510 195 510 193.5 535 c 128,-1,30
 192 560 192 560 198 590 c 0,31,32
 212 658 212 658 255 692 c 128,-1,33
 298 726 298 726 361 727 c 1,20,21
EndSplineSet
EndChar

StartChar: cedillacmb
Encoding: 807 807 165
Width: 245
Flags: W
LayerCount: 2
Fore
SplineSet
89 -90 m 0,0,1
 80 -90 80 -90 70.5 -91.5 c 128,-1,2
 61 -93 61 -93 51 -95 c 1,3,4
 55 -92 55 -92 62.5 -82 c 128,-1,5
 70 -72 70 -72 80 -58 c 128,-1,6
 90 -44 90 -44 101 -28 c 128,-1,7
 112 -12 112 -12 123 2 c 1,8,-1
 130 2 l 1,9,-1
 72 -78 l 1,10,11
 106 -75 106 -75 127 -80.5 c 128,-1,12
 148 -86 148 -86 159 -97.5 c 128,-1,13
 170 -109 170 -109 173 -123.5 c 128,-1,14
 176 -138 176 -138 173 -151 c 0,15,16
 166 -185 166 -185 140.5 -202.5 c 128,-1,17
 115 -220 115 -220 77 -224 c 1,18,19
 58 -224 58 -224 43.5 -222.5 c 128,-1,20
 29 -221 29 -221 15 -216 c 1,21,-1
 19 -196 l 1,22,23
 42 -206 42 -206 65 -206 c 0,24,25
 72 -206 72 -206 82.5 -204.5 c 128,-1,26
 93 -203 93 -203 104 -197.5 c 128,-1,27
 115 -192 115 -192 124 -181 c 128,-1,28
 133 -170 133 -170 137 -151 c 0,29,30
 150 -90 150 -90 89 -90 c 0,0,1
EndSplineSet
EndChar

StartChar: caroncmb
Encoding: 780 780 180
Width: 230
Flags: W
LayerCount: 2
Fore
SplineSet
260 651 m 1,0,-1
 361 754 l 1,1,-1
 404 754 l 1,2,-1
 273 625 l 1,3,-1
 234 625 l 1,4,-1
 159 754 l 1,5,-1
 202 754 l 1,6,-1
 260 651 l 1,0,-1
EndSplineSet
EndChar

StartChar: backslash
Encoding: 92 92 217
Width: 347
Flags: W
LayerCount: 2
Fore
SplineSet
166 753 m 1,0,-1
 213 753 l 1,1,-1
 352 -19 l 1,2,-1
 305 -19 l 1,3,-1
 166 753 l 1,0,-1
EndSplineSet
EndChar

StartChar: g
Encoding: 103 103 218
Width: 563
Flags: W
LayerCount: 2
Fore
SplineSet
625 518 m 1,0,-1
 513 -6 l 2,1,2
 511 -14 511 -14 506 -33.5 c 128,-1,3
 501 -53 501 -53 489 -77 c 128,-1,4
 477 -101 477 -101 457.5 -127 c 128,-1,5
 438 -153 438 -153 407.5 -174 c 128,-1,6
 377 -195 377 -195 333.5 -209 c 128,-1,7
 290 -223 290 -223 232 -223 c 0,8,9
 165 -223 165 -223 122 -198.5 c 128,-1,10
 79 -174 79 -174 51 -132 c 1,11,-1
 98 -100 l 1,12,13
 114 -122 114 -122 136 -140 c 0,14,15
 155 -155 155 -155 181 -167 c 128,-1,16
 207 -179 207 -179 241 -179 c 0,17,18
 305 -179 305 -179 344.5 -156.5 c 128,-1,19
 384 -134 384 -134 406 -105 c 128,-1,20
 428 -76 428 -76 436.5 -47 c 128,-1,21
 445 -18 445 -18 447 -6 c 2,22,-1
 461 59 l 1,23,24
 441 38 441 38 422.5 23.5 c 128,-1,25
 404 9 404 9 383.5 -0.5 c 128,-1,26
 363 -10 363 -10 339.5 -14.5 c 128,-1,27
 316 -19 316 -19 286 -19 c 0,28,29
 218 -19 218 -19 177 4.5 c 128,-1,30
 136 28 136 28 116 67 c 128,-1,31
 96 106 96 106 94.5 157 c 128,-1,32
 93 208 93 208 105 263 c 0,33,34
 119 327 119 327 141.5 377.5 c 128,-1,35
 164 428 164 428 198.5 462.5 c 128,-1,36
 233 497 233 497 281 515 c 128,-1,37
 329 533 329 533 394 533 c 0,38,39
 432 533 432 533 459 527.5 c 128,-1,40
 486 522 486 522 504.5 510.5 c 128,-1,41
 523 499 523 499 535.5 482 c 128,-1,42
 548 465 548 465 558 442 c 1,43,-1
 580 518 l 1,44,-1
 625 518 l 1,0,-1
172 263 m 0,45,46
 155 182 155 182 162 135 c 128,-1,47
 169 88 169 88 189.5 64 c 128,-1,48
 210 40 210 40 239.5 33.5 c 128,-1,49
 269 27 269 27 296 27 c 0,50,51
 318 27 318 27 346.5 32 c 128,-1,52
 375 37 375 37 404 59.5 c 128,-1,53
 433 82 433 82 460 129.5 c 128,-1,54
 487 177 487 177 505 263 c 0,55,56
 523 346 523 346 516.5 391 c 128,-1,57
 510 436 510 436 490.5 457 c 128,-1,58
 471 478 471 478 443.5 482 c 128,-1,59
 416 486 416 486 391 486 c 0,60,61
 365 486 365 486 334.5 483 c 128,-1,62
 304 480 304 480 274 459.5 c 128,-1,63
 244 439 244 439 217 393.5 c 128,-1,64
 190 348 190 348 172 263 c 0,45,46
EndSplineSet
EndChar
